<?xml version="1.0" encoding="UTF-8"?>
<svg width="40px" height="50px" viewBox="0 0 40 50" version="1.1" xmlns="http://www.w3.org/2000/svg" xmlns:xlink="http://www.w3.org/1999/xlink">
    <title>solidstate</title>
    <g id="Page-1" stroke="none" stroke-width="1" fill="none" fill-rule="evenodd">
        <g id="Desktop-HD" transform="translate(-384.000000, -544.000000)" fill="#0693FE">
            <g id="solidstate" transform="translate(384.000000, 544.000003)">
                <path d="M17.5,13 C17.0857864,13 16.75,13.3357864 16.75,13.75 L16.75,24.25 C16.75,24.6642136 17.0857864,25 17.5,25 C17.9142136,25 18.25,24.6642136 18.25,24.25 L18.25,13.75 C18.25,13.3357864 17.9142136,13 17.5,13 Z M15.25,31 L24.25,31 L24.25,11.5 L15.25,11.5 L15.25,31 Z M13.75,29.5 L13.75,28 L12.25,28 C11.8357864,28 11.5,27.6642136 11.5,27.25 C11.5,26.8357864 11.8357864,26.5 12.25,26.5 L13.75,26.5 L13.75,25 L12.25,25 C11.8357864,25 11.5,24.6642136 11.5,24.25 C11.5,23.8357864 11.8357864,23.5 12.25,23.5 L13.75,23.5 L13.75,22 L12.25,22 C11.8357864,22 11.5,21.6642136 11.5,21.25 C11.5,20.8357864 11.8357864,20.5 12.25,20.5 L13.75,20.5 L13.75,19 L12.25,19 C11.8357864,19 11.5,18.6642136 11.5,18.25 C11.5,17.8357864 11.8357864,17.5 12.25,17.5 L13.75,17.5 L13.75,16 L12.25,16 C11.8357864,16 11.5,15.6642136 11.5,15.25 C11.5,14.8357864 11.8357864,14.5 12.25,14.5 L13.75,14.5 L13.75,13 L12.25,13 C11.8357864,13 11.5,12.6642136 11.5,12.25 C11.5,11.8357864 11.8357864,11.5 12.25,11.5 L13.75,11.5 L13.75,10.75 C13.75,10.3357864 14.0857864,10 14.5,10 L25,10 C25.4142136,10 25.75,10.3357864 25.75,10.75 L25.75,11.5 L27.25,11.5 C27.6642136,11.5 28,11.8357864 28,12.25 C28,12.6642136 27.6642136,13 27.25,13 L25.75,13 L25.75,14.5 L27.25,14.5 C27.6642136,14.5 28,14.8357864 28,15.25 C28,15.6642136 27.6642136,16 27.25,16 L25.75,16 L25.75,17.5 L27.25,17.5 C27.6642136,17.5 28,17.8357864 28,18.25 C28,18.6642136 27.6642136,19 27.25,19 L25.75,19 L25.75,20.5 L27.25,20.5 C27.6642136,20.5 28,20.8357864 28,21.25 C28,21.6642136 27.6642136,22 27.25,22 L25.75,22 L25.75,23.5 L27.25,23.5 C27.6642136,23.5 28,23.8357864 28,24.25 C28,24.6642136 27.6642136,25 27.25,25 L25.75,25 L25.75,26.5 L27.25,26.5 C27.6642136,26.5 28,26.8357864 28,27.25 C28,27.6642136 27.6642136,28 27.25,28 L25.75,28 L25.75,29.5 L27.25,29.5 C27.6642136,29.5 28,29.8357864 28,30.25 C28,30.6642136 27.6642136,31 27.25,31 L25.75,31 L25.75,31.75 C25.75,32.1642136 25.4142136,32.5 25,32.5 L14.5,32.5 C14.0857864,32.5 13.75,32.1642136 13.75,31.75 L13.75,31 L12.25,31 C11.8357864,31 11.5,30.6642136 11.5,30.25 C11.5,29.8357864 11.8357864,29.5 12.25,29.5 L13.75,29.5 Z M7.75,43 L7,43 C6.58578644,43 6.25,43.3357864 6.25,43.75 C6.25,44.1642136 6.58578644,44.5 7,44.5 L7.75,44.5 C8.16421356,44.5 8.5,44.1642136 8.5,43.75 C8.5,43.3357864 8.16421356,43 7.75,43 Z M23.5,43 L17.5,43 C17.0857864,43 16.75,43.3357864 16.75,43.75 C16.75,44.1642136 17.0857864,44.5 17.5,44.5 L23.5,44.5 C23.9142136,44.5 24.25,44.1642136 24.25,43.75 C24.25,43.3357864 23.9142136,43 23.5,43 Z M32.5,43 L26.5,43 C26.0857864,43 25.75,43.3357864 25.75,43.75 C25.75,44.1642136 26.0857864,44.5 26.5,44.5 L31.75,44.5 L31.75,45.25 C31.75,45.6642136 32.0857864,46 32.5,46 C32.9142136,46 33.25,45.6642136 33.25,45.25 L33.25,43.75 C33.25,43.3357864 32.9142136,43 32.5,43 Z M34,6.25000184 C34.1989454,6.25020552 34.389771,6.1711222 34.53025,6.03025 L35.28025,5.28025 C35.573099,4.98740101 35.573099,4.51259899 35.28025,4.21975 C34.987401,3.92690101 34.512599,3.92690101 34.21975,4.21975 L33.46975,4.96975 C33.2545467,5.18397782 33.1899245,5.506912 33.3061192,5.78745574 C33.422314,6.06799948 33.6963463,6.25067076 34,6.25000184 L34,6.25000184 Z M4.96975,6.03025 C5.11010135,6.17140693 5.30094277,6.25077614 5.5,6.25077614 C5.69905723,6.25077614 5.88989865,6.17140693 6.03025,6.03025 C6.17103727,5.88970192 6.25015087,5.6989342 6.25015087,5.5 C6.25015087,5.3010658 6.17103727,5.11029808 6.03025,4.96975 L5.28025,4.21975 C5.09080992,4.03030992 4.81469499,3.95632514 4.55591503,4.02566502 C4.29713506,4.0950049 4.0950049,4.29713506 4.02566502,4.55591503 C3.95632514,4.81469499 4.03030992,5.09080992 4.21975,5.28025 L4.96975,6.03025 L4.96975,6.03025 Z M4.75,38.5000018 C4.94894541,38.5002055 5.13977103,38.4211222 5.28025,38.28025 L6.03025,37.53025 C6.2196901,37.3408099 6.29367488,37.064695 6.224335,36.805915 C6.15499512,36.547135 5.95286496,36.3450049 5.69408499,36.275665 C5.43530501,36.2063251 5.15919008,36.2803099 4.96975,36.46975 L4.21975,37.21975 C4.00454673,37.4339778 3.9399245,37.756912 4.05611924,38.0374557 C4.17231398,38.3179995 4.44634632,38.5006708 4.75,38.5000018 L4.75,38.5000018 Z M34.21975,38.28025 C34.3601013,38.4214069 34.5509428,38.5007761 34.75,38.5007761 C34.9490572,38.5007761 35.1398987,38.4214069 35.28025,38.28025 C35.4210373,38.1397019 35.5001509,37.9489342 35.5001509,37.75 C35.5001509,37.5510658 35.4210373,37.3602981 35.28025,37.21975 L34.53025,36.46975 C34.3408099,36.2803099 34.064695,36.2063251 33.805915,36.275665 C33.5471351,36.3450049 33.3450049,36.5471351 33.275665,36.805915 C33.2063251,37.064695 33.2803099,37.3408099 33.46975,37.53025 L34.21975,38.28025 L34.21975,38.28025 Z M37,4 C37,3.17275 36.32725,2.5 35.5,2.5 L4,2.5 C3.17275,2.5 2.5,3.17275 2.5,4 L2.5,46 C2.5,46.82725 3.17275,47.5 4,47.5 L35.5,47.5 C36.32725,47.5 37,46.82725 37,46 L37,4 Z M39.5,3.125 L39.5,46.875 C39.5,48.5984375 38.08274,50 36.34,50 L3.16,50 C1.41726,50 0,48.5984375 0,46.875 L0,3.125 C0,1.4015625 1.41726,0 3.16,0 L36.34,0 C38.08274,0 39.5,1.4015625 39.5,3.125 Z M35.5,40.75 C35.5,41.1642136 35.1642136,41.5 34.75,41.5 L4.75,41.5 C4.33578644,41.5 4,41.1642136 4,40.75 C4,40.3357864 4.33578644,40 4.75,40 L34.75,40 C35.1642136,40 35.5,40.3357864 35.5,40.75 Z" id="Shape"></path>
            </g>
        </g>
    </g>
</svg>