<?xml version="1.0" encoding="UTF-8"?>
<svg width="48px" height="43px" viewBox="0 0 48 43" version="1.1" xmlns="http://www.w3.org/2000/svg" xmlns:xlink="http://www.w3.org/1999/xlink">
    <title>options</title>
    <g id="Page-1" stroke="none" stroke-width="1" fill="none" fill-rule="evenodd">
        <g id="Desktop-HD" transform="translate(-1071.000000, -165.000000)" fill="#0693FE" fill-rule="nonzero">
            <g id="options" transform="translate(1071.000000, 165.661181)">
                <path d="M33.6,6.4 L1.6,6.4 C0.7163444,6.4 0,5.6836556 0,4.8 C0,3.9163444 0.7163444,3.2 1.6,3.2 L33.6,3.2 C34.4836556,3.2 35.2,3.9163444 35.2,4.8 C35.2,5.6836556 34.4836556,6.4 33.6,6.4 Z" id="Path"></path>
                <path d="M46.4,6.4 L40,6.4 C39.1163444,6.4 38.4,5.6836556 38.4,4.8 C38.4,3.9163444 39.1163444,3.2 40,3.2 L46.4,3.2 C47.2836556,3.2 48,3.9163444 48,4.8 C48,5.6836556 47.2836556,6.4 46.4,6.4 Z" id="Path"></path>
                <path d="M36.8,9.6 C34.1490332,9.6 32,7.4509668 32,4.8 C32,2.1490332 34.1490332,0 36.8,0 C39.4509668,0 41.6,2.1490332 41.6,4.8 C41.6,7.4509668 39.4509668,9.6 36.8,9.6 Z M36.8,3.2 C35.9163444,3.2 35.2,3.9163444 35.2,4.8 C35.2,5.6836556 35.9163444,6.4 36.8,6.4 C37.6836556,6.4 38.4,5.6836556 38.4,4.8 C38.4,3.9163444 37.6836556,3.2 36.8,3.2 Z" id="Shape"></path>
                <path d="M8,22.4 L1.6,22.4 C0.7163444,22.4 0,21.6836556 0,20.8 C0,19.9163444 0.7163444,19.2 1.6,19.2 L8,19.2 C8.8836556,19.2 9.6,19.9163444 9.6,20.8 C9.6,21.6836556 8.8836556,22.4 8,22.4 Z" id="Path"></path>
                <path d="M46.4,22.4 L14.4,22.4 C13.5163444,22.4 12.8,21.6836556 12.8,20.8 C12.8,19.9163444 13.5163444,19.2 14.4,19.2 L46.4,19.2 C47.2836556,19.2 48,19.9163444 48,20.8 C48,21.6836556 47.2836556,22.4 46.4,22.4 Z" id="Path"></path>
                <path d="M11.2,25.6 C8.5490332,25.6 6.4,23.4509668 6.4,20.8 C6.4,18.1490332 8.5490332,16 11.2,16 C13.8509668,16 16,18.1490332 16,20.8 C16,23.4509668 13.8509668,25.6 11.2,25.6 L11.2,25.6 Z M11.2,19.2 C10.3163444,19.2 9.6,19.9163444 9.6,20.8 C9.6,21.6836556 10.3163444,22.4 11.2,22.4 C12.0836556,22.4 12.8,21.6836556 12.8,20.8 C12.8,19.9163444 12.0836556,19.2 11.2,19.2 Z" id="Shape"></path>
                <path d="M20.8,38.4 L1.6,38.4 C0.7163444,38.4 0,37.6836556 0,36.8 C0,35.9163444 0.7163444,35.2 1.6,35.2 L20.8,35.2 C21.6836556,35.2 22.4,35.9163444 22.4,36.8 C22.4,37.6836556 21.6836556,38.4 20.8,38.4 Z" id="Path"></path>
                <path d="M46.4,38.4 L27.2,38.4 C26.3163444,38.4 25.6,37.6836556 25.6,36.8 C25.6,35.9163444 26.3163444,35.2 27.2,35.2 L46.4,35.2 C47.2836556,35.2 48,35.9163444 48,36.8 C48,37.6836556 47.2836556,38.4 46.4,38.4 Z" id="Path"></path>
                <path d="M24,41.6 C21.3490332,41.6 19.2,39.4509668 19.2,36.8 C19.2,34.1490332 21.3490332,32 24,32 C26.6509668,32 28.8,34.1490332 28.8,36.8 C28.8,39.4509668 26.6509668,41.6 24,41.6 L24,41.6 Z M24,35.2 C23.1163444,35.2 22.4,35.9163444 22.4,36.8 C22.4,37.6836556 23.1163444,38.4 24,38.4 C24.8836556,38.4 25.6,37.6836556 25.6,36.8 C25.6,35.9163444 24.8836556,35.2 24,35.2 Z" id="Shape"></path>
            </g>
        </g>
    </g>
</svg>