<?xml version="1.0" encoding="UTF-8"?>
<svg width="236px" height="60px" viewBox="0 0 236 60" version="1.1" xmlns="http://www.w3.org/2000/svg" xmlns:xlink="http://www.w3.org/1999/xlink">
    <title>logo</title>
    <g id="HOME" stroke="none" stroke-width="1" fill="none" fill-rule="evenodd">
        <g id="Desktop-HD" transform="translate(-320.000000, -76.000000)" fill="#FFFFFF" fill-rule="nonzero">
            <g id="Header" transform="translate(320.000000, 76.000000)">
                <g id="g8" transform="translate(117.656250, 30.000000) scale(-1, 1) rotate(-180.000000) translate(-117.656250, -30.000000) ">
                    <g id="g10" transform="translate(-0.000000, 0.000000)">
                        <g id="g12-Clipped" transform="translate(-0.000000, 0.000000)">
                            <g id="g12" transform="translate(-0.000000, 0.000000)">
                                <g id="g18" transform="translate(79.441604, 29.544664)">
                                    <path d="M11.4913943,14.3753568 C11.3939858,15.3710748 11.031982,16.1123576 10.406788,16.6006109 C9.78112565,17.0883956 8.84310043,17.3325222 7.59224404,17.3325222 C5.28581658,17.3325222 4.13283701,16.5420392 4.13283701,14.9610733 C4.13283701,14.3945683 4.37167518,13.921778 4.85075646,13.540828 C5.32983774,13.1603465 6.09692975,12.8426539 7.15250081,12.5891558 C8.4028889,12.2962976 9.48749519,12.0231194 10.406788,11.7696213 C11.3251442,11.5156546 12.1652926,11.2227964 12.9277015,10.8910466 C13.3571419,10.7153316 13.7631668,10.4960394 14.1443712,10.2327013 C14.5255757,9.96889455 14.8477731,9.64183047 15.1114317,9.251509 C15.3755586,8.86071896 15.5858299,8.39261435 15.7422455,7.84625801 C15.898661,7.2994331 15.9768688,6.63593347 15.9768688,5.85529054 C15.9768688,4.91861274 15.7815835,4.08876963 15.3914812,3.36669835 C15.0009105,2.64462707 14.4745299,2.03454478 13.8114027,1.53692005 C13.1482756,1.03929533 12.3676026,0.658813901 11.4703203,0.395007197 C10.5730381,0.131669066 9.62705161,0 8.63236087,0 C5.80329929,0 3.67670293,0.551510641 2.2530401,1.65406335 C0.828908953,2.75661606 0.0777394837,4.38162787 0,6.52863021 L3.92069252,6.52863021 C3.93989323,5.53338076 4.34544982,4.74758353 5.13548903,4.17217566 C5.92552824,3.59629921 6.91553588,3.3081267 8.10551195,3.3081267 C9.39289654,3.3081267 10.3683866,3.54194472 11.0315137,4.00958076 C11.6946409,4.4772168 12.0266728,5.11072775 12.0266728,5.90964503 C12.0266728,6.22171477 11.9873347,6.50848157 11.9091269,6.7718197 C11.8309191,7.03468925 11.6791867,7.27366158 11.4543978,7.48779953 C11.2296089,7.70193747 10.9214608,7.89217819 10.5304219,8.05758452 C10.1389146,8.22345943 9.63079809,8.37480857 9.00466743,8.51116337 C7.51825104,8.82276453 6.23273969,9.13905144 5.14719678,9.46096122 C4.06165387,9.78240242 3.1671815,10.1816268 2.46284304,10.6591029 C1.7589729,11.1365789 1.24008526,11.716204 0.908053367,12.397978 C0.575553166,13.0802205 0.409303065,13.9475495 0.409303065,14.9999649 C0.409303065,15.7984136 0.55588414,16.5490678 0.849514599,17.2505219 C1.14220844,17.9519759 1.59178618,18.5606525 2.1977795,19.0774887 C2.80377283,19.5933878 3.55119581,20.0029208 4.44051678,20.3046819 C5.32983774,20.606443 6.38025739,20.7582608 7.59224404,20.7582608 C8.76489264,20.7582608 9.81999539,20.606443 10.7580206,20.3042133 C11.6960458,20.0015151 12.5024759,19.572302 13.1768425,19.0161056 C13.8512091,18.4594407 14.3743115,17.786101 14.7456815,16.9956181 C15.1165831,16.2051351 15.3217029,15.3317147 15.361041,14.3753568 L11.4913943,14.3753568 Z" id="path20"></path>
                                </g>
                                <g id="g22" transform="translate(94.803909, 30.217910)">
                                    <polygon id="path24" points="5.85247186 0 5.85247186 16.0444145 0 16.0444145 0 19.4111128 15.8017208 19.4111128 15.8017208 16.0444145 9.91974545 16.0444145 9.91974545 0"></polygon>
                                </g>
                                <g id="g26" transform="translate(111.424330, 30.218050)">
                                    <path d="M3.95066437,16.073466 L3.95066437,10.9205667 L9.04213224,10.9205667 C10.1342315,10.9205667 10.90507,11.1632876 11.3537111,11.6482609 C11.8023522,12.1332341 12.0266728,12.7447221 12.0266728,13.4822563 C12.0266728,14.239002 11.8070353,14.86033 11.3682287,15.3457719 C10.9294221,15.8307451 10.2026048,16.073466 9.18871332,16.073466 L3.95066437,16.073466 Z M11.3246759,0 L11.3246759,5.00623593 C11.3246759,5.9433823 11.1097215,6.61156767 10.6807494,7.01219774 C10.251309,7.41189067 9.45190362,7.61197142 8.28159657,7.61197142 L3.95066437,7.61197142 L3.95066437,0 L0,0 L0,19.4406329 L9.86167499,19.4406329 C10.7584889,19.4406329 11.5733486,19.2991238 12.304849,19.0165742 C13.0363494,18.733556 13.66529,18.3441717 14.1921389,17.8470155 C14.7189878,17.350328 15.1236078,16.7557086 15.4064671,16.063626 C15.6888581,15.3715434 15.8307561,14.6260435 15.8307561,13.8275947 C15.8307561,12.7747108 15.5820834,11.8441244 15.084738,11.0353671 C14.5869243,10.2266098 13.8704098,9.65682481 12.9337895,9.32554356 C13.792202,9.05189682 14.4014735,8.63158667 14.7625406,8.06461312 C15.1236078,7.49717099 15.3039072,6.64671066 15.3039072,5.51323212 L15.3039072,0 L11.3246759,0 Z" id="path28"></path>
                                </g>
                                <g id="g30" transform="translate(128.191332, 30.217910)">
                                    <polygon id="path32" points="0 0 0 19.4111128 14.2797129 19.4111128 14.2797129 16.0444145 3.95019606 16.0444145 3.95019606 11.8867646 13.4606384 11.8867646 13.4606384 8.46149461 3.95019606 8.46149461 3.95019606 3.45479011 14.748023 3.45479011 14.748023 0"></polygon>
                                </g>
                                <g id="g34" transform="translate(143.027069, 30.217769)">
                                    <path d="M9.24678377,15.0782166 L9.21774854,15.0782166 L6.73008506,7.31958175 L11.6754402,7.31958175 L9.24678377,15.0782166 Z M14.0750613,0 L12.8457472,4.01098648 L5.67685555,4.01098648 L4.30096035,0 L-2.66060047e-14,0 L6.9347366,19.4406329 L11.6459366,19.4406329 L18.4930992,0 L14.0750613,0 Z" id="path36"></path>
                                </g>
                                <g id="g38" transform="translate(162.280891, 30.217910)">
                                    <polygon id="path40" points="15.0402486 0 15.0402486 13.3215357 11.4117816 0 7.3735432 0 3.77411144 13.2629641 3.77411144 0 0 0 0 19.4406329 5.96908108 19.4406329 9.48047053 5.18241945 12.99186 19.4406329 18.8443318 19.4406329 18.8443318 0"></polygon>
                                </g>
                                <g id="g42" transform="translate(182.470725, 30.217910)">
                                    <polygon id="path44" points="-2.66059875e-14 0 -2.66059875e-14 19.4406329 4.06727359 19.4406329 4.06727359 3.54288187 13.6943252 3.54288187 13.6943252 0"></polygon>
                                </g>
                                <polygon id="path46" points="196.984406 49.6586365 201.051679 49.6586365 201.051679 30.2180036 196.984406 30.2180036"></polygon>
                                <g id="g48" transform="translate(202.367818, 30.217910)">
                                    <polygon id="path50" points="12.0852115 0 3.77457975 13.0581976 3.77457975 0 0 0 0 19.4406329 4.30142866 19.4406329 12.0266728 6.93910032 12.0266728 19.4406329 15.8302878 19.4406329 15.8302878 0"></polygon>
                                </g>
                                <g id="g52" transform="translate(219.515275, 30.217910)">
                                    <polygon id="path54" points="0 0 0 19.4111128 14.2792446 19.4111128 14.2792446 16.0444145 3.95019606 16.0444145 3.95019606 11.8867646 13.4601701 11.8867646 13.4601701 8.46149461 3.95019606 8.46149461 3.95019606 3.45479011 14.7475547 3.45479011 14.7475547 0"></polygon>
                                </g>
                                <g id="g56" transform="translate(79.850673, 9.748431)">
                                    <path d="M8.89836103,11.1318932 C8.82249478,11.9031647 8.54244532,12.4771668 8.05821263,12.8553054 C7.57397994,13.2325068 6.84763091,13.4218104 5.87916553,13.4218104 C4.09303065,13.4218104 3.20043152,12.8098538 3.20043152,11.585472 C3.20043152,11.1468875 3.38541402,10.7804633 3.75631566,10.4857308 C4.12721729,10.1909982 4.72103455,9.94546589 5.53870406,9.74913373 C6.50716944,9.5223443 7.34684952,9.31054922 8.05821263,9.11421706 C8.76957574,8.91741632 9.42052684,8.69109547 10.0105976,8.43384879 C10.3430978,8.29796257 10.6573339,8.1278705 10.9528376,7.92404116 C11.247873,7.72021183 11.4974823,7.46671373 11.7016655,7.16448403 C11.9058488,6.86225432 12.0688207,6.4991101 12.190113,6.07645709 C12.310937,5.6533355 12.3718174,5.13884214 12.3718174,4.5348513 C12.3718174,3.80903144 12.2205532,3.1666176 11.9184931,2.60760978 C11.6159648,2.0481334 11.2080667,1.57581163 10.6947987,1.19064447 C10.1810625,0.805008735 9.57694242,0.5102762 8.88197017,0.305978291 C8.18699792,0.102148955 7.45456086,0 6.68419067,0 C4.49390413,0 2.84732567,0.427338746 1.74492359,1.28154767 C0.642053206,2.13481944 0.0599436983,3.39293845 0,5.05590469 L3.03605466,5.05590469 C3.05104058,4.28557037 3.36480838,3.6768938 3.97642142,3.2312807 C4.58803447,2.78519902 5.35512648,2.56215819 6.27629254,2.56215819 C7.27332483,2.56215819 8.02870909,2.74349601 8.54244532,3.10523451 C9.05571323,3.46744158 9.3128155,3.95756914 9.3128155,4.57655432 C9.3128155,4.81786951 9.28237534,5.04044177 9.22149503,5.24427111 C9.16108302,5.44763187 9.04400548,5.63271828 8.86979411,5.79859319 C8.69558273,5.9644681 8.45721287,6.11160008 8.15421621,6.23998913 C7.85121955,6.36837818 7.45737072,6.48552148 6.97266972,6.59095045 C5.8220317,6.83226564 4.82640433,7.07732941 3.98578763,7.32661035 C3.14517092,7.57542271 2.45254022,7.88468101 1.9069589,8.25438526 C1.3618459,8.62362093 0.960504103,9.07251404 0.702933525,9.60059603 C0.445831256,10.1291466 0.317045967,10.800612 0.317045967,11.6154607 C0.317045967,12.2344459 0.430377021,12.8150081 0.657507441,13.358553 C0.88463786,13.9016293 1.2325923,14.3730139 1.70183906,14.7731754 C2.17108582,15.1723998 2.74991716,15.4896238 3.43833307,15.7234419 C4.12721729,15.9572599 4.94067201,16.0744032 5.87916553,16.0744032 C6.78675059,16.0744032 7.60395179,15.9572599 8.33076913,15.7229733 C9.05711816,15.4882181 9.68137559,15.1559997 10.2035414,14.725381 C10.7257072,14.2947622 11.1307955,13.7732403 11.4183379,13.1612837 C11.7058803,12.5488585 11.8641692,11.8722388 11.8946093,11.1318932 L8.89836103,11.1318932 Z" id="path58"></path>
                                </g>
                                <g id="g60" transform="translate(104.208748, 10.270140)">
                                    <polygon id="path62" points="0 0 0 15.0308907 11.0572708 15.0308907 11.0572708 12.424218 3.05900185 12.424218 3.05900185 9.20465168 10.4231789 9.20465168 10.4231789 6.55205887 3.05900185 6.55205887 3.05900185 2.67508432 11.4202111 2.67508432 11.4202111 0"></polygon>
                                </g>
                                <g id="g64" transform="translate(127.479172, 10.270374)">
                                    <path d="M3.05900185,12.446241 L3.05900185,8.45587173 L7.00170495,8.45587173 C7.84794138,8.45587173 8.44410019,8.64423815 8.79158631,9.02003385 C9.13907244,9.39536097 9.3128155,9.86908846 9.3128155,10.4402792 C9.3128155,11.0259957 9.14281892,11.5067517 8.80329407,11.883016 C8.4633009,12.2583431 7.90039211,12.446241 7.115036,12.446241 L3.05900185,12.446241 Z M8.76910743,0 L8.76910743,3.87650597 C8.76910743,4.60232584 8.60285733,5.11963064 8.27082543,5.42935752 C7.93832523,5.73955297 7.31921922,5.89465069 6.41257079,5.89465069 L3.05900185,5.89465069 L3.05900185,0 L0,0 L0,15.0533822 L7.63579688,15.0533822 C8.33076913,15.0533822 8.9615829,14.9442046 9.52776986,14.7249124 C10.0944251,14.5060887 10.5814677,14.2043276 10.9898341,13.8200976 C11.3977323,13.4349304 11.7110317,12.9747915 11.9297326,12.4387438 C12.1489017,11.9031647 12.2589546,11.3254139 12.2589546,10.7068973 C12.2589546,9.89204855 12.0655425,9.17138299 11.6805916,8.54536921 C11.2956406,7.91888686 10.7402248,7.47749092 10.0152807,7.22118138 C10.6798128,7.00891773 11.1518694,6.68372794 11.4314506,6.24467486 C11.7110317,5.80562178 11.8505882,5.14680788 11.8505882,4.26917031 L11.8505882,0 L8.76910743,0 Z" id="path66"></path>
                                </g>
                                <g id="g68" transform="translate(150.636968, 10.270140)">
                                    <polygon id="path70" points="5.09802422 0 2.42418205e-14 15.0538508 3.35310062 15.0538508 6.63876459 4.48893113 9.90194966 15.0538508 13.1651347 15.0538508 8.06664221 0"></polygon>
                                </g>
                                <g id="g72" transform="translate(175.742888, 10.270140)">
                                    <polygon id="path74" points="0 0 0 15.0308907 11.0572708 15.0308907 11.0572708 12.424218 3.05853354 12.424218 3.05853354 9.20465168 10.4227105 9.20465168 10.4227105 6.55205887 3.05853354 6.55205887 3.05853354 2.67508432 11.4197428 2.67508432 11.4197428 0"></polygon>
                                </g>
                                <g id="g76" transform="translate(199.013547, 10.270374)">
                                    <path d="M3.05853354,12.446241 L3.05853354,8.45587173 L7.00123664,8.45587173 C7.84747307,8.45587173 8.44363188,8.64423815 8.791118,9.02003385 C9.13860413,9.39536097 9.31234719,9.86908846 9.31234719,10.4402792 C9.31234719,11.0259957 9.14235061,11.5067517 8.80282576,11.883016 C8.46283259,12.2583431 7.8999238,12.446241 7.11456769,12.446241 L3.05853354,12.446241 Z M8.76863912,0 L8.76863912,3.87650597 C8.76863912,4.60232584 8.60238902,5.11963064 8.27035712,5.42935752 C7.93785692,5.73955297 7.31875091,5.89465069 6.41210248,5.89465069 L3.05853354,5.89465069 L3.05853354,0 L0,0 L0,15.0533822 L7.63532857,15.0533822 C8.33030082,15.0533822 8.96111459,14.9442046 9.52730155,14.7249124 C10.0939568,14.5060887 10.5809994,14.2043276 10.9893658,13.8200976 C11.3972639,13.4349304 11.7105634,12.9747915 11.9292643,12.4387438 C12.1484334,11.9031647 12.2584863,11.3254139 12.2584863,10.7068973 C12.2584863,9.89204855 12.0650742,9.17138299 11.6801233,8.54536921 C11.2951723,7.91888686 10.7397565,7.47749092 10.0148124,7.22118138 C10.6793445,7.00891773 11.1514011,6.68372794 11.4309823,6.24467486 C11.7105634,5.80562178 11.8501199,5.14680788 11.8501199,4.26917031 L11.8501199,0 L8.76863912,0 Z" id="path78"></path>
                                </g>
                                <g id="g80" transform="translate(222.940683, 9.748431)">
                                    <path d="M8.89882934,11.1318932 C8.82296309,11.9031647 8.54291363,12.4771668 8.05868094,12.8553054 C7.57444825,13.2325068 6.84763091,13.4218104 5.87963384,13.4218104 C4.09303065,13.4218104 3.20043152,12.8098538 3.20043152,11.585472 C3.20043152,11.1468875 3.38588233,10.7804633 3.75678397,10.4857308 C4.1276856,10.1909982 4.72150286,9.94546589 5.53870406,9.74913373 C6.50716944,9.5223443 7.34731783,9.31054922 8.05868094,9.11421706 C8.77004405,8.91741632 9.42052684,8.69109547 10.0105976,8.43384879 C10.3435661,8.29796257 10.6578022,8.1278705 10.9528376,7.92404116 C11.2483413,7.72021183 11.4979506,7.46671373 11.7016655,7.16448403 C11.9063171,6.86225432 12.069289,6.4991101 12.190113,6.07645709 C12.3114053,5.6533355 12.3718174,5.13884214 12.3718174,4.5348513 C12.3718174,3.80903144 12.2210215,3.1666176 11.9184931,2.60760978 C11.6164331,2.0481334 11.208535,1.57581163 10.695267,1.19064447 C10.1810625,0.805008735 9.57694242,0.5102762 8.88243848,0.305978291 C8.18699792,0.102148955 7.45502917,0 6.68419067,0 C4.49437244,0 2.84732567,0.427338746 1.74492359,1.28154767 C0.642053206,2.13481944 0.0604120084,3.39293845 0,5.05590469 L3.03605466,5.05590469 C3.05150889,4.28557037 3.36527669,3.6768938 3.97642142,3.2312807 C4.58850278,2.78519902 5.35512648,2.56215819 6.27629254,2.56215819 C7.27332483,2.56215819 8.0291774,2.74349601 8.54244532,3.10523451 C9.05571323,3.46744158 9.3128155,3.95756914 9.3128155,4.57655432 C9.3128155,4.81786951 9.28237534,5.04044177 9.22149503,5.24427111 C9.16155133,5.44763187 9.04447379,5.63271828 8.86979411,5.79859319 C8.69558273,5.9644681 8.45721287,6.11160008 8.15421621,6.23998913 C7.85168786,6.36837818 7.45783903,6.48552148 6.97313803,6.59095045 C5.8220317,6.83226564 4.82640433,7.07732941 3.98625594,7.32661035 C3.14563923,7.57542271 2.45254022,7.88468101 1.90742721,8.25438526 C1.3618459,8.62362093 0.960972413,9.07251404 0.703401835,9.60059603 C0.445831256,10.1291466 0.317514277,10.800612 0.317514277,11.6154607 C0.317514277,12.2344459 0.430845332,12.8150081 0.657975751,13.358553 C0.88510617,13.9016293 1.23306061,14.3730139 1.70230737,14.7731754 C2.17108582,15.1723998 2.74991716,15.4896238 3.43880138,15.7234419 C4.1276856,15.9572599 4.94114032,16.0744032 5.87963384,16.0744032 C6.7872189,16.0744032 7.60395179,15.9572599 8.33076913,15.7229733 C9.05758648,15.4882181 9.68137559,15.1559997 10.2035414,14.725381 C10.7257072,14.2947622 11.1312638,13.7732403 11.4183379,13.1612837 C11.7058803,12.5488585 11.8646375,11.8722388 11.8946093,11.1318932 L8.89882934,11.1318932 Z" id="path82"></path>
                                </g>
                                <g id="g84" transform="translate(25.238404, 0.000000)">
                                    <polygon id="path86" points="12.1727855 0 36.2856065 10.4304391 0 12.1810286"></polygon>
                                </g>
                                <g id="g88" transform="translate(25.238592, 10.430486)">
                                    <polygon id="path90" points="0 1.75058943 36.2851382 2.08088296e-16 24.1081378 12.1843086"></polygon>
                                </g>
                                <g id="g92" transform="translate(59.774919, 10.430299)">
                                    <polygon id="path94" points="0.78722935 19.9354462 1.74913838 0 12.1741905 24.1254277 4.15942963e-16 36.3064562"></polygon>
                                </g>
                                <g id="g96" transform="translate(49.346261, 10.430486)">
                                    <polygon id="path98" points="1.86293775 16.4909647 -2.07971481e-16 12.1843086 12.1774686 0 11.2160279 19.9354462 10.4287986 36.3064562"></polygon>
                                </g>
                                <g id="g100" transform="translate(30.032683, 26.921451)">
                                    <polygon id="path102" points="29.7423772 19.8154915 0 8.86962185 21.1765164 0"></polygon>
                                </g>
                                <g id="g104" transform="translate(12.194468, 13.273460)">
                                    <polygon id="path106" points="29.7381624 10.9482125 8.56211434 19.8164286 0 0"></polygon>
                                </g>
                                <g id="g108" transform="translate(-0.000000, 13.268072)">
                                    <polygon id="path110" points="0.016390855 12.1922743 6.49910879e-17 12.1843086 0.009834513 12.1749371 12.1774686 0 12.1943278 0.00515430506 12.6129971 0.977912241 10.4381648 36.2975533"></polygon>
                                </g>
                                <g id="g112" transform="translate(10.438118, 14.246171)">
                                    <polygon id="path114" points="2.1748323 0 10.3182774 18.8436707 12.1746588 23.138144 0 35.3196411"></polygon>
                                </g>
                                <g id="g116" transform="translate(10.437884, 37.384268)">
                                    <polygon id="path118" points="12.1746588 0 36.2856065 10.4313763 0 12.1814971"></polygon>
                                </g>
                                <g id="g120" transform="translate(10.438118, 47.815691)">
                                    <polygon id="path122" points="0 1.75012085 36.2851382 -2.08088296e-16 24.1081378 12.1843086"></polygon>
                                </g>
                            </g>
                        </g>
                    </g>
                </g>
            </g>
        </g>
    </g>
</svg>