<svg height="62" viewBox="0 0 61 62" width="61" xmlns="http://www.w3.org/2000/svg"><g fill="none" fill-rule="evenodd" transform="translate(1 1)"><path d="m24.0789474 57.6283967c9.9489824 4.8403326 21.8933639 2.0938681 28.7813665-6.6179233 6.8880025-8.7117914 6.8880025-21.0723133 0-29.7841047-6.8880026-8.7117914-18.8323841-11.45825589-28.7813665-6.6179233" fill="#eef6ff" fill-rule="nonzero"/><path d="m34.3660287 56.9065118c-3.5624458.0049205-7.0796395-.7998566-10.2870813-2.3538105v3.0934423c7.3331647 3.5436237 15.9685109 3.0610336 22.8632471-1.2777226s11.0811592-11.9247171 11.0841213-20.0848578c0-.5201726-.0226316-1.0348595-.0555502-1.5467211-.811763 12.4697332-11.1380455 22.1682218-23.6047369 22.1696697z" fill="#2c4b75" fill-rule="nonzero" opacity=".2"/><path d="m57.9707657 37.8947368c.0329186-.5118609.0555501-1.0265473.0555501-1.5467193-.0029518-8.1601485-4.1893755-15.7461194-11.0841176-20.0848742-6.894742-4.3387547-15.5300939-4.8213293-22.8632508-1.2776809v3.0934387c7.0858336-3.4244471 15.4061003-3.0957196 22.2010531.8771469s11.1762893 11.0705001 11.6907652 18.9386888z" fill="#fff" fill-rule="nonzero" opacity=".75"/><path d="m23.6842105 53.0744446c8.227809 5.1449436 18.9588987 3.4853089 25.2680994-3.9078803 6.3092008-7.3931892 6.3092008-18.3083605 0-25.7015497-6.3092007-7.3931891-17.0402904-9.0528238-25.2680994-3.9078803" fill="#d4edff" fill-rule="nonzero"/><circle cx="33.947368" cy="36.31579" r="1.973684" stroke="#28387c" stroke-linecap="round" stroke-linejoin="round" stroke-width="2"/><path d="m42.236842 28.026316-11.842105 11.842105" stroke="#28387c" stroke-linecap="round" stroke-linejoin="round" stroke-width="2"/><path d="m31.7057657 16.7290417c-.4092724.048548-.8134966.1129009-1.2146793.1863312-.1934483.0358521-.3895759.0640306-.5809448.1056639-.4817587.1033244-.9547345.2296179-1.4226621.367713-.3153828.0941222-.6252104.2009923-.9338379.3103995-.1696552.0596149-.3381759.121597-.5055621.1859465-1.1703994.4496912-2.2958165 1.0097414-3.3611897 1.6726552l-.0026793.0015908v3.1083413c5.8210567-3.6341954 13.1064594-3.9534455 19.220091-.8422344s10.170076 9.2022976 10.7015676 16.0692881c.0402207-.516154.0783414-1.0331295.0783414-1.5596919 0-10.9109914-8.7999204-19.7560975-19.6551724-19.7560975-.5970517 0-1.1849483.0373806-1.7684172.0897342-.1858655.0169487-.3705518.0381605-.5548552.0603601z" fill="#2c4b75" fill-rule="nonzero" opacity=".2"/><path d="m23.6842105 46.1498668v4.376449l26.0526316-26.0690856v-.0000619c-.2999422-.4060304-.6132654-.8007104-.9399696-1.1840399-.0571322-.0661118-.1180993-.1286235-.176118-.1939307-.2924545-.3338187-.5904448-.6626654-.9071253-.9739345z" fill="#fff" fill-rule="nonzero" opacity=".5"/><path d="m31.7028092 16.7276889c-.4091215.0481105-.8131967.1118833-1.2142316.1846518-.193377.035529-.3894323.0634535-.5807307.1047116-.4815811.1023931-.9543826.2275483-1.4221377.3643988-.3152666.0932739-.6249799.1991807-.9334938.3076018-.1695926.0590776-.3380512.1205011-.5053757.1842706-1.169968.4456382-2.2949704 1.0006406-3.3599509 1.6575796l-.0026783.0015765v22.3096257l21.7105263-21.6332767c-.3519357-.2496199-.715805-.4832683-1.084214-.7100541-.0985912-.0605683-.1972342-.1208789-.2969629-.179747-.3495263-.2068471-.704885-.4050902-1.0678649-.5906797-.1235855-.0628558-.2505111-.1198691-.3756064-.1802519-.6164799-.2973759-1.248199-.5623049-1.8925504-.7936935-.2045557-.0734589-.4044475-.1563461-.6120434-.2232-.2580807-.0837115-.5238034-.1498132-.7864341-.2229526-.3155147-.0871635-.6316085-.1725752-.9532451-.2442102-.2411008-.0542106-.4847351-.1011979-.7291863-.1464128-.3779434-.0692444-.759651-.1272916-1.1451227-.1741415-.2037179-.0253484-.4061537-.0542724-.6118468-.0732734-.5982277-.0546639-1.2018741-.0912645-1.8144344-.0912645-.5968317 0-1.1845116.0370437-1.7677655.0889255-.185797.0167959-.3704152.0378165-.5546507.059816z" fill="#fff" fill-rule="nonzero" opacity=".5"/><g stroke="#28387c" stroke-linecap="round" stroke-linejoin="round" stroke-width="2"><path d="m24.0789474 57.6283967c9.9489824 4.8403326 21.8933639 2.0938681 28.7813665-6.6179233 6.8880025-8.7117914 6.8880025-21.0723133 0-29.7841047-6.8880026-8.7117914-18.8323841-11.45825589-28.7813665-6.6179233"/><path d="m23.6842105 53.0744446c8.227809 5.1449436 18.9588987 3.4853089 25.2680994-3.9078803 6.3092008-7.3931892 6.3092008-18.3083605 0-25.7015497-6.3092007-7.3931891-17.0402904-9.0528238-25.2680994-3.9078803"/><circle cx="34.144737" cy="6.118421" r="6.118421"/><path d="m33.1578947 12.2368421v-5.13157894h1.9736842v5.13157894"/><path d="m54.6119511 13.1081836h1.4629379v5.8517619h-1.4629379z" transform="matrix(.70710678 -.70710678 .70710678 .70710678 4.871916 43.829976)"/><path d="m54.868421 16.578947-3.552631 3.552632"/><path d="m18.552632 19.539474h1.18421" opacity=".5"/><path d="m13.421053 27.828947h6.315789" opacity=".5"/><path d="m16.578947 23.881579h3.157895" opacity=".5"/><path d="m9.473684 52.697368h10.263158" opacity=".5"/><path d="m10.263158 32.171053h9.473684" opacity=".5"/><path d="m0 44.407895h19.736842" opacity=".5"/><path d="m5.131579 48.75h14.605263" opacity=".5"/><path d="m3.157895 40.460526h16.578947" opacity=".5"/><path d="m6.315789 36.118421h13.421053" opacity=".5"/></g></g></svg>