<svg height="58" viewBox="0 0 53 58" width="53" xmlns="http://www.w3.org/2000/svg"><g fill="none"><path d="m26.057971 50.4347826c-.2229534 0-.4367918-.1074451-.5944436-.2988795-.1576519-.1914344-.2461941-.4510954-.2461361-.7218245v-12.2484471c0-.5637192.3763404-1.020704.8405797-1.020704.4642394 0 .8405797.4569848.8405797 1.020704v12.2484471c.000058.2707291-.0884842.5303901-.2461361.7218245-.1576518.1914344-.3714902.2988795-.5944436.2988795z" fill="#28387c"/><path d="m21.7088847 53.7971014h-20.72211721c-.54497664 0-.98676749-.3763403-.98676749-.8405797 0-.4642393.44179085-.8405797.98676749-.8405797h20.72211721c.5449766 0 .9867675.3763404.9867675.8405797 0 .4642394-.4417909.8405797-.9867675.8405797z" fill="#28387c"/><path d="m51.1291745 53.7971014h-20.7221172c-.5449766 0-.9867674-.3763403-.9867674-.8405797 0-.4642393.4417908-.8405797.9867674-.8405797h20.7221172c.5449767 0 .9867675.3763404.9867675.8405797 0 .4642394-.4417908.8405797-.9867675.8405797z" fill="#28387c"/><rect fill="#eef6ff" height="17.652174" rx="4" width="49.594203" x=".84058" y=".84058"/><path d="m46.4672464.84057971h-41.65913046c-2.19120975 0-3.96753623 1.72041305-3.96753623 3.8426501v2.88198758c0-2.12223705 1.77632648-3.8426501 3.96753623-3.8426501h41.65913046c2.1912097 0 3.9675362 1.72041305 3.9675362 3.8426501v-2.88198758c0-2.12223705-1.7763265-3.8426501-3.9675362-3.8426501z" fill="#fff" opacity=".75"/><path d="m46.4672464 15.610766h-41.65913046c-2.19120975 0-3.96753623-1.720413-3.96753623-3.8426501v2.8819876c0 2.1222371 1.77632648 3.8426501 3.96753623 3.8426501h41.65913046c2.1912097 0 3.9675362-1.720413 3.9675362-3.8426501v-2.8819876c0 2.1222371-1.7763265 3.8426501-3.9675362 3.8426501z" fill="#2c4b75" opacity=".2"/><g fill="#28387c"><path d="m47.1047938 20.173913h-42.09364553c-2.76623226-.0032738-5.00789539-2.2593993-5.01114827-5.0434782v-10.08695654c.00325288-2.78407892 2.24491601-5.0402044 5.01114827-5.04347826h42.09364553c2.7662322.00327386 5.0078954 2.25939934 5.0111482 5.04347826v10.08695654c-.0032528 2.7840789-2.244916 5.0402044-5.0111482 5.0434782zm-42.09364553-18.1565217c-1.65979743.00182344-3.00487722 1.35558116-3.00668896 3.02608696v10.08695654c.00181174 1.6705058 1.34689153 3.0242635 3.00668896 3.0260869h42.09364553c1.6597974-.0018234 3.0048772-1.3555811 3.0066889-3.0260869v-10.08695654c-.0018117-1.6705058-1.3468915-3.02426352-3.0066889-3.02608696z"/><path d="m45.391442 10.9275362c-.2224816-.0032906-.4355489-.0903324-.5967138-.2437681-.0741926-.0817642-.1338813-.1755988-.1764928-.2774585-.0472914-.0996541-.070331-.2090873-.0672354-.3193531 0-.46423933.3762787-.84057969.840442-.84057969.4641634 0 .8404421.37634036.8404421.84057969-.0013522.1098163-.0242176.2183021-.0673026.3193194-.0426115.1018598-.1023002.1956944-.1764929.2774586-.1612285.1532997-.3742152.2403304-.5966466.2438017z"/><path d="m41.1884058 10.9275362c-.2225181-.0032906-.4356203-.0903324-.5968116-.2437681-.1550867-.160118-.2424077-.373904-.2437681-.5968116 0-.46423933.3763403-.84057969.8405797-.84057969s.8405797.37634036.8405797.84057969c-.0012697.0563271-.0070348.1124628-.0172403.1678722-.0088169.0527564-.025706.1038404-.0500733.1514556-.0184844.0535523-.0438708.1044665-.0755177.1514557-.0336232.0418609-.0673136.0837301-.1009704.1260029-.1612647.1533045-.3742997.2403326-.596778.2437933z"/><path d="m36.9831504 10.9275362c-.2222292-.0015974-.4353276-.0889028-.5951144-.2438291-.3241446-.3315165-.3241446-.86227256 0-1.193789.1977754-.19712231.4805628-.2822729.7538759-.22700084.0555966.00774322.1095315.02466645.1596164.05008311.0514968.01686149.0996866.04255738.1424251.07594439.0499309.03362976.0924942.06732677.1342444.10099015.2417144.2405285.3143524.60382199.1837952.91923799s-.4383648.5202739-.7788426.5183633z"/><path d="m6.72463768 14.2898551c-.22295336 0-.43679179-.1106053-.59444363-.3076701s-.24619404-.4643629-.24613608-.7430546v-6.3043478c0-.58029919.37634037-1.05072463.84057971-1.05072463s.84057971.47042544.84057971 1.05072463v6.3043478c.00005796.2786917-.08848423.5459898-.24613608.7430546-.15765184.1970648-.37149026.3076701-.59444363.3076701z"/></g><rect fill="#eef6ff" height="17.652174" rx="4" width="49.594203" x=".84058" y="19.333333"/><path d="m46.4672464 19.3333333h-41.65913046c-2.19120975 0-3.96753623 1.7204131-3.96753623 3.8426501v2.8819876c0-2.122237 1.77632648-3.8426501 3.96753623-3.8426501h41.65913046c2.1912097 0 3.9675362 1.7204131 3.9675362 3.8426501v-2.8819876c0-2.122237-1.7763265-3.8426501-3.9675362-3.8426501z" fill="#fff" opacity=".75"/><path d="m46.4672464 34.1035197h-41.65913046c-2.19120975 0-3.96753623-1.7204131-3.96753623-3.8426501v2.8819875c0 2.1222371 1.77632648 3.8426501 3.96753623 3.8426501h41.65913046c2.1912097 0 3.9675362-1.720413 3.9675362-3.8426501v-2.8819875c0 2.122237-1.7763265 3.8426501-3.9675362 3.8426501z" fill="#2c4b75" opacity=".2"/><path d="m47.1047938 37.826087h-42.09364553c-2.76623226-.0032739-5.00789539-2.2593994-5.01114827-5.0434783v-10.0869565c.00325288-2.7840789 2.24491601-5.0402044 5.01114827-5.0434783h42.09364553c2.7662322.0032739 5.0078954 2.2593994 5.0111482 5.0434783v10.0869565c-.0032528 2.7840789-2.244916 5.0402044-5.0111482 5.0434783zm-42.09364553-18.1565218c-1.65979743.0018234-3.00487722 1.3555812-3.00668896 3.026087v10.0869565c.00181174 1.6705058 1.34689153 3.0242635 3.00668896 3.026087h42.09364553c1.6597974-.0018235 3.0048772-1.3555812 3.0066889-3.026087v-10.0869565c-.0018117-1.6705058-1.3468915-3.0242636-3.0066889-3.026087z" fill="#28387c"/><path d="m45.391442 28.5797101c-.2224816-.0032906-.4355489-.0903324-.5967138-.2437681-.0741926-.0817642-.1338813-.1755988-.1764928-.2774585-.0472914-.099654-.070331-.2090873-.0672354-.3193531 0-.4642393.3762787-.8405797.840442-.8405797.4641634 0 .8404421.3763404.8404421.8405797-.0013522.1098163-.0242176.2183021-.0673026.3193195-.0426115.1018597-.1023002.1956943-.1764929.2774585-.1612285.1532997-.3742152.2403304-.5966466.2438017z" fill="#28387c"/><path d="m41.1918018 28.5797101c-.340591.0013643-.6483451-.2029292-.7793177-.5173337-.1309727-.3144046-.0592731-.6767685.1815631-.9176046.2408361-.2408361.6031999-.3125358.9176045-.1815631s.518698.4387268.5173338.7793178c-.0012714.056099-.0070131.1120075-.0171773.1671925-.0087813.0525429-.025602.10342-.0498707.1508426-.0167222.0513822-.0421643.0995024-.0752119.142253-.0334871.0502809-.0670412.0919723-.1005617.1340823-.1606119.1526838-.3727845.2393597-.5943621.2428132z" fill="#28387c"/><path d="m36.983149 28.5797101c-.3388926-.0013564-.6439143-.2067198-.7738686-.5210401-.1299543-.3143202-.0594795-.676255.1788012-.9182622.1999141-.1936787.4807368-.2783394.7538163-.2272561.0555923.0077519.1095229.0246942.1596038.0501394.0514928.0168805.0996787.0426052.1424139.0760298.049927.0336676.0924869.0674025.1342338.1011037.2417438.2407923.314407.604526.1838539.9203265-.1305531.3158004-.4383738.5208992-.7788543.518959z" fill="#28387c"/><path d="m6.72463768 31.942029c-.22295336 0-.43679179-.1106053-.59444363-.3076701s-.24619404-.4643629-.24613608-.7430546v-6.3043478c0-.5802992.37634037-1.0507246.84057971-1.0507246s.84057971.4704254.84057971 1.0507246v6.3043478c.00005796.2786917-.08848423.5459898-.24613608.7430546-.15765184.1970648-.37149026.3076701-.59444363.3076701z" fill="#28387c"/><circle cx="26.057971" cy="52.956522" fill="#27aafe" r="4.202899"/><path d="m26.057971 51.968757c1.7109839.0010834 3.2502158 1.0568916 3.8909463 2.6689242.7167987-1.7843683.1684691-3.8354587-1.3383055-5.0060869s-3.598507-1.1706282-5.1052816 0-2.0551042 3.2217186-1.3383055 5.0060869c.6407305-1.6120326 2.1799624-2.6678408 3.8909463-2.6689242z" fill="#5cbfff" opacity=".5"/><path d="m26.057971 58c-2.7854361 0-5.0434782-2.2580421-5.0434782-5.0434783 0-2.7854361 2.2580421-5.0434782 5.0434782-5.0434782s5.0434783 2.2580421 5.0434783 5.0434782c-.0032739 2.784079-2.2593994 5.0402044-5.0434783 5.0434783zm0-8.0695652c-1.6712617 0-3.0260869 1.3548253-3.0260869 3.0260869 0 1.6712617 1.3548252 3.026087 3.0260869 3.026087s3.026087-1.3548253 3.026087-3.026087c-.0018235-1.6705058-1.3555812-3.0242635-3.026087-3.0260869z" fill="#28387c"/></g></svg>