<svg height="64" viewBox="0 0 66 64" width="66" xmlns="http://www.w3.org/2000/svg"><g fill="none" fill-rule="evenodd" transform="translate(1 1)"><circle cx="28.179105" cy="28.179105" fill="#fff" fill-rule="nonzero" r="28.179105"/><path d="m28.1791045 53.0059138c-14.9051546-.0008852-27.23115181-11.5097312-28.1241327-26.2596451-.03316117.5549836-.0549718 1.1129619-.0549718 1.6761475 0 15.4285123 12.6162148 27.9357928 28.1791045 27.9357928 15.5628896 0 28.1791045-12.5072805 28.1791045-27.9357928 0-.5631856-.0218107-1.1211863-.0549718-1.6761475-.8930685 14.7498733-13.2190138 26.2586709-28.1241327 26.2596451z" fill="#2c4b75" fill-rule="nonzero" opacity=".2"/><circle cx="50.149254" cy="47.283582" fill="#27aafe" fill-rule="nonzero" r="13.850746"/><path d="m50.1492537 57.6716078c-6.9766115-.0028344-12.8610333-5.0688511-13.7304984-11.8208615-.7070538 5.2073909 1.7445194 10.3424499 6.2856726 13.165954s10.3484985 2.8235041 14.8896517 0 6.9927264-7.9585631 6.2856725-13.165954c-.8694408 6.7520229-6.7538771 11.8180521-13.7304984 11.8208615z" fill="#0a77be" fill-rule="nonzero" opacity=".2"/><path d="m50.1492537 36.8955564c6.9766213.0028094 12.8610576 5.0688386 13.7304984 11.8208615.7070539-5.2073909-1.7445193-10.3424499-6.2856725-13.165954s-10.3484985-2.8235041-14.8896517 0-6.9927264 7.9585631-6.2856726 13.165954c.8694651-6.7520104 6.7538869-11.8180271 13.7304984-11.8208615z" fill="#5cbfff" fill-rule="nonzero" opacity=".5"/><g stroke-linecap="round" stroke-linejoin="round" stroke-width="2"><circle cx="50.149254" cy="47.283582" r="13.850746" stroke="#28387c"/><path d="m58.2686567 49.6716418h-6.6865671l3.3432835-7.6417911" stroke="#fff"/><path d="m48.7164179 53.4925373h-5.7313433v-1.0914522c0-.6384001.3165752-1.2421871.8604007-1.6409924l4.0105419-2.9410388c.5438318-.39881.8604007-1.0026061.8604007-1.6410135v-1.0914732c0-1.1606223-1.0264039-2.1014926-2.2925373-2.1014926h-1.1462687c-1.2661334 0-2.2925373.9408703-2.2925373 2.1014926" stroke="#fff"/><path d="m56.835821 47.761194v5.731343" stroke="#fff"/><path d="m28.179105 10.507463v-.955224" opacity=".5" stroke="#6d6daa"/><path d="m28.179105 45.850746v.955224" opacity=".5" stroke="#6d6daa"/><path d="m45.850746 28.179105h.955224" opacity=".5" stroke="#6d6daa"/><path d="m10.507463 28.179105h-.955224" opacity=".5" stroke="#6d6daa"/><path d="m28.179105 15.283582v10.507463" stroke="#28387c"/><path d="m25.791045 28.179105h-10.507463" stroke="#28387c"/><circle cx="28.179105" cy="28.179105" fill="#9eb2cc" fill-rule="nonzero" r="2.38806" stroke="#28387c"/><path d="m61.1343284 24.8358209-4.7761194 4.7761194-4.7761194-4.7761194" stroke="#28387c"/><path d="m33.1783893 55.9097559c-11.7696703 2.1216243-23.59660282-3.4168675-29.50245307-13.8158475s-4.6040219-23.3930183 3.24742954-32.41381523c7.85145143-9.02079697 20.54207813-12.10316152 31.65695063-7.68900269 11.1148726 4.41415883 18.2326031 15.36321142 17.7552812 27.31256902" stroke="#28387c"/></g></g></svg>