<svg height="10" viewBox="0 0 21 10" width="21" xmlns="http://www.w3.org/2000/svg"><path d="m11.2254573 2.41315204c.4414321.57511299.9324068 1.22420387 1.4389161 1.79595805.8601083-.7966268 2.0332163-2.11181256 3.6446075-1.41086998.9142692.39772561 1.7057319 1.80171002 1.1553481 3.08095647-.4646919 1.08019471-1.9001232 1.76589666-3.3505433 1.11688975-.8221538-.3680001-1.4194769-1.12402723-2.0026091-1.88706589-1.7108121-2.23894369-3.46663231-5.39618723-7.58676397-5.08360757-2.53615678.19241808-4.75049715 2.28357393-4.50589149 5.50723803.19040279 2.5097481 2.32652477 4.4673491 4.89097956 4.4673491 1.98065086 0 3.14540372-1.1691613 4.41134087-2.40873176-.4697302-.63431209-1.00415955-1.20388304-1.48442802-1.82757289-.99244569.74376746-1.43509544 1.79595805-3.04241408 1.61752104-.80128716-.08900858-1.45550023-.66693458-1.73302227-1.27093338-.81883697-1.78193501.77500443-4.04250106 3.04241407-3.19649969.91674641.34205326 1.54971498 1.21282589 2.15665274 1.9641087.60752555.75199656 1.26480355 1.50021445 1.84856549 2.23365356 1.212574 1.52347424 2.6084133 2.88845442 5.31461 2.88845442 2.8574274 0 4.8597846-2.03762475 5.0450652-4.5829343.1516085-2.08317867-.8841239-3.66102371-1.9641087-4.46739108-.5919491-.44197799-1.388282-.83273406-2.3877392-.92430374-2.5278437-.23146429-3.7174518 1.16504676-4.8909795 2.38778116z" fill="#3c4955"/></svg>