<svg height="64" viewBox="0 0 64 64" width="64" xmlns="http://www.w3.org/2000/svg"><g fill="none"><rect fill="#eff2f6" height="10.666667" rx="2" width="15.058824" x="43.607843" y="26.666667"/><path d="m53.3333333 26.6666667c.5658004 0 1.108432.2247388 1.5085132.6248201.4000813.4000813.6248371.9427128.6248202 1.5085132v6.4c.0000169.5658004-.2247389 1.1084319-.6248202 1.5085132-.4000812.4000813-.9427128.6248201-1.5085132.6248201h3.2c.5658004 0 1.108432-.2247388 1.5085132-.6248201.4000813-.4000813.6248202-.9427128.6248202-1.5085132v-6.4c0-.5658004-.2247389-1.1084319-.6248202-1.5085132-.4000812-.4000813-.9427128-.6248201-1.5085132-.6248201z" fill="#d5dbe3"/><path d="m56.5154062 34.1333333h-10.7563026c-.570555.000017-1.1177464-.2247388-1.5211898-.6248201-.4034433-.4000813-.6300707-.9427128-.6300707-1.5085132v3.2c0 .5658004.2266274 1.1084319.6300707 1.5085132.4034434.4000813.9506348.6248201 1.5211898.6248201h10.7563026c.570555 0 1.1177464-.2247388 1.5211898-.6248201.4034433-.4000813.6300707-.9427128.6300707-1.5085132v-3.2c0 .5658004-.2266274 1.1084319-.6300707 1.5085132-.4034434.4000813-.9506348.6248371-1.5211898.6248201z" fill="#e9ecf1" opacity=".76"/><path d="m56.5154062 26.6666667h-10.7563026c-.570555 0-1.1177464.2247388-1.5211898.6248201-.4034433.4000813-.6300707.9427128-.6300707 1.5085132v3.2c0-.5658004.2266274-1.1084319.6300707-1.5085132.4034434-.4000813.9506348-.6248371 1.5211898-.6248201h10.7563026c.570555-.000017 1.1177464.2247388 1.5211898.6248201.4034433.4000813.6300707.9427128.6300707 1.5085132v-3.2c0-.5658004-.2266274-1.1084319-.6300707-1.5085132-.4034434-.4000813-.9506348-.6248201-1.5211898-.6248201z" fill="#fff" opacity=".5"/><path d="m45.7918552 37.2514919c-1.1795403 0-2.1357466-.9526831-2.1357466-2.1278772v-6.3836318c0-1.1751941.9562063-2.1278772 2.1357466-2.1278772h10.678733v-12.7672634c0-1.1287023-.4500048-2.2111816-1.2510695-3.0092947-.8010646-.798113-1.8875472-1.24647954-3.0204237-1.24645979h-46.98642532c-2.35908056 0-4.27149321-1.90536618-4.27149321-4.25575448v44.68542197c0 2.3503883 1.91241265 4.2557545 4.27149321 4.2557545h46.98642532c2.3590806 0 4.2714932-1.9053662 4.2714932-4.2557545v-12.7672634z" fill="#eff2f6"/><path d="m4.16806723 50.0187553v-40.58012969c-1.89609666-.48066375-3.22333535-2.16919403-3.22689076-4.10529228v44.68542197c0 2.3503883 1.92630427 4.2557545 4.30252101 4.2557545h3.22689076c-2.37621674 0-4.30252101-1.9053662-4.30252101-4.2557545z" fill="#bfc8d3"/><path d="m52.199095 51.3613445h-46.98642532c-2.35908056 0-4.27149321-1.9263042-4.27149321-4.302521v3.2268908c0 2.3762167 1.91241265 4.302521 4.27149321 4.302521h46.98642532c2.3590806 0 4.2714932-1.9263043 4.2714932-4.302521v-3.2268908c0 2.3762168-1.9124126 4.302521-4.2714932 4.302521z" fill="#d5dbe3"/><path d="m52.199095 9.5543672h-46.98642532c-2.35908056 0-4.27149321-1.88982123-4.27149321-4.22103387v3.1657754c0 2.33121267 1.91241265 4.22103387 4.27149321 4.22103387h46.98642532c1.1328774-.0000224 2.2193616.4446852 3.0204269 1.2362875.8010652.7916022 1.2510663 1.8652517 1.2510663 2.9847464v-3.1657754c0-1.1194947-.4500011-2.1931442-1.2510663-2.9847464-.8010653-.79160229-1.8875495-1.23630989-3.0204269-1.2362875z" fill="#fff" opacity=".5"/><g fill="#28387c"><path d="m48.9411765 34.1960784c-1.2128607 0-2.1960785-.9832178-2.1960785-2.1960784s.9832178-2.1960784 2.1960785-2.1960784c1.2128606 0 2.1960784.9832178 2.1960784 2.1960784-.0013857 1.2122862-.9837922 2.1946927-2.1960784 2.1960784z"/><path d="m31.0007262 55.5294118h-25.6557734c-2.95049759-.0034578-5.34148324-2.3863219-5.3449528-5.3267974v-44.74509809c0-.58838178.47860339-1.06535945 1.06899056-1.06535945s1.06899054.47697767 1.06899056 1.06535945c.00193243 1.76434705 1.43661118 3.19415257 3.20697168 3.19607844h47.0355846c2.9504976.00345777 5.3414832 2.38632185 5.3449528 5.32679735v12.7843138c0 .5883818-.4786034 1.0653594-1.0689906 1.0653594-.5903871 0-1.0689905-.4769776-1.0689905-1.0653594v-12.7843138c-.0019324-1.764347-1.4366112-3.1941525-3.2069717-3.1960784h-47.0355846c-1.15711131.0012441-2.28305023-.3737067-3.20697168-1.06795895v40.48625965c.00193243 1.764347 1.43661118 3.1941525 3.20697168 3.1960784h25.6557734c.5903872 0 1.0689906.4769777 1.0689906 1.0653595s-.4786034 1.0653595-1.0689906 1.0653595z"/><path d="m58.5490196 34.1960784c-.2808399 0-.5501982-.1114578-.748782-.3100416-.1985838-.1985837-.3101146-.4679421-.3100416-.7487819v-4.2352941c-.0005836-.5845302-.4742933-1.0582399-1.0588235-1.0588236h-10.5882353c-.5845301.0005837-1.0582398.4742934-1.0588235 1.0588236v4.2352941c0 .5847721-.4740514 1.0588235-1.0588235 1.0588235s-1.0588235-.4740514-1.0588235-1.0588235v-4.2352941c.001914-1.7535228 1.4229477-3.1745566 3.1764705-3.1764706h10.5882353c1.7535228.001914 3.1745566 1.4229478 3.1764706 3.1764706v4.2352941c0 .2808398-.1114578.5501982-.3100416.7487819-.1985837.1985838-.4679421.3100416-.7487819.3100416z"/></g><path d="m52.3921569 9.7254902h-46.87581703c-2.35352717 0-4.26143791-1.89620577-4.26143791-4.23529412s1.90791074-4.23529412 4.26143791-4.23529412h42.61437913c2.3535271 0 4.2614379 1.89620577 4.2614379 4.23529412z" fill="#eff2f6"/><path d="m4.16806723 5.49019608c-.00003138-1.12327931.45325856-2.20056089 1.26014457-2.99483931.80688601-.79427841 1.9012673-1.24045481 3.04237644-1.24045481h-3.22689076c-2.37621674 0-4.30252101 1.89620577-4.30252101 4.23529412s1.92630427 4.23529412 4.30252101 4.23529412h3.22689076c-2.37621674 0-4.30252101-1.89620577-4.30252101-4.23529412z" fill="#bfc8d3"/><path d="m1.57094961 3.76470588c-.53654847 1.3353621-.38321442 2.85496459.40882206 4.05159204.79203647 1.19662745 2.11846821 1.91269012 3.53655663 1.90919228h46.8758286v-3.25134274h-46.8758286c-1.73493457-.00107879-3.29571447-1.0729257-3.94537869-2.70944158z" fill="#d5dbe3"/><path d="m52.2666667 10.6666667h-46.93333337c-2.94551866 0-5.33333333-2.3878147-5.33333333-5.33333337 0-2.94551866 2.38781467-5.33333333 5.33333333-5.33333333h42.66666667c2.9440835.00346202 5.3298713 2.38924987 5.3333334 5.33333333v4.26666667c0 .28292014-.1122835.5542737-.3123382.7543285-.2000548.2000548-.4714084.3123382-.7543285.3123382zm-46.93333337-8.53333337c-1.7673112 0-3.2 1.4326888-3.2 3.2s1.4326888 3.2 3.2 3.2h45.86666667v-3.2c-.0019282-1.76651188-1.4334881-3.19807177-3.2-3.2z" fill="#28387c"/><g fill="#28387c" opacity=".5" transform="translate(4.392157 12.862745)"><path d="m47.8770898 10.6666667c-.5017236-.0049289-.9303929-.3637522-1.024652-.85769855-.0942591-.49394636.1720385-.9859992.6365338-1.1761584.4644952-.1901592.9983409-.02567617 1.2760562.39316529.2777152.41884146.2222642.97585816-.1325452 1.33144216-.0506234.0458324-.1040632.0884395-.1600049.1275708-.0591635.0404959-.1234579.0728909-.1911782.0963258-.0603201.0304561-.1247099.0520273-.1911782.0640466-.0704108.0121987-.141604.0193191-.2130315.0213063z"/><path d="m46.8131563 5.33478003c.001683-.5882438.4770378-1.06469047 1.0639335-1.06637733.5868958.00168686 1.0622506.47813353 1.0639336 1.06637733-.0018631.58816872-.4771127 1.06450999-1.0639336 1.06637733-.5868208-.00186734-1.0620704-.47820861-1.0639335-1.06637733z"/><path d="m47.8770898 2.13564804c-.4301983-.00170095-.8174001-.261886-.9823672-.66011375-.1649671-.39822776-.0755047-.85678065.2269745-1.16339148.2547135-.25176969.6178618-.35974549.9683497-.28792188.066508.01158866.1309345.03299608.1911782.0635241.0677204.02343491.1320148.05582989.1911782.09632587.0559695.03930666.1094335.08208066.1600794.12807191.4114445.42048673.4114445 1.09368378 0 1.5141705-.0529839.04265509-.107021.08539549-.1600049.12757072-.0591635.04049597-.1234579.07289095-.1911782.09632586-.0603201.03045609-.1247099.05202731-.1911782.06404662-.0704088.01222728-.141602.01937614-.2130315.02139153z"/><path d="m42.5574223 1.06927072c.001683-.5882438.4770378-1.06469047 1.0639335-1.06637733.5868958.00168686 1.0622505.47813353 1.0639335 1.06637733-.001863.58816872-.4771126 1.06450999-1.0639335 1.06637732-.5868208-.00186733-1.0620704-.4782086-1.0639335-1.06637732zm-4.255734 0c.001683-.5882438.4770378-1.06469047 1.0639335-1.06637733.5868958.00168686 1.0622505.47813353 1.0639335 1.06637733-.001863.58816872-.4771126 1.06450999-1.0639335 1.06637732-.5868208-.00186733-1.0620704-.4782086-1.0639335-1.06637732zm-4.255734 0c.001683-.5882438.4770378-1.06469047 1.0639335-1.06637733.5868958.00168686 1.0622505.47813353 1.0639335 1.06637733-.001863.58816872-.4771126 1.06450999-1.0639335 1.06637732-.5868208-.00186733-1.0620704-.4782086-1.0639335-1.06637732zm-4.255734 0c.001683-.5882438.4770378-1.06469047 1.0639335-1.06637733.5868957.00168686 1.0622505.47813353 1.0639335 1.06637733-.001863.58816872-.4771127 1.06450999-1.0639335 1.06637732-.5868208-.00186733-1.0620704-.4782086-1.0639335-1.06637732zm-4.255734 0c.001683-.5882438.4770378-1.06469047 1.0639335-1.06637733.5868957.00168686 1.0622505.47813353 1.0639335 1.06637733-.001863.58816872-.4771127 1.06450999-1.0639335 1.06637732-.5868208-.00186733-1.0620704-.4782086-1.0639335-1.06637732zm-4.255734 0c.001683-.5882438.4770378-1.06469047 1.0639335-1.06637733.5868957.00168686 1.0622505.47813353 1.0639335 1.06637733-.001863.58816872-.4771127 1.06450999-1.0639335 1.06637732-.5868208-.00186733-1.0620704-.4782086-1.0639335-1.06637732zm-4.255734 0c.001683-.5882438.4770378-1.06469047 1.0639335-1.06637733.5868957.00168686 1.0622505.47813353 1.0639335 1.06637733-.001863.58816872-.4771127 1.06450999-1.0639335 1.06637732-.5868208-.00186733-1.0620704-.4782086-1.0639335-1.06637732zm-4.255734 0c.001683-.5882438.4770378-1.06469047 1.0639335-1.06637733.5868957.00168686 1.0622505.47813353 1.0639335 1.06637733-.001863.58816872-.4771127 1.06450999-1.0639335 1.06637732-.5868208-.00186733-1.0620704-.4782086-1.0639335-1.06637732zm-4.25573398 0c.001683-.5882438.47703779-1.06469047 1.0639335-1.06637733.58689568.00168686 1.06225048.47813353 1.06393348 1.06637733-.001863.58816872-.4771127 1.06450999-1.06393348 1.06637732-.58682081-.00186733-1.06207044-.4782086-1.0639335-1.06637732zm-4.255734 0c.001683-.5882438.47703779-1.06469047 1.0639335-1.06637733.58689571.00168686 1.0622505.47813353 1.0639335 1.06637733-.00186306.58816872-.47711269 1.06450999-1.0639335 1.06637732-.58682081-.00186733-1.06207045-.4782086-1.0639335-1.06637732z"/><path d="m1.06401581 2.13564804c-.07142053-.00194424-.14260668-.00907208-.21299948-.02132754-.06650875-.01186065-.13092101-.0334394-.19117821-.06404663-.06805081-.02341759-.1326886-.05581072-.19221023-.09632586-.05561221-.03913983-.10871825-.08174006-.15900486-.12754939-.09613897-.10201474-.17197073-.22148162-.22342604-.35198983-.11359599-.2582452-.11359599-.55246816 0-.81071336.05394334-.12908948.12950704-.24798616.22342604-.35155262l.1589623-.12809324c.05952163-.04051514.12415942-.07290827.19221023-.09632587.06019595-.03067458.1246599-.0520825.19122077-.06350277.13630904-.03229457.27825264-.03229457.41456169 0 .07057016.0098213.13903093.03128627.20260485.0635241.06536619.02138667.12653455.05397865.18078358.09632587.06337852.04265509.11740507.08539549.17039959.12809324.09391085.10354076.16947416.222408.22342604.3514673.11359599.25824521.11359599.55246816 0 .81071337-.0514553.1305082-.12728707.24997508-.22342604.35198983-.05216555.04841176-.10928155.09117201-.17039959.12757072-.05424903.04234721-.11541739.07493919-.18078358.09632586-.0636407.03217599-.13206207.05380507-.20260485.06404662-.06654574.01226238-.13392956.0194066-.20156221.0213702z"/></g><g fill="#28387c" opacity=".5" transform="translate(4.392157 48.941176)"><path d="m26.5460165 2.19607843c-.0712459-.00251972-.1422563-.00983421-.2125777-.02189678-.066377-.01217721-.1306617-.03433191-.1907996-.06575605-.067916-.02404262-.1324258-.05730033-.1918296-.09889683-.0528789-.04336658-.1057685-.08716015-.15869-.13095372-.093736-.10649635-.1691476-.22871418-.2229836-.36138454-.0597485-.1297975-.0888572-.27233222-.0849461-.41595133-.0025087-.44479495.2562228-.8469458.6546358-1.0175118.3984129-.170566.8573093-.07564135 1.1610877.24017593.1954976.20882592.3057323.48710164.3079297.77733587-.0017082.1430336-.0305968.28433432-.085031.41590753-.053836.13267037-.1292476.2548882-.2229836.36138454-.2036985.19967-.472789.31302579-.753812.31754718z"/><path d="m21.2368835 1.10123918c.0016796-.6039442.4760931-1.09310737 1.0618266-1.09483925.5857335.00173188 1.0601469.49089505 1.0618266 1.09483925-.0018594.60386712-.4761679 1.09292207-1.0618266 1.09483925-.5856588-.00191718-1.0599673-.49097213-1.0618266-1.09483925zm-4.2473065 0c.0016797-.6039442.4760931-1.09310737 1.0618266-1.09483925.5857335.00173188 1.060147.49089505 1.0618266 1.09483925-.0018593.60386712-.4761678 1.09292207-1.0618266 1.09483925-.5856587-.00191718-1.0599672-.49097213-1.0618266-1.09483925zm-4.2473064 0c.0016796-.6039442.4760931-1.09310737 1.0618266-1.09483925.5857335.00173188 1.0601469.49089505 1.0618266 1.09483925-.0018594.60386712-.4761679 1.09292207-1.0618266 1.09483925-.5856588-.00191718-1.0599673-.49097213-1.0618266-1.09483925zm-4.24730648 0c.00167966-.6039442.47609312-1.09310737 1.06182661-1.09483925.58573347.00173188 1.06014697.49089505 1.06182657 1.09483925-.0018593.60386712-.4761678 1.09292207-1.06182657 1.09483925-.58565874-.00191718-1.05996725-.49097213-1.06182661-1.09483925zm-4.24730645 0c.00167966-.6039442.47609312-1.09310737 1.06182661-1.09483925.58573349.00173188 1.06014694.49089505 1.06182661 1.09483925-.00185937.60386712-.47616787 1.09292207-1.06182661 1.09483925-.58565874-.00191718-1.05996724-.49097213-1.06182661-1.09483925z"/><path d="m1.06217783 2.19607843c-.0712791-.00199613-.14232429-.00931422-.21257769-.02189678-.06637704-.01217721-.13066174-.03433191-.19079962-.06575605-.06791605-.02404262-.13242584-.05730033-.1918296-.09889683-.05550208-.04018448-.10850296-.08392173-.15868998-.13095372-.19414745-.20973077-.30415383-.48743019-.30792972-.77733587-.00393251-.14378903.0252058-.28649535.08503107-.41644401.05381502-.13251317.12919991-.25456773.22289865-.36089186.05017061-.04720611.10315663-.09112928.15864751-.13151209.05940376-.0415965.12391355-.07485421.1918296-.09889683.06007674-.0314933.12441304-.0534726.19084209-.06519768.13603912-.03315653.27770163-.03315653.41374074 0 .07043041.01008342.13875561.03212131.20220364.06521957.06523675.02195749.12628397.05541936.18042558.09889683.06102379.03754722.11804018.08162066.17010463.1314902.09604899.1044529.17174794.22695438.22298358.36084807.05446471.13176346.08332528.2732658.08494613.4164878-.00425466.28980508-.11419243.56733132-.30792971.77733587-.05206226.04970389-.10906515.09360542-.17006216.13097562-.0541416.04347747-.11518883.07693934-.18042557.09889683-.06351468.03303477-.13180056.05524114-.20220364.06575604-.06642959.01256984-.13369425.0198828-.20120553.02187489z"/></g><circle cx="50.196078" cy="50.196078" fill="#27aafe" r="12.862745"/><path d="m62.9471532 51.7647059c.6566183-4.9170278-1.6200793-9.765757-5.8373031-12.431823-4.2172238-2.6660661-9.6103196-2.6660661-13.8275433 0-4.2172238 2.666066-6.4939214 7.5147952-5.8373031 12.431823.8074219-6.3755315 6.2721097-11.1590799 12.7510747-11.1617326 6.4789561.0026763 11.9436304 4.7862129 12.7510748 11.1617326z" fill="#5cbfff" opacity=".5"/><path d="m48.6105695 55.8431373c-.2756019 0-.5406412-.1043757-.7400696-.2916482l-3.930645-3.6934528c-.4283863-.4023901-.4443215-1.0704813-.0355923-1.4922236.4087291-.4217422 1.0873452-.4374303 1.5157315-.0350403l3.0304126 2.8473778 6.0722945-8.4952475c.340801-.4763808 1.0093415-.5905748 1.493227-.2550593.4838855.3355154.5998785.9936873.2590774 1.470068l-6.7883214 9.4974502c-.179299.2512286-.461063.4128828-.7714762.4426128-.0347641.0035165-.0696914.0051629-.1046385.0051629z" fill="#fff"/><path d="m37.4450037 48.627451c-.6566183 4.9170278 1.6200793 9.7657569 5.8373031 12.431823 4.2172237 2.666066 9.6103195 2.666066 13.8275433 0 4.2172238-2.6660661 6.4939214-7.5147952 5.8373031-12.431823-.807446 6.3755317-6.2721386 11.1590723-12.7511069 11.1617325-6.4789528-.0026687-11.9436222-4.7862131-12.7510426-11.1617325z" fill="#0a77be" opacity=".2"/><path d="m50.1960784 64c-7.6236953 0-13.8039215-6.1802262-13.8039215-13.8039216 0-7.6236953 6.1802262-13.8039215 13.8039215-13.8039215 7.6236954 0 13.8039216 6.1802262 13.8039216 13.8039215-.0086254 7.6201198-6.1838018 13.7952962-13.8039216 13.8039216zm0-25.4841629c-6.4508191 0-11.6802413 5.2294222-11.6802413 11.6802413 0 6.4508192 5.2294222 11.6802414 11.6802413 11.6802414 6.4508192 0 11.6802414-5.2294222 11.6802414-11.6802414-.0072854-6.447799-5.2324423-11.6729559-11.6802414-11.6802413z" fill="#28387c"/></g></svg>