<svg height="60" viewBox="0 0 60 60" width="60" xmlns="http://www.w3.org/2000/svg"><g fill="none"><path d="m2.0954635 22.7169479c-.30237277-.5071722-.13963701-1.1634201.3646114-1.4703311.38003731-.2309916.86356712-.201096 1.21229211.0749535-.04317191-.2032113-.03196906-.4142247.03247642-.6117157.09515491-.2690215.29322831-.4891958.55063774-.6120775.25740944-.1228817.55306468-.1384028.82191216-.0431481.55990689.1988598.85295969.8139799.65479631 1.3744225-.09627987.2680375-.29533164.4866405-.55311618.6074442s-.55305141.1338498-.82047442.0362517c-.10859804-.0362598-.21027031-.0906704-.30069925-.1609212.11192011.4564096-.08870364.9322252-.49353002 1.1704957-.16384386.1034041-.35322347.1591248-.54692782.1609213-.37785805-.0031632-.72696374-.202444-.92197845-.5262953zm-1.72768765-4.2726161c-.06579745-.2761879-.01903589-.5672222.12996211-.8088574.14899801-.2416352.38798041-.4140017.66419206-.4790498.27735651-.0644139.56893056-.0157105.81033659.1353555.24140603.1510659.41278617.392068.47629616.6697878.06623976.2760747.01979202.5671804-.12906423.8088947s-.38784645.4141056-.66408142.4790232c-.08082624.020695-.16384345.031605-.24726927.0324956-.4991486-.0035284-.93014396-.3505231-1.04041492-.8376389zm5.58976389-.3543489c-.25075807-.1362751-.43699564-.3668125-.51759366-.6407122-.08059802-.2738996-.04892764-.5686345.0880187-.8191306.2884417-.5176696.94070838-.704846 1.45950773-.4188248.25074712.1364327.43694605.3670764.51752126.6410512.08057522.2739748.04890601.5687686-.0880214.8193498-.19184163.341085-.55392419.5507525-.94506706.5472505-.18000853.004564-.3578592-.0400233-.5144514-.1289732zm-4.96740108-3.0806069c-.28321961-.0212705-.54637517-.154311-.73151095-.3698214-.18513579-.2155104-.27706765-.4958155-.25554909-.7791825.04477633-.595694.56347644-1.0424173 1.1588514-.9980448.58970294.0525666 1.02867093.5680524.98693129 1.1589661-.04616748.5585367-.5127781.9882632-1.07289135.9880826zm7.17705299-.6012381c-.2248783-.1740318-.37073604-.4309267-.40499892-.7133124s.04592319-.5667396.2226503-.7895572c.17381949-.2252943.43063272-.3714806.71299819-.4058612s.56672224.0459131.78946812.2229219c.2248765.1741488.37071566.4311299.40496772.7135876.03425205.2824577-.0459342.56688-.22266202.7897866-.1999049.2608352-.50865356.4151086-.83714493.4182988-.24256148.0019182-.47807255-.0815732-.66532138-.2358641zm2.76814545-3.2745605c-.193775-.2076859-.2969489-.484014-.2867346-.7679542.0102144-.2839402.1329765-.55213099.3411731-.74533943.2061135-.19650077.4826745-.30159473.7671893-.29153413s.5529716.13442669.7447078.34499564c.1961958.20653698.301084.48337732.2910332.76814852-.0100508.2847711-.1341952.5535184-.3444632.7456926-.1964063.1874408-.457819.2913456-.7292335.2898674-.2970374-.0035278-.5799032-.1276373-.783715-.3438764zm-9.29144283-.3648373c-.2631876-.1067229-.47320854-.3137119-.58383841-.5754098-.11062987-.26169802-.11280162-.55665661-.00603725-.81995713.10572047-.26411796.31246328-.47506405.57430992-.58598619.26184663-.11092214.55711845-.11263693.82023424-.00476352.26414971.10572302.47515355.31263727.58611775.57475784s.11269557.55773125.00480935.8211351c-.16546248.4052615-.56099472.6687608-.99849706.6651879-.1359774.0010731-.27085962-.02439-.39709854-.0749642zm12.54256113-2.43690024c-.158617-.23568767-.2161079-.52519394-.1595916-.80365374.0565162-.27845981.2223148-.5225937.4602479-.6777025h-.0104821c.2357613-.16058035.5258558-.22029109.8058205-.16586367.2799647.05442741.5266082.21848439.6851229.45571524.1597699.23626193.2189641.52644704.164508.80646002s-.2180818.52681357-.4547358.68588911c-.1780899.11801844-.3867531.18141887-.6003578.18241326-.3590904-.0013343-.6935597-.18284202-.890532-.48326846zm-10.63252486-1.40639203c-.4518918-.38160713-.51394565-1.05551429-.13934713-1.51331506.3811876-.4528248 1.05525248-.51517921 1.51294845-.13995537.45096382.38231171.51293371 1.05554098.13934713 1.51384108-.20320879.24636725-.50638009.38822474-.82562207.38631847-.25138152.00341498-.4955118-.08427715-.68732638-.24688912zm14.29124526-.83712355c-.2464401-.53971501-.011588-1.17728596.5259635-1.42787326.2584184-.11993002.5542358-.13059523.8206104-.02958575.2663745.10100948.4808262.30516925.5948981.56634793.1234285.25680395.1372328.55277729.0382434.81996709s-.3022685.48264242-.5631662.5968918c-.137985.06368528-.2881004.09676488-.4400571.09697145-.4196484.002931-.8019393-.2408599-.9764921-.62271926zm3.9699126-1.631757c-.0769469-.27325033-.0422375-.56589539.0964899-.81353534.1387274-.24763994.3701048-.42998194.643215-.5068996.1227083-.03165669.2498298-.04263886.376145-.03249558.3831502-.26054583.8907266-.24318137 1.255197.04294097.463034.36579928.5444365 1.03685558.1823057 1.50286967-.2153926.28795792-.5652422.44272148-.9230621.40833645-.0957066.06513847-.2005678.11566433-.3111384.14991768-.0949093.02141121-.1918849.03230864-.2891765.0324989-.4806966.00119121-.9026526-.31985175-1.0299756-.78365462zm-15.27823025-.61226314c-.31798537-.49829555-.17430784-1.15998575.32165282-1.48133476.23856313-.15539307.52936758-.20876348.80751759-.14820113s.52049538.23001691.67295445.47054828c.15523027.23867388.20857983.52956713.14815682.80783832-.06042302.27827118-.22959604.52078948-.46980965.67349645-.1719309.1132649-.37351497.17308851-.57936132.17195343-.3655525.00209773-.70628473-.18480282-.90111071-.49430059zm12.87469615-.92308063h.0104821c-.2677767-.09630274-.4861809-.29537397-.6069144-.55319065-.1207334-.25781667-.1338485-.55313662-.0364449-.82065213.095959-.26771989.2953871-.4856419.5534827-.60480977.2580956-.11916788.5532178-.12958957.8190672-.02892385h.0115229c.551879.20702736.8341849.8201444.6328342 1.374401-.1580421.42031482-.5601662.69837342-1.0089792.69768475-.1276479-.00143163-.2542525-.0232074-.3750506-.06450935zm-9.0986229-1.10546169c-.0759304-.27479584-.039374-.56853428.1015909-.81630517.140965-.24777088.3747335-.42917644.6496476-.50412977.5745818-.15185155 1.1640113.18845892 1.3201606.76220228.0736706.2747566.0346616.56757233-.1083647.81342648-.1430263.24585414-.3782318.4243973-.6533881.49598336-.0899305.03094298-.1846807.04548713-.2797457.04294098-.4824095-.00373019-.9033617-.32831082-1.0299006-.79411816zm5.2366325.33279254c-.5920775-.03095529-1.0477774-.53495389-1.0194614-1.12751188.0106311-.28403638.1347438-.55192091.3445093-.74358814.2097654-.19166722.4876326-.29108029.7712977-.27594866.2837568.01082951.551315.13509143.7427447.34495248.1914297.20986106.2907323.48778242.2756652.77151283-.0187851.57342427-.4879767 1.02900689-1.0613685 1.03058337h-.05343z" fill="#28387c"/><path d="m55.3456548 24.3693738c-.2901846-.2231054-.4445039-.579852-.4081966-.9436458-.0709902-.0963168-.1220064-.205806-.1500596-.3220523-.160208-.5684318.1714078-1.1589048.7408422-1.3191392.5727361-.1558966 1.1639323.1798761 1.3221902.7509441.0405819.1243674.0552098.2557133.0429817.3859394.2664672.385325.2490142.8992754-.0429817 1.2657088-.2040661.2601962-.5178356.410785-.8488872.4074103-.2375036-.000943-.4680565-.0800913-.655889-.2251653zm2.3642047-3.5714141c-.2664736-.0980391-.4829835-.2977604-.6018584-.5551894-.118875-.2574291-.1303681-.5514582-.0319487-.8173482.2061052-.558483.8253976-.846019 1.3861577-.6435898.5540794.2113287.8361197.8269722.6338071 1.3834875-.1602612.4178924-.5611615.694696-1.0094774.6969989-.128268-.0004466-.2555672-.0221968-.3766803-.064359zm-4.3411449-1.5547718c-.1182887-.2574912-.1292432-.5513366-.0304534-.8168893.0987898-.2655526.2992308-.4810582.5572255-.5991048.5402399-.2459774 1.1781521-.0113138 1.4292253.5257574.2442434.5392973.009687 1.1744219-.5268152 1.4264936-.1422187.0625889-.2957936.0953823-.4512211.0963508-.4219434-.0016717-.8041257-.2488723-.9780041-.6325863zm5.5122655-2.5633557c-.5927578-.03422-1.0502744-.5335697-1.0315592-1.12588.0314478-.5918393.5359599-1.047181 1.129106-1.0190619.2841931.0108189.5521627.1349588.7438866.344614.191724.2096551.2911793.4873038.2760891.7707558-.0236758.5752253-.4977192 1.0294304-1.0745409 1.0295721zm-7.5322841-1.0190619c-.1583453-.2374135-.2155792-.5279366-.1590822-.8075118.0564971-.2795751.2220854-.5252432.4602545-.6828367.2370076-.1607469.5288644-.2195197.8097792-.1630697.2809147.05645.5272429.2233714.6834565.4631363v-.0104995c.3248643.4953923.1906925 1.1593687-.3011616 1.4903593-.1728682.1211562-.3795676.1849152-.5907826.1822342-.3609772.003357-.6997099-.1737237-.9024961-.4718014zm-2.5572783-3.2174129c-.4039242-.4362408-.380041-1.1158979.0535122-1.5228229.4350117-.398271 1.1097933-.3742528 1.5152745.0539346.1966723.2061439.301848.4826723.2917789.7671464-.0100691.284474-.134534.5529054-.3452911.7446837-.1978317.1855-.4589135.2890124-.7303546.2895671-.2966074.0029927-.5810524-.1174938-.7849629-.3324981zm8.6393084-.8043532c-.0752482-.2759434-.0370037-.5704513.1062416-.8181306s.3796356-.4280307.6566824-.5010086c.2750192-.073708.5681427-.0347435.8142466.1082366.2461039.1429802.4248058.3781343.4964031.6532177.076296.2746385.0383415.5683841-.1052688.8147181-.1436102.246334-.3807271.4244169-.6576552.4939217-.0863684.0297661-.1772732.0442829-.2686352.0428988-.4869131.0000582-.9136643-.3250557-1.0420145-.7938429zm-11.6803771-1.97317492c-.2266767-.17489692-.3743963-.43255573-.4106206-.71622158s.0420184-.5700691.2174933-.79612332c.3703823-.46372568 1.0451256-.54487359 1.5152745-.18223427.4643441.36508641.545936 1.03599362.182586 1.50135208-.2043659.26120616-.5168519.4152295-.8488872.41841382-.2375197-.00079155-.4681085-.07996492-.655846-.22518673zm10.0790641-1.64066605c-.3130082-.49894217-.1700268-1.15600373.3221473-1.48040672.5024587-.31888335 1.1684141-.17534152 1.4942458.32207375.3154745.49833894.1720679 1.15712086-.3221474 1.47988121-.172938.11155063-.3743423.17117057-.580252.17178468-.3690738.00209102-.7137086-.18392077-.9139937-.49333292zm-13.5282973-.6220975c-.5171082-.2885815-.7082584-.93677523-.4302354-1.45893585.2890995-.51692882.942287-.70366329 1.4617517-.41788831.251965.13255492.4396923.36096154.5206768.63350433.0809846.27254279.0483764.56616888-.0904414.8143958-.1873151.34634723-.551137.56094808-.945467.55768489-.1799934-.00063403-.3571491-.04481646-.5162847-.12876086zm-3.7608929-1.68411185c-.5577224-.19561128-.851242-.80518247-.655846-1.3620381.0387324-.10743475.0931897-.20855347.1616002-.30006665-.4481828.08916919-.9040985-.11276477-1.1385512-.50428656-.145584-.24444889-.1877943-.53664666-.1173268-.81218578.0704675-.27553913.2478278-.51179916.4929862-.65670261.2450398-.14519537.5378419-.18726443.8139655-.1169485.2761235.07031594.512939.2472542.6583274.49187362.2197843.37901216.1899941.85268946-.0755509 1.20129616.194013-.03345967.3932959-.01872641.580252.04289884.5607677.19866467.8542711.81318116.655803 1.37307382-.1557381.42795254-.5648603.71143572-1.0210287.70747691-.1210813-.00051574-.2411253-.02231242-.3546307-.06439115zm14.678389-.64308576c-.221721-.18057595-.3614146-.44252227-.3876692-.72693755-.0262545-.28441529.0631338-.56742688.2480649-.78539663.1820899-.21955709.4443083-.3576741.7286718-.38380962s.5674443.06186367.7866457.24453855c.2185192.18310277.354891.44559384.3789194.7293514.0240284.28375755-.0662691.56536896-.2508986.78247872-.2018001.24839953-.5065198.39080686-.8269022.38644345-.247353-.00190237-.4864514-.08904074-.6768318-.24666832zm-3.3957102-2.02709878c-.551443-.22558373-.8157554-.85420682-.5907503-1.40500129.1094371-.26322586.3192791-.47219856.5832556-.58083936s.560408-.10802737.8239308.00170505c.263355.10660249.4729589.31404112.5819902.57597793s.1084053.55654689-.0017381.81801981c-.1637486.40135228-.5543042.66411947-.9884916.66506068-.1395953.00109401-.2781244-.02433244-.4081966-.07492282zm-9.0695867-1.40500129c-.0687366-.27616107-.0231249-.56831498.1265387-.81051017.1496635-.2421952.3907618-.41401395.6688686-.47666946.5781208-.13558679 1.1579022.21841726 1.3001945.79387517.131341.57961099-.2273794 1.15723171-.8059057 1.29768984v-.01049949c-.0806722.02019513-.1634317.0309174-.2465963.03194891-.4969428-.0021559-.9279053-.34335419-1.0430998-.8258348zm5.2331428.49333664c-.2842839-.01936821-.5489233-.1516721-.7347056-.36730884-.1857822-.21563673-.2771993-.49660628-.2537967-.78004203.0212795-.28311297.1544427-.5461723.3701599-.73123782.2157171-.18506552.4962939-.27695721.7799319-.25543545.2852052.02197776.549869.15651455.7353969.37382505.185528.21731051.2766148.49946752.2530947.78400386-.0444392.5546989-.5065119.98336406-1.0640426.98711298-.0291353.00242234-.058455-.00130865-.0860492-.01094993z" fill="#28387c"/><path d="m13.8489101 60c-.5905227-.0529114-1.0299587-.5678468-.9883225-1.1581261.0529708-.5893926.5689421-1.0279949 1.1603916-.986393.5923488.0493054 1.033773.5665322.9883225 1.1580403-.0459472.5579353-.5134458.987157-1.0743571.986393h-.0860345zm3.3091058-1.1476501c-.0665611-.2774001-.0187223-.5698576.1327786-.8117273.1515008-.2418696.3939724-.4128898.6729892-.4746732.2764124-.0659457.5677575-.0193607.8096939.129467s.4145605.3876544.4797495.663737c.0643402.2773139.0155655.5687807-.1355765.8101761-.1511421.2413954-.3922483.4129096-.6701913.4767498-.0804715.0211593-.1633368.031895-.2465542.0319426-.4968584-.0021751-.9277341-.343324-1.0428892-.8257149zm-7.78908886.0858665c-.26354716-.1065971-.47385502-.3133423-.58463603-.5747319-.11078101-.2613897-.11295572-.5560008-.0060455-.8189911.10666289-.2631614.31376606-.4732123.57569243-.5838863.26192636-.110674.55719055-.1128927.82075696-.0061674.2638636.1063958.4745071.3131442.585505.5746782.110998.261534.113239.5563857.0062293.8195702-.1643302.4073822-.5598453.6745481-.99986112.6753949-.13687892-.0025947-.27194089-.0317745-.39764104-.0859095zm11.88298026-1.3832148c-.2290651-.3788669-.2037125-.8587979.0639994-1.2115247-.1905084.0334175-.3863695.0186719-.5696993-.0428903-.5600463-.1990364-.8529255-.8130145-.6546487-1.3723743.0963734-.2677673.2956617-.4861822.5537878-.6069372.258126-.120755.5538189-.1338993.8216793-.0365258.2678028.093866.4872538.2901004.610043.545504s.1388507.5490392.0446487.8162657c-.0383769.1073616-.09247.2084604-.1605197.3000075.4453703-.0906892.8990947.1121469 1.1278171.5041871.1470562.2430682.1912061.5345315.1227146.8101227-.0684914.2755912-.2439992.512677-.4878241.6589802-.1653443.0999868-.3554018.1518521-.5487171.149741-.377401.0038567-.7286597-.1919276-.923324-.5146417zm-15.83628129-.9755096c-.21949568-.1819859-.35752452-.443575-.38369571-.7271716-.0261712-.2835966.06166109-.5659476.24415822-.7848859.18054286-.2217908.44303978-.3615866.72815443-.3877872.28511464-.0262006.56877505.0634061.78686095.248565.45192723.3770424.51426585 1.0474258.13958048 1.5010347-.20419148.2471685-.50690254.3922865-.82784586.3968647-.25047863-.00197-.49283113-.088943-.68721251-.2466197zm11.25976719-2.1016287c-.2520922-.1323709-.4399389-.3607393-.5209292-.6333026-.0809904-.2725633-.0482597-.5662191.0907674-.8143551.1357362-.2514083.3665829-.4381914.6411101-.5187362.2745271-.0805447.5699283-.0481599.8203915.0899396.5188517.2874225.7062259.9400727.4186233 1.4581229-.1860515.3424384-.5445163.5562454-.9348196.557575-.18132.002152-.3596713-.0460342-.5151435-.1391793zm-14.31072644-1.3512615c-.31847604-.4976985-.17459297-1.1586516.32209226-1.4795896.49840923-.3193139 1.16176401-.1754713 1.48248385.3214635.15660349.2380612.21070274.5289768.15012132.8072686-.06058143.2782918-.23075314.5205763-.47221357.6723209-.17205828.113362-.37398943.1731364-.58015283.1717331-.36591479.0020841-.70702495-.18436-.90233103-.4931965zm10.57150184-1.0937048c-.4636945-.3653342-.5452124-1.0356151-.1825548-1.5010561.1730246-.2258907.4293357-.3733891.7118993-.4096739.2825636-.0362849.5679372.0416542.7926196.2164741.226616.1748772.3742905.4324847.4104999.7160874.0362093.2836026-.0420163.5699398-.2174486.7959487-.2069015.256559-.5187614.4062274-.8487421.40733-.2407076-.000828-.4746009-.0798509-.6663163-.2251209zm-12.44117324-3.1094669h.01049647c-.07603414-.2744721-.03942783-.5678645.10172969-.8153435.14115752-.2474789.37524544-.4286708.65053514-.5035358.57498745-.1488572 1.16334902.1899736 1.32196416.7613043.14561629.5732605-.19258374 1.1580124-.76279353 1.3188793-.09186135.0212082-.18584076.0319426-.28012787.0319426-.48556635-.0032124-.9104122-.3266971-1.04180406-.7932469zm9.15407029.1073331c-.1967879-.2061337-.30203853-.4827197-.29197021-.7672625.01006832-.2845427.13460594-.5530295.34547319-.744795.20675856-.1959562.48378607-.3006989.76873707-.2906554.2849509.0100434.5538851.1340291.7462783.3440539.196332.2064315.3011784.4830267.2909157.7674646s-.1347711.5527902-.3454715.744593c-.1965428.1874252-.4583993.2912419-.7302298.2895314-.2975515-.0010648-.58134363-.1252237-.7837435-.3429085zm-2.77192723-3.4848221c-.16040259-.2357597-.22002983-.5256074-.16568077-.8053733.05434907-.2797659.21819088-.5263705.45525223-.6852176.23427236-.1603659.52329223-.2200334.80208542-.1655887.2787932.0544448.52396493.218433.68039844.4550988.16039844.2357649.22001886.5256163.16566164.8053827s-.21820778.5263678-.45527608.6852082c-.17871907.1178917-.38800574.1812091-.60223087.1821983-.35356378-.0020699-.68316851-.1787065-.88021001-.4717084zm-5.84496452-.0753906c-.59437712-.0305875-1.05386653-.5320773-1.0313828-1.125658.01345799-.2846446.14004039-.5521952.35172455-.7434217s.49100813-.2903546.77613552-.2754394c.28357231.0126811.55047095.137317.74193666.3464683.1914657.2091513.29180134.485671.27891744.7686817-.02367173.575112-.49763407 1.0292275-1.07435709 1.0293691zm3.65323309-3.8173083c-.11869996-.2571842-.12998794-.5509376-.03137314-.8164399.0986148-.2655024.29902691-.4809312.55701309-.5987497.54012573-.246123 1.17805676-.0114761 1.42897013.5256109.11869995.2571842.12998794.5509375.03137314.8164399-.0986148.2655023-.29902691.4809312-.55701309.5987497-.13985809.0706166-.29440693.1073859-.45114403.1073332-.42209721-.0013901-.80442593-.2488788-.9778261-.6329656zm-3.13703674-.439294c-.26659063-.0980083-.48324414-.2977117-.60228703-.5551666-.11904289-.2574548-.130721-.5515658-.03246462-.8176152.09794857-.2686675.2997919-.4868895.56030955-.6057761.26051766-.1188866.55793198-.1284996.82561109-.0266855.55322232.2058804.83658952.8184908.63475165 1.3722671-.16045922.4181563-.5616814.6950996-1.0103254.6973849-.12799923.0005002-.25510514-.0212935-.37559524-.0644086zm1.59999703-3.7424325c-.03178781-.1260009-.04242492-.2563899-.03147866-.3858634-.2665387-.3852148-.24908608-.8991401.04297428-1.2654592.36267502-.4661831 1.0346039-.552281 1.50350903-.1926529.2896484.2280819.44337464.5873941.40812677.9539357.06740256.0985115.11842171.207241.15108683.3219888.15987645.5686083-.17214883 1.158956-.74176836 1.3188793-.09467548.024756-.19177283.0391378-.28957146.0428904-.48493376-.0061916-.90858479-.3286226-1.04288917-.7937187z" fill="#28387c"/><path d="m44.3236875 58.9608141c-.0111984-.2849157.0924936-.5623802.2877626-.7700098.1952689-.2076296.4657268-.327999.7505653-.3340449.2832639-.009333.5584271.0954619.7638316.2909023.2054046.1954404.3238763.4651854.3288683.7487911.009453.284395-.0948406.5608145-.2897579.7679737-.1949174.2071592-.4643528.3279409-.7485699.3355701h-.0324113c-.5776531.0014522-1.0496545-.4611519-1.0602887-1.0391825zm-3.4694409.4499934c-.5635493-.1642267-.8887313-.7531743-.7277707-1.3180888.1629473-.5709822.7572971-.9018805 1.3279628-.7393299.2735996.0779652.5045877.2623778.6413452.5120271s.1678847.5437251.0864254.81651c-.1281747.4607465-.5500646.7775156-1.0279095.7717891-.1015866.0006357-.2027053-.0138171-.3000532-.0428861zm7.7200289-.8895277c-.1929512-.5622283.1035788-1.1749318.6639867-1.371959.5589234-.1909893 1.1669754.1060365 1.3603847.6645311.190477.5592176-.1062365 1.1673823-.6639867 1.3609534-.1131194.0420587-.2327574.0638454-.3534295.0643613-.4539447-.0009345-.8577564-.2888025-1.006998-.7178654zm-11.8847864-1.0501846c-.2362631-.1587518-.3995531-.4052086-.4537192-.6848068-.054166-.2795983.0052604-.5692722.1651229-.8048906.1585149-.2364172.404635-.3998628.6838923-.4541652.2792572-.0543023.5686236.0050164.8040603.1648286.487497.3337389.6161448.9978024.2885963 1.4896975-.2006821.2934309-.5324602.4696245-.8877498.4714471-.2140657.0027922-.4237459-.0608084-.6002457-.1820677zm15.8038628-.664531c-.3526579-.4740271-.2569152-1.1440571.214362-1.5001565.473674-.3535237 1.1437261-.2576544 1.4994523.2145377.1722108.226705.2464758.5130176.2061924.7949306s-.1917558.5359164-.4205544.7052259c-.1838812.1415489-.4100625.2169441-.6420258.2140126-.3367943-.0018595-.6536196-.1601823-.85748-.4284967zm-13.8548714-1.4142985c-.2108299-.55016.0614091-1.1674998.6096146-1.3823858.5560892-.2119195 1.1787237.0659706 1.392796.6216235.2054956.5532523-.0712073 1.1690972-.6211143 1.3823858-.1223478.0504202-.2535308.0758585-.3858409.0748203-.4442216-.0024447-.8405801-.2797463-.9954554-.6964438zm3.9296125-1.6932404c-.1450399-.243601-.1859832-.5353836-.1135962-.8095442s.2520084-.5076117.4983556-.6477047c.2453846-.1446347.5383032-.1852596.8137394-.1128573.2754362.0724022.5106026.2518414.6533016.4984893.2885799.5097108.1177213 1.1567715-.3847915 1.4572489-.1665818.0957432-.3547919.1474278-.5468693.1501764-.3805957-.0002837-.7318125-.2048015-.9201396-.5358084zm13.1489652.2893366c-.4809911-.3467215-.5913187-1.0174129-.2467732-1.5001565.3449632-.4759253 1.0081708-.5857823 1.4879526-.2464719.2327669.1652084.3898293.4167399.4361848.6985391.0463555.2817991-.0218483.5704473-.1894116.8016174-.1996277.2815618-.5229269.4491902-.8678876.4499933-.223064-.0001222-.4402818-.0714062-.6201078-.2035zm-9.5404888-2.5931628c-.1805856-.2201592-.2662979-.5031443-.23825-.7865993s.1675543-.5441181.3877787-.724552c.2181215-.18059.4993678-.2663366.7810445-.2381255.2816766.0282111.5403682.1680348.7184079.3883019.1820973.2186183.2697771.500777.2436857.7841952-.0260913.2834183-.1638085.544793-.3827533.726431-.1939073.1579763-.4359102.2449332-.6859369.2464718-.3200009-.0021927-.6222526-.1474989-.8239766-.3961231zm11.7561692-1.0716169c-.2717046-.0860032-.4979014-.2769339-.6284355-.530457s-.1546186-.5486883-.0669131-.8200482c.1859693-.5598268.7875414-.8655263 1.348885-.6854597.2719048.0855459.498358.2763258.6289558.5298762.1305979.2535504.1545024.5488296.0663928.8201146-.1470259.4428432-.5616449.741069-1.0279095.7393587-.1089996-.0022616-.2171045-.0202391-.3209755-.0533846zm-8.5554516-1.7790983c-.2155563-.1860289-.3472244-.4510614-.3653213-.735349-.0180968-.2842877.0789008-.5639002.2691261-.7758023.1887424-.2120046.4540097-.3401425.7372772-.3561434.2832675-.0160008.5612567.0814504.7726362.2708534.2134669.1872136.3436183.4518245.3616706.7353124.0180522.2834878-.0774823.5624937-.2654754.7753138-.2061002.2256446-.4975885.3540358-.8030543.3537193-.2607744.0021424-.5129172-.0934214-.7068591-.2679042zm9.5519564-2.3897056c-.2842997.0010557-.5572598-.1115074-.7582914-.3127038-.2010317-.2011965-.3135026-.4743803-.3124551-.7589131 0-.2850857.1145686-.5581924.3179487-.7577984.2033802-.199606.4784509-.3089236.7632482-.3033273.2826132.0013154.5531209.1149743.7519774.3159573.1988564.2009831.3097609.4728154.3083148.7556595-.0012377.2828732-.1147745.5536558-.3156128.7526949-.2008382.1990391-.4725006.3100051-.7551405.3084684zm-6.8531585-.9213762c-.4928383-.3216529-.6398558-.97774-.3314687-1.4792278.1510156-.2411947.3921091-.411958.6696123-.4742773.2775031-.0623192.5683835-.0110221.8078898.1424726.2417744.1504657.4130467.3918001.4753701.669829.0623235.2780289.0104769.56946-.1439014.8088737-.19463.3086548-.5345737.4950026-.8992495.4929606-.2037592.0000761-.4036848-.0554547-.5782526-.1606308zm5.2042096-4.0510011c-.0854647-.2712977-.0589528-.5655372.0736282-.8171562.1325811-.2516189.3602154-.4397107.6321816-.5223649.5643884-.170328 1.1607683.1448951 1.3384239.7074386.0843766.2713029.0573663.5650623-.0750653.8163977-.1324317.2513354-.3593886.4395677-.6307445.5231234-.1042212.0332311-.2126957.0512059-.322057.0533665-.4685767-.0039237-.8802608-.3120989-1.016399-.760848zm-3.0522382.3322655c-.2627415-.1090928-.4707773-.3191077-.5775042-.5829984-.1067269-.2638906-.1032242-.5595997.0097234-.820884.232917-.5424844.8590902-.7958225 1.4032571-.5677319.5468138.2338526.8009324.8668618.5677808 1.4143414-.1684503.3937623-.5570326.6474577-.9849943.6430773-.1441571.0037819-.2872596-.0255872-.4182949-.0858472zm1.3175124-3.8683868c-.0647813-.0881075-.1155697-.1857046-.1505674-.2893366-.3647956-.2576365-.5345623-.7126852-.4277495-1.146555v.0104697c.066114-.2769016.2405116-.5156584.4840819-.6627262s.5359295-.190139.8115124-.1195542c.3612828.083347.6509173.3528708.7602247.7074386.107643.0723512.2017826.1630244.2781459.2679043v.0104697c.3324445.4863582.213242 1.1497342-.2676848 1.4896974-.1787106.1259967-.3920518.1934536-.6106532.1931034-.350889.0021071-.6798166-.1707075-.8773422-.4609647z" fill="#28387c"/><path d="m30 3.24324324c-14.7773487 0-26.75675676 11.97940806-26.75675676 26.75675676s11.97940806 26.7567568 26.75675676 26.7567568 26.7567568-11.9794081 26.7567568-26.7567568c0-7.0963331-2.8190074-13.9020189-7.8368727-18.9198841-5.0178652-5.01786531-11.823551-7.83687266-18.9198841-7.83687266zm0 40.67027026c-7.6842213 0-13.9135135-6.2292922-13.9135135-13.9135135s6.2292922-13.9135135 13.9135135-13.9135135 13.9135135 6.2292922 13.9135135 13.9135135-6.2292922 13.9135135-13.9135135 13.9135135z" fill="#eff2f6"/><path d="m30.1351351 47.027027c5.5361811.003591 10.6236472-3.0326552 13.2319828-7.8969745 2.6083357-4.8643193 2.312844-10.7646889-.768544-15.3462687 2.2535825 4.4885001 1.8868738 9.8412768-.9579625 13.9831941-2.1609284 4.3630796-6.6213801 7.1254981-11.5054763 7.1254981-4.8840961 0-9.3445479-2.7624185-11.5054763-7.1254981-2.8448363-4.1419173-3.211545-9.494694-.9579624-13.9831941-3.081387 4.5815782-3.3768796 10.4819455-.7685466 15.346264s7.6957955 7.9005662 13.2319853 7.8969792z" fill="#fff" opacity=".5"/><path d="m30.1351351 12.972973c-5.536181-.003591-10.6236471 3.0326552-13.2319827 7.8969745-2.6083357 4.8643193-2.3128441 10.7646889.768544 15.3462687-2.2535826-4.4885001-1.8868739-9.8412768.9579624-13.9831941 2.1609284-4.3630796 6.6213802-7.1254981 11.5054763-7.1254981 4.8840962 0 9.3445479 2.7624185 11.5054763 7.1254981 2.8448363 4.1419173 3.211545 9.494694.9579625 13.9831941 3.081387-4.5815782 3.3768795-10.4819455.7685465-15.346264s-7.6957954-7.9005662-13.2319853-7.8969792z" fill="#28387c" opacity=".2"/><path d="m30 53.5135135c-14.152667-.001228-25.85629376-11.1354832-26.70455968-25.4054054-.03148735.5369081-.05219708 1.0767568-.05219708 1.6216216 0 14.9266149 11.97940806 27.0270271 26.75675676 27.0270271s26.7567568-12.1004122 26.7567568-27.0270271c0-.5448648-.0207098-1.0847135-.0521971-1.6216216-.8482867 14.2699124-12.5519012 25.4041559-26.7045597 25.4054054z" fill="#28387c" opacity=".2"/><path d="m24.3243243 3.88343612 1.6077355 12.87332068c2.7352317-.8661683 5.6709189-.8661683 8.4061507 0l1.6077354-12.87332068c-3.8269361-.8535905-7.7946854-.8535905-11.6216216 0z" fill="#27aafe"/><path d="m30 6.48648649c14.1526691.00122259 25.856299 11.13548071 26.7045597 25.40540541.0314873-.5369081.0521971-1.0767568.0521971-1.6216216 0-14.9266149-11.9794081-27.02702706-26.7567568-27.02702706s-26.75675676 12.10041216-26.75675676 27.02702706c0 .5448648.02070973 1.0847135.05219708 1.6216216.84823994-14.2699345 12.55188208-25.40420436 26.70455968-25.40540541z" fill="#fff" opacity=".5"/><path d="m35.9459459 56.1165639-1.6077354-12.8733207c-2.7352318.8661683-5.670919.8661683-8.4061507 0l-1.6077355 12.8733207c3.8269362.8535905 7.7946855.8535905 11.6216216 0z" fill="#27aafe"/><path d="m25.4054054 46.4506116c1.4853013.5069734 3.0313812.792006 4.5926099.8466857 1.5610191-.0434742 3.1084134-.3171601 4.5965793-.8129919l-.3866073-3.2410622c-2.7397329.9084224-5.6802647.9084224-8.4199976 0z" fill="#5cbfff" opacity=".75"/><path d="m30.1351405 53.5376601c-1.8206795-.0032542-3.6362848-.1924614-5.4186566-.5646871l-.3921596 3.1429334c3.8269319.8544672 7.7946897.8544672 11.6216216 0l-.3921595-3.1429334c-1.7823678.3722283-3.5979699.5614356-5.4186459.5646871z" fill="#0a77be" opacity=".75"/><path d="m43.8927774 29.8648649c.000394 1.4260324-.218677 2.8436469-.6495342 4.2031528l12.8733003 1.607658c.8536177-3.8269321.8536177-7.7946895 0-11.6216216l-12.8733003 1.607658c.4308572 1.3595058.6499282 2.7771203.6495342 4.2031528z" fill="#27aafe"/><path d="m43.8174783 31.6216216c-.0716496.9373846-.2646297 1.861864-.5742351 2.7508974l12.7588935 1.5734269c.2174422-.9738643.379148-1.9590329.4843498-2.9508306z" fill="#0a77be" opacity=".7"/><path d="m13.2432432 3.07982641c-.0977756-1.03644031-.2662469-2.0653389-.5042893-3.07982641l-12.7389539 1.55671976c.31920561.98667654.52107969 2.00602176.60162952 3.03787483z" fill="#5cbfff" opacity=".75" transform="translate(43.243243 24.054054)"/><path d="m28.4623004 3.30077284c-.421019.02666136-.8403992.05943397-1.2558592.10566637-.0373279.00414231-.0741954.01004912-.1114591.01424522-.4537733.05234365-.9046547.11404782-1.3513052.18866306l-.0115037.00215185c-.4729211.07925965-.9416828.17054094-1.4062851.27384387l-.0015638.00039809.3900962 3.14128573c3.5758728-.74127704 7.2647746-.74127704 10.8406473 0l.3908781-3.14114586-.0026242-.00065631c-.4643594-.10316665-.932989-.19442642-1.4058887-.27377932l-.0117072-.00215184c-.4465755-.07466904-.8975854-.13633018-1.351241-.18866306-.0372637-.00420686-.0741311-.01011368-.1114591-.01424522-.41546-.04626468-.8348402-.07900501-1.2558592-.10566638-.0719782-.00446508-.1430352-.01260982-.215217-.01648314-.4824111-.02656095-.9681533-.04022517-1.4572267-.04099266-.4891377 0-.9748728.01368215-1.4572054.04104646-.0721817.00387332-.1432388.01201806-.215217.01648314z" fill="#5cbfff" opacity=".75"/><path d="m16.1072425 29.8648649c-.0004009-1.4260314.2186634-2.8436459.6495143-4.2031528l-12.87332984-1.607658c-.85357829 3.8269366-.85357829 7.7946849 0 11.6216216l12.87332984-1.607658c-.4308509-1.359507-.6499152-2.7771215-.6495143-4.2031528z" fill="#eef6ff"/><path d="m16.1072425 29.8648649c-.0004009-1.4260314.2186634-2.8436459.6495143-4.2031528l-12.87332984-1.607658c-.85357829 3.8269366-.85357829 7.7946849 0 11.6216216l12.87332984-1.607658c-.4308509-1.359507-.6499152-2.7771215-.6495143-4.2031528z" fill="#27aafe"/><path d="m16.1825217 31.6216216c.0716496.9373846.2646297 1.861864.5742351 2.7508974l-12.7588935 1.5734269c-.21744223-.9738643-.37914796-1.9590329-.48434979-2.9508306z" fill="#0a77be" opacity=".7"/><path d="m0 3.07982641c.09777562-1.03644031.26624698-2.0653389.50428931-3.07982641l12.73895389 1.55671976c-.3192056.98667654-.5210796 2.00602176-.6016295 3.03787483z" fill="#5cbfff" opacity=".75" transform="translate(3.513514 24.054054)"/><path d="m30.1351351 57.8378378c-15.4490463 0-27.97297294-12.5239266-27.97297294-27.9729729 0-15.4490464 12.52392664-27.97297301 27.97297294-27.97297301 15.4490464 0 27.972973 12.52392661 27.972973 27.97297301-.0172896 15.4418791-12.5310938 27.9556833-27.972973 27.9729729zm0-53.79417876c-14.2606582 0-25.82120579 11.56054766-25.82120579 25.82120586s11.56054759 25.8212058 25.82120579 25.8212058 25.8212059-11.5605476 25.8212059-25.8212058c-.0163046-14.2538992-11.5673067-25.80490127-25.8212059-25.82120586z" fill="#28387c"/><path d="m34.5945946 13.5493861c-1.4853013-.506972-3.0313812-.7920039-4.5926099-.8466834-1.5610191.0434741-3.1084134.3171592-4.5965793.8129896l.3866073 3.2410645c2.7397329-.9084199 5.6802647-.9084199 8.4199976 0z" fill="#2c4b75" opacity=".2"/><g fill="#28387c"><path d="m34.3248148 17.8378378c-.0451552 0-.0902678-.0027715-.1350659-.0084395-.5920397-.0741107-1.0119756-.6140332-.9380706-1.2061016l1.622952-12.9758921c.0749337-.59124627.614469-1.01015641 1.2058414-.93624863.5913724.07390777 1.0112162.61271795.9383354 1.20422078l-1.6229736 12.97591375c-.0677178.5401992-.5265949.9457464-1.0710187.9465473z"/><path d="m25.6751636 17.8378378c-.544428-.0007955-1.0033112-.406344-1.0710295-.9465474l-1.6229412-12.97591366c-.0728808-.59150282.346963-1.130313.9383354-1.20422077.5913724-.07390778 1.1309077.34500236 1.2058414.93624863l1.622952 12.9758921c.073905.5920684-.3460309 1.1319909-.9380706 1.2061016-.0448052.0056689-.0899251.0084395-.1350875.0084395z"/><path d="m24.0545569 57.2972973c-.0451557 0-.0902689-.0027715-.1350674-.0084395-.5920465-.0741106-1.0119872-.6140323-.9380813-1.2060999l1.6229273-12.9758952c.0749345-.5912454.614476-1.010155 1.2058552-.9362473.5913791.0739077 1.0112277.6127171.938346 1.2042191l-1.6229705 12.9758736c-.0676976.5402074-.526573.9457746-1.0710093.9465892z"/><path d="m35.9454895 57.2972973c-.5443893-.0007952-1.00324-.4062935-1.0709535-.9464298l-1.622837-12.9742819c-.0740048-.5920366.345966-1.1319669.9380311-1.2059681s1.1320213.3459494 1.2060261.937986l1.622837 12.9742819c.0738987.5920099-.3460321 1.1318721-.9380473 1.2059519-.0447945.0056746-.0899039.00846-.1350564.00846z"/><path d="m43.2409932 26.7567568c-.5702547-.0009839-1.0416056-.4449669-1.0767469-1.0142286-.0351413-.5692618.3780226-1.0678643.9438252-1.1390001l12.9764049-1.6223328c.5915744-.0729016 1.1304499.3470616 1.2043666.9386022.0739167.5915407-.3450441 1.1312295-.936362 1.2061845l-12.9764048 1.6223328c-.0448038.0056696-.0899221.0084891-.135083.008442z"/><path d="m56.218324 37.027027c-.0451669 0-.0902912-.0027827-.1351008-.0084527l-12.9781164-1.622439c-.5904767-.0759607-1.0083192-.615209-.9344897-1.2060093.0738294-.5908002.6115219-1.0106179 1.2025297-.9389071l12.9781163 1.6224391c.5658773.0711404.9790957.5697756.9439498 1.1390746-.0351459.5692991-.506559 1.0133111-1.0768889 1.0142944z"/><path d="m3.78127591 37.027027c-.57011839-.0009837-1.0413567-.444923-1.07648959-1.0141288s.37793226-1.0677593.94359972-1.138888l12.97330376-1.6221733c.3833371-.0485984.7634335.1113056.9968207.4193556.2333873.3080501.2845225.717333.1341047 1.0733639-.1504178.3560308-.4794814.6045893-.8629849.6518563l-12.9733037 1.6221732c-.04479301.0056691-.0899006.0084882-.13505069.0084411z"/><path d="m16.7594068 26.7567568c-.0451442 0-.0902458-.0027821-.1350329-.0084508l-12.97159393-1.6220641c-.38401557-.0466078-.71379989-.2950849-.86460509-.6514397-.15080519-.3563547-.09960556-.7661771.13423156-1.074443.23383711-.308266.61460829-.4679079.99827878-.418538l12.97159388 1.6220642c.5655929.0711239.9786036.5696439.9434754 1.1388114-.0351283.5691674-.5063045 1.0130769-1.0763477 1.01406z"/><path d="m30.1351351 45.1351351c-8.2842712 0-15-6.7157287-15-15 0-8.2842712 6.7157288-15 15-15 8.2842713 0 15 6.7157288 15 15-.009288 8.280421-6.719579 14.990712-15 15zm0-27.8571428c-7.1008039 0-12.8571428 5.7563389-12.8571428 12.8571428 0 7.100804 5.7563389 12.8571429 12.8571428 12.8571429 7.100804 0 12.8571429-5.7563389 12.8571429-12.8571429-.0079359-7.0975141-5.7596287-12.8492069-12.8571429-12.8571428z"/></g></g></svg>