<svg height="119" viewBox="0 0 119 119" width="119" xmlns="http://www.w3.org/2000/svg"><g fill="none"><rect fill="#eff2f6" height="20" rx="2" width="28" x="81" y="49"/><path d="m99 49c1.060876 0 2.07831.4213853 2.828462 1.1715377.750153.7501524 1.17157 1.7675866 1.171538 2.8284623v12c.000032 1.0608757-.421385 2.0783099-1.171538 2.8284623-.750152.7501524-1.767586 1.1715377-2.828462 1.1715377h6c1.060876 0 2.07831-.4213853 2.828462-1.1715377.750153-.7501524 1.171538-1.7675866 1.171538-2.8284623v-12c0-1.0608757-.421385-2.0783099-1.171538-2.8284623-.750152-.7501524-1.767586-1.1715377-2.828462-1.1715377z" fill="#d5dbe3"/><path d="m105 63h-20c-1.0608757.0000318-2.0783099-.4213853-2.8284623-1.1715377s-1.1715377-1.7675866-1.1715377-2.8284623v6c0 1.0608757.4213853 2.0783099 1.1715377 2.8284623s1.7675866 1.1715377 2.8284623 1.1715377h20c1.060876 0 2.07831-.4213853 2.828462-1.1715377.750153-.7501524 1.171538-1.7675866 1.171538-2.8284623v-6c0 1.0608757-.421385 2.0783099-1.171538 2.8284623-.750152.7501524-1.767586 1.1715695-2.828462 1.1715377z" fill="#e9ecf1" opacity=".76"/><path d="m105 50h-20c-1.0608757 0-2.0783099.4213853-2.8284623 1.1715377s-1.1715377 1.7675866-1.1715377 2.8284623v6c0-1.0608757.4213853-2.0783099 1.1715377-2.8284623s1.7675866-1.1715695 2.8284623-1.1715377h20c1.060876-.0000318 2.07831.4213853 2.828462 1.1715377.750153.7501524 1.171538 1.7675866 1.171538 2.8284623v-6c0-1.0608757-.421385-2.0783099-1.171538-2.8284623-.750152-.7501524-1.767586-1.1715377-2.828462-1.1715377z" fill="#fff" opacity=".5"/><path d="m85.1923077 69.3478261c-2.1878973 0-3.9615385-1.7713951-3.9615385-3.9565218v-11.8695652c0-2.1851266 1.7736412-3.9565217 3.9615385-3.9565217h19.8076923v-23.7391304c0-2.0986809-.834702-4.1114158-2.320575-5.5954073s-3.50116-2.3176729-5.6025019-2.3176362h-87.15384618c-4.37579455 0-7.92307692-3.5427903-7.92307692-7.9130435v83.0869565c0 4.3702533 3.54728237 7.9130435 7.92307692 7.9130435h87.15384618c4.3757949 0 7.9230769-3.5427902 7.9230769-7.9130435v-23.7391304z" fill="#eff2f6"/><path d="m8 93.0869565v-75.4536787c-3.52555472-.8937341-5.99338916-4.0333451-6-7.6332778v83.0869565c0 4.3702533 3.581722 7.9130435 8 7.9130435h6c-4.418278 0-8-3.5427902-8-7.9130435z" fill="#bfc8d3"/><path d="m97.0769231 95h-87.15384618c-4.37579455 0-7.92307692-3.581722-7.92307692-8v6c0 4.418278 3.54728237 8 7.92307692 8h87.15384618c4.3757949 0 7.9230769-3.581722 7.9230769-8v-6c0 4.418278-3.547282 8-7.9230769 8z" fill="#d5dbe3"/><path d="m97.0769231 18h-87.15384618c-4.37579455 0-7.92307692-3.581722-7.92307692-8v6c0 4.418278 3.54728237 8 7.92307692 8h87.15384618c2.1013435-.0000424 4.1166339.8427987 5.6025079 2.3430989s2.320569 3.5351562 2.320569 5.6569011v-6c0-2.1217449-.834695-4.1566009-2.320569-5.6569011s-3.5011644-2.3431413-5.6025079-2.3430989z" fill="#fff" opacity=".5"/><g fill="#28387c"><path d="m91 63c-2.209139 0-4-1.790861-4-4s1.790861-4 4-4 4 1.790861 4 4c-.0025239 2.2080927-1.7919073 3.9974761-4 4z"/><path d="m57.462963 103h-47.55555559c-5.46904393-.006424-9.90097623-4.4331785-9.90740741-9.8958333v-83.12500008c0-1.09306355.8871395-1.97916662 1.98148148-1.97916662 1.09434199 0 1.98148145.88610307 1.98148148 1.97916662.00358195 3.27770758 2.66290327 5.93392228 5.94444445 5.93749998h87.18518519c5.4690444.0064237 9.9009764 4.4331785 9.9074074 9.8958334v23.75c0 1.0930635-.887139 1.9791666-1.981481 1.9791666s-1.981482-.8861031-1.981482-1.9791666v-23.75c-.003582-3.2777076-2.662903-5.9339223-5.9444444-5.9375h-87.18518519c-2.14482216.0023111-4.23186315-.694252-5.94444445-1.9839959v75.2131626c.00358195 3.2777076 2.66290327 5.9339222 5.94444445 5.9375h47.55555559c1.094342 0 1.9814814.8861031 1.9814814 1.9791663 0 1.093064-.8871394 1.979167-1.9814814 1.979167z"/><path d="m109 64c-.530475 0-1.039263-.2105315-1.414366-.5856341-.375103-.3751027-.585772-.8838907-.585634-1.4143659v-8c-.001103-1.1041125-.895888-1.9988976-2-2h-20c-1.1041125.0011024-1.9988975.8958875-2 2v8c0 1.1045694-.8954305 2-2 2s-2-.8954306-2-2v-8c.0036154-3.3122098 2.6877902-5.9963846 6-6h20c3.31221.0036154 5.996385 2.6877902 6 6v8c0 .5304752-.210531 1.0392632-.585634 1.4143659-.375103.3751026-.883891.5856341-1.414366.5856341z"/></g><path d="m97 18h-87.08333333c-4.37225427 0-7.91666667-3.581722-7.91666667-8s3.5444124-8 7.91666667-8h79.16666663c4.3722543 0 7.9166667 3.581722 7.9166667 8z" fill="#eff2f6"/><path d="m8 10c-.00005835-2.12174981.84277763-4.15661501 2.3430813-5.65691869 1.5003037-1.50030368 3.5351689-2.34308131 5.6569187-2.34308131h-6c-4.418278 0-8 3.581722-8 8s3.581722 8 8 8h6c-4.418278 0-8-3.581722-8-8z" fill="#bfc8d3"/><path d="m2.58713607 7c-.99677045 2.46427018-.71191483 5.2685366.75948729 7.4767866s3.93557458 3.5296683 6.57002181 3.5232134h87.08335483v-6.0000108h-87.08335483c-3.22306671-.0019908-6.1225984-1.9799714-7.3295091-4.9999892z" fill="#d5dbe3"/><path d="m97.02 20h-87.12c-5.46761902 0-9.9-4.4771525-9.9-10s4.43238098-10 9.9-10h79.2c5.4649549.00649128 9.8935736 4.47984351 9.9 10v8c0 .5304753-.2084261 1.0392633-.5797777 1.4143659-.3713517.3751027-.8750518.5856341-1.4002223.5856341zm-87.12-16c-3.28057141 0-5.94 2.6862915-5.94 6s2.65942859 6 5.94 6h85.14v-6c-.0035793-3.31220979-2.6609123-5.99638458-5.94-6z" fill="#28387c"/><g fill="#28387c" opacity=".5" transform="translate(8 24)"><path d="m89.0214639 20c-.9328924-.0092417-1.7299493-.6820353-1.9052124-1.6081847s.3198842-1.8487485 1.183555-2.205297c.8636709-.3565485 1.8562902-.0481428 2.372667.7371849s.4132726 1.8297341-.2464511 2.4964541c-.094128.0859357-.1934925.1658241-.2975092.2391951-.110007.07593-.2295545.1366706-.355472.180611-.1121577.0571052-.2318824.0975512-.355472.1200874-.1309201.0228726-.2632949.0362232-.3961053.0399492z"/><path d="m87.0432126 10.0027126c.0031293-1.10295717.8869921-1.99629467 1.9782513-1.99945754 1.0912593.00316287 1.9751221.89650037 1.9782514 1.99945754-.0034641 1.1028163-.8871314 1.9959562-1.9782514 1.9994574-1.0911199-.0035012-1.9747872-.8966411-1.9782513-1.9994574z"/><path d="m89.0214639 4.00434008c-.7998999-.00318928-1.5198534-.49103625-1.8265891-1.23771329s-.1403915-1.60646371.4220307-2.18135902c.473608-.47206818 1.1488368-.6745228 1.8005252-.53985352.1236634.02172873.2434563.06186764.355472.11910768.1259176.04394046.245465.10468105.355472.180611.1040683.07369999.2034779.15390124.2976477.24013484.7650295.78841261.7650295 2.05065708 0 2.83906968-.0985169.0799783-.1989923.16011656-.2975092.2391951-.110007.07592995-.2295545.13667054-.355472.180611-.1121577.05710516-.2318824.09755119-.355472.12008741-.1309162.02292615-.2632911.03633026-.3961053.04010912z"/><path d="m79.1302072 2.00488259c.0031293-1.10295712.8869921-1.99629462 1.9782513-1.99945749 1.0912592.00316287 1.9751221.89650037 1.9782514 1.99945749-.0034641 1.10281636-.8871314 1.99595623-1.9782514 1.99945749-1.0911199-.00350126-1.9747872-.89664113-1.9782513-1.99945749zm-7.9130054 0c.0031293-1.10295712.8869921-1.99629462 1.9782513-1.99945749 1.0912592.00316287 1.975122.89650037 1.9782514 1.99945749-.0034642 1.10281636-.8871314 1.99595623-1.9782514 1.99945749-1.0911199-.00350126-1.9747872-.89664113-1.9782513-1.99945749zm-7.9130055 0c.0031294-1.10295712.8869922-1.99629462 1.9782514-1.99945749 1.0912592.00316287 1.975122.89650037 1.9782514 1.99945749-.0034642 1.10281636-.8871315 1.99595623-1.9782514 1.99945749-1.0911199-.00350126-1.9747872-.89664113-1.9782514-1.99945749zm-7.9130054 0c.0031294-1.10295712.8869922-1.99629462 1.9782514-1.99945749 1.0912592.00316287 1.975122.89650037 1.9782513 1.99945749-.0034641 1.10281636-.8871314 1.99595623-1.9782513 1.99945749-1.09112-.00350126-1.9747872-.89664113-1.9782514-1.99945749zm-7.9130054 0c.0031294-1.10295712.8869922-1.99629462 1.9782514-1.99945749 1.0912592.00316287 1.975122.89650037 1.9782513 1.99945749-.0034641 1.10281636-.8871314 1.99595623-1.9782513 1.99945749-1.09112-.00350126-1.9747873-.89664113-1.9782514-1.99945749zm-7.9130054 0c.0031293-1.10295712.8869922-1.99629462 1.9782514-1.99945749 1.0912592.00316287 1.975122.89650037 1.9782513 1.99945749-.0034641 1.10281636-.8871314 1.99595623-1.9782513 1.99945749-1.09112-.00350126-1.9747873-.89664113-1.9782514-1.99945749zm-7.9130054 0c.0031293-1.10295712.8869921-1.99629462 1.9782514-1.99945749 1.0912592.00316287 1.975122.89650037 1.9782513 1.99945749-.0034641 1.10281636-.8871314 1.99595623-1.9782513 1.99945749-1.09112-.00350126-1.9747873-.89664113-1.9782514-1.99945749zm-7.9130054 0c.0031293-1.10295712.8869921-1.99629462 1.9782513-1.99945749 1.0912593.00316287 1.9751221.89650037 1.9782514 1.99945749-.0034641 1.10281636-.8871314 1.99595623-1.9782514 1.99945749-1.0911199-.00350126-1.9747872-.89664113-1.9782513-1.99945749zm-7.9130054 0c.0031293-1.10295712.8869921-1.99629462 1.9782513-1.99945749 1.0912592.00316287 1.9751221.89650037 1.9782514 1.99945749-.0034641 1.10281636-.8871314 1.99595623-1.9782514 1.99945749-1.0911199-.00350126-1.9747872-.89664113-1.9782513-1.99945749zm-7.91300544 0c.00312933-1.10295712.88699214-1.99629462 1.97825136-1.99945749 1.09125918.00316287 1.97512198.89650037 1.97825138 1.99945749-.0034642 1.10281636-.8871314 1.99595623-1.97825138 1.99945749-1.09111995-.00350126-1.97478723-.89664113-1.97825136-1.99945749z"/><path d="m1.97840441 4.00434008c-.13279755-.00364545-.26515932-.01701015-.39604593-.03998915-.12366469-.02223871-.24343124-.06269887-.35547198-.12008742-.12653197-.04390799-.24671786-.10464511-.35739089-.18061099-.10340395-.07338718-.202148-.15326262-.29564966-.23915511-.17875839-.19127764-.31975809-.41527804-.41543279-.65998093-.21121755-.48420976-.21121755-1.0358778 0-1.52008756.10030089-.24204276.24080214-.46497404.41543279-.65916115l.29557053-.24017483c.11067303-.07596588.23085892-.136703.35739089-.180611.11192684-.05751483.23178951-.09765469.35555111-.11906769.25344963-.06055233.51737602-.06055233.77082564 0 .1312164.01841492.25851064.05866175.37671841.11910768.12154026.04010001.23527517.10120997.33614447.180611.11784443.0799783.21830004.16011656.31683674.24017483.17461547.19413894.31511601.41701499.41543278.6590012.21121755.48420975.21121755 1.0358778 0 1.52008755-.0956747.24470289-.2366744.46870329-.41543278.65998093-.09699533.09077206-.2031954.17094753-.31683674.2391951-.1008693.07940103-.21460421.14051099-.33614447.180611-.11833193.06032997-.24555292.10088451-.37671841.12008741-.12373347.02299195-.24902527.03638738-.37477971.04006913z"/></g><g fill="#28387c" opacity=".5" transform="translate(8 91)"><path d="m49.0384865 4c-.1316128-.00458949-.2627902-.01791232-.392695-.03988343-.1226184-.02217992-.2413716-.06253312-.3524644-.11976994-.1254614-.04379192-.2446304-.10436846-.354367-.18013351-.0976834-.07898913-.1953864-.15875599-.2931482-.23852285-.1731587-.19397549-.3124666-.41658654-.4119178-.65823613-.1103737-.23641686-.1641461-.49603369-.1569211-.75762564-.0046343-.81016222.4733206-1.54265127 1.2093093-1.85332506.7359888-.31067378 1.5837085-.13777531 2.1448788.4374633.361143.3803615.5647796.88722084.5688389 1.41586176-.0031557.26052549-.0565215.51789466-.157078.75754587-.0994513.2416496-.2387591.46426064-.4119178.65823613-.3762924.36368463-.8733837.57015411-1.3925177.5783895z"/><path d="m39.230919 2.0058285c.0031028-1.10004121.8794873-1.99101698 1.9615135-1.99417149 1.0820261.00315451 1.9584106.89413028 1.9615135 1.99417149-.0034348 1.09990083-.8796255 1.9906795-1.9615135 1.9941715-1.0818881-.003492-1.9580787-.89427067-1.9615135-1.9941715zm-7.8460541 0c.0031029-1.10004121.8794874-1.99101698 1.9615135-1.99417149 1.0820262.00315451 1.9584107.89413028 1.9615135 1.99417149-.0034348 1.09990083-.8796254 1.9906795-1.9615135 1.9941715-1.081888-.003492-1.9580787-.89427067-1.9615135-1.9941715zm-7.846054 0c.0031028-1.10004121.8794874-1.99101698 1.9615135-1.99417149 1.0820262.00315451 1.9584107.89413028 1.9615135 1.99417149-.0034348 1.09990083-.8796254 1.9906795-1.9615135 1.9941715-1.0818881-.003492-1.9580787-.89427067-1.9615135-1.9941715zm-7.846054 0c.0031028-1.10004121.8794873-1.99101698 1.9615135-1.99417149 1.0820261.00315451 1.9584106.89413028 1.9615135 1.99417149-.0034348 1.09990083-.8796255 1.9906795-1.9615135 1.9941715-1.0818881-.003492-1.9580787-.89427067-1.9615135-1.9941715zm-7.84605406 0c.00310285-1.10004121.87948735-1.99101698 1.9615135-1.99417149 1.08202616.00315451 1.95841066.89413028 1.96151356 1.99417149-.0034349 1.09990083-.8796255 1.9906795-1.96151356 1.9941715-1.08188805-.003492-1.95807869-.89427067-1.9615135-1.9941715z"/><path d="m1.96216231 4c-.13167395-.00363582-.26291581-.01696518-.392695-.03988343-.12261838-.02217992-.24137159-.06253312-.35246436-.11976994-.1254614-.04379192-.2446304-.10436846-.35436703-.18013351-.10252906-.07319317-.20043765-.15285744-.2931482-.23852285-.3586488-.38200962-.56186371-.88781928-.56883891-1.41586177-.00726452-.26190144.0465627-.52183082.157078-.75852301.09941254-.24136327.23867114-.46367693.41176091-.65733875.09268024-.08598255.19056137-.16598547.29306974-.23953988.10973663-.07576505.22890563-.13634159.35436703-.18013351.11097983-.05736279.22982835-.09739653.35254282-.11875291.25130521-.06039226.51299853-.06039226.76430374 0 .13010618.01836623.25632339.05850666.37353101.11879279.12051192.039994.23328453.1009424.33330038.18013351.11272931.06838957.21805576.1486662.31423446.2395.17743142.19025351.31727017.41338119.41191784.65725898.10061271.23999773.15392688.49773414.15692108.75860278-.00785964.52785926-.21094782 1.03335348-.56883892 1.41586177-.09617465.09053208-.20147617.17049559-.314156.23856273-.10001585.07919112-.21278846.14013952-.33330038.18013351-.11733072.06017048-.24347531.10061781-.37353101.11976994-.12271545.02289507-.24697353.03621509-.3716872.03984355z"/></g><circle cx="93" cy="93" fill="#27aafe" r="24"/><path d="m116.791639 96c1.225154-9.1993849-3.02283-18.2709882-10.891553-23.258995-7.8687222-4.9880067-17.9314498-4.9880067-25.8001722 0-7.8687224 4.9880068-12.1167069 14.0596101-10.8915533 23.258995 1.5065312-11.9281343 11.7028388-20.8777894 23.7916395-20.8827524 12.088784.0050072 22.285066 8.9546402 23.791639 20.8827524z" fill="#5cbfff" opacity=".5"/><path d="m90.3343552 104c-.5142327 0-1.0087573-.19782-1.3808615-.552752l-7.3340084-7.0000914c-.799306-.7626379-.8290388-2.0288513-.06641-2.8281669.7626287-.7993156 2.0288271-.8290488 2.8281332-.0664109l5.6543064 5.3965504 11.3300131-16.1007901c.635885-.9028703 1.883283-1.1192986 2.786143-.4834063.90286.6358924 1.119285 1.8833061.483401 2.7861764l-12.6660149 18.0002348c-.3345458.476146-.8602761.782525-1.4394616.838871-.0648649.006665-.1300341.009785-.1952403.009785z" fill="#fff"/><path d="m69.2083605 90c-1.2251536 9.1993849 3.0228309 18.270988 10.8915533 23.258995s17.93145 4.988007 25.8001722 0c7.868723-4.988007 12.116707-14.0596101 10.891553-23.258995-1.506576 11.928135-11.702892 20.877775-23.791699 20.882752-12.0887778-.004993-22.2850512-8.95464-23.7915795-20.882752z" fill="#0a77be" opacity=".2"/><path d="m93.5 119c-14.0832611 0-25.5-11.416739-25.5-25.5 0-14.0832611 11.4167389-25.5 25.5-25.5 14.083261 0 25.5 11.4167389 25.5 25.5-.015934 14.076656-11.423344 25.484066-25.5 25.5zm0-47.0769231c-11.9166056 0-21.5769231 9.6603175-21.5769231 21.5769231 0 11.916606 9.6603175 21.576923 21.5769231 21.576923 11.916606 0 21.576923-9.660317 21.576923-21.576923-.013458-11.9110265-9.665896-21.5634648-21.576923-21.5769231z" fill="#28387c"/></g></svg>