<svg height="48" viewBox="0 0 48 48" width="48" xmlns="http://www.w3.org/2000/svg"><g fill="none"><rect fill="#eef6ff" height="46.243902" rx="4" width="46.243902" x=".585366" y="1.170732"/><path d="m43.1297561 44.0696864h-38.84487805c-2.04318417 0-3.6995122-1.6473425-3.6995122-3.6794425v2.7595819c0 2.0321 1.65632803 3.6794425 3.6995122 3.6794425h38.84487805c2.0431842 0 3.6995122-1.6473425 3.6995122-3.6794425v-2.7595819c0 2.0321-1.656328 3.6794425-3.6995122 3.6794425z" fill="#2c4b75" opacity=".2"/><path d="m43.1297561 1.17073171h-38.84487805c-2.04318417 0-3.6995122 1.64734252-3.6995122 3.67944251v2.75958188c0-2.03209999 1.65632803-3.67944251 3.6995122-3.67944251h38.84487805c2.0431842 0 3.6995122 1.64734252 3.6995122 3.67944251v-2.75958188c0-2.03209999-1.656328-3.67944251-3.6995122-3.67944251z" fill="#fff" opacity=".75"/><path d="m43.3846154 48h-38.76923078c-2.54776454-.002996-4.61238864-2.0676201-4.61538462-4.6153846v-38.76923078c.00299598-2.54776454 2.06762008-4.61238864 4.61538462-4.61538462h38.76923078c2.5477645.00299598 4.6123886 2.06762008 4.6153846 4.61538462v38.76923078c-.002996 2.5477645-2.0676201 4.6123886-4.6153846 4.6153846zm-38.76923078-46.15384615c-1.52871221.00166865-2.76756212 1.24051856-2.76923077 2.76923077v38.76923078c.00166865 1.5287122 1.24051856 2.7675621 2.76923077 2.7692308h38.76923078c1.5287122-.0016687 2.7675621-1.2405186 2.7692308-2.7692308v-38.76923078c-.0016687-1.52871221-1.2405186-2.76756212-2.7692308-2.76923077z" fill="#28387c"/><path d="m6.43902439 6.43902439v23.78048781h11.09114251v5.4878049h12.9396662v-5.4878049h11.0911425v-23.78048781z" fill="#27aafe"/><path d="m6.439024 6.439024h35.121951v12.292683h-35.121951z" fill="#2c4b75" opacity=".2"/><g fill="#fff"><path d="m15.5121951 14.6341463c-.4849329 0-.8780488-.4193235-.8780488-.9365853v-7.49268295c0-.51726182.3931159-.93658537.8780488-.93658537.484933 0 .8780488.41932355.8780488.93658537v7.49268295c0 .5172618-.3931158.9365853-.8780488.9365853z"/><path d="m32.4878049 14.6341463c-.484933 0-.8780488-.4193235-.8780488-.9365853v-7.49268295c0-.51726182.3931158-.93658537.8780488-.93658537.4849329 0 .8780488.41932355.8780488.93658537v7.49268295c0 .5172618-.3931159.9365853-.8780488.9365853z"/><path d="m21.3658537 14.6341463c-.484933 0-.8780488-.4193235-.8780488-.9365853v-7.49268295c0-.51726182.3931158-.93658537.8780488-.93658537.4849329 0 .8780487.41932355.8780487.93658537v7.49268295c0 .5172618-.3931158.9365853-.8780487.9365853z"/><path d="m26.6341463 14.6341463c-.4849329 0-.8780487-.4193235-.8780487-.9365853v-7.49268295c0-.51726182.3931158-.93658537.8780487-.93658537.484933 0 .8780488.41932355.8780488.93658537v7.49268295c0 .5172618-.3931158.9365853-.8780488.9365853z"/></g><path d="m30.1609756 36.8780488h-12.9073171c-.5091796 0-.9219512-.4162403-.9219512-.9296987v-4.6484936h-10.1414634c-.5091796 0-.92195122-.4162403-.92195122-.9296987v-24.17216641c0-.51345842.41277162-.92969871.92195122-.92969871h35.0341463c.5091796 0 .9219513.41624029.9219513.92969871v24.17216641c0 .5134584-.4127717.9296987-.9219513.9296987h-10.1414634v4.6484936c0 .5134584-.4127716.9296987-.9219512.9296987zm-11.9853658-1.8593974h11.0634146v-4.6484936c0-.5134584.4127716-.9296987.9219512-.9296987h10.1414634v-22.312769h-33.19024388v22.312769h10.14146338c.5091796 0 .9219513.4162403.9219513.9296987z" fill="#28387c"/></g></svg>