<svg height="64" viewBox="0 0 51 64" width="51" xmlns="http://www.w3.org/2000/svg"><g fill="none"><path d="m49.3268293 10.0943089c-16.0260163 0-24.0390244-9.15772353-24.0390244-9.15772353s-8.0130082 9.15772353-24.03902441 9.15772353v20.7346888c0 8.5741953 4.00308756 16.6567562 10.82328451 21.8530758l13.2157399 10.069146 13.2157398-10.069146c6.820197-5.1963196 10.8232846-13.2788805 10.8232846-21.8530758z" fill="#eef6ff"/><path d="m25.2878049 1.24878049s-8.0130082 9.13170451-24.03902441 9.13170451v3.0439052c16.02601621 0 24.03902441-8.10847411 24.03902441-8.10847411s8.0130081 8.10847411 24.0390244 8.10847411v-3.0439052c-16.0260163 0-24.0390244-9.13170451-24.0390244-9.13170451z" fill="#fff" opacity=".75"/><path d="m38.5035447 49.9022291-13.2157398 10.0468414-13.2157399-10.0468414c-6.82018433-5.1848194-10.82328451-13.2494697-10.82328451-21.8046681v3.4265392c0 8.5551985 4.00310018 16.6198487 10.82328451 21.8046681l13.2157399 10.0468415 13.2157398-10.0468415c6.8201844-5.1848194 10.8232846-13.2494696 10.8232846-21.8046681v-3.4265392c0 8.5551984-4.0031002 16.6198487-10.8232846 21.8046681z" fill="#c7d3e3" opacity=".55"/><path d="m25.2878049 7.1804878c5.6562374 4.2036177 12.3508153 6.7687369 19.3560975 7.4165539v16.3800038c-.0200009 7.1374588-3.3338926 13.8617124-8.9710957 18.2033481l-10.3850018 7.9513137-10.3848879-7.9513137c-5.63727358-4.3415895-8.95121628-11.0658613-8.97120968-18.2033481v-16.3800038c7.00528138-.647821 13.69985818-3.2129398 19.35609758-7.4165539" fill="#27aafe"/><path d="m25.2878049 7.1804878c5.6562374 4.2036177 12.3508153 6.7687369 19.3560975 7.4165539v16.3800038c-.0200009 7.1374588-3.3338926 13.8617124-8.9710957 18.2033481l-10.3850018 7.9513137z" fill="#0a77be" opacity=".2"/><path d="m35.672818 45.7202775-10.3850131 7.9704623-10.3848766-7.9704279c-5.6372969-4.3520231-8.95124759-11.0924797-8.97122098-18.2471412v3.4409676c.0199875 7.1546453 3.33393673 13.895082 8.97122098 18.2470953l10.3848766 7.9704737 10.3850131-7.9704278c5.6372126-4.3520788 8.951102-11.0925135 8.9710844-18.2471412v-3.4409676c-.019993 7.1546156-3.3338813 13.8950354-8.9710844 18.2471068z" fill="#5cbfff" opacity=".6"/><path d="m25.1317074 64c-.2502754 0-.4936378-.0821571-.6927784-.2338212l-13.1883432-10.053216c-7.0699228-5.4203386-11.22592496-13.8157406-11.2505858-22.7269348v-20.7012537c0-.30313406.12025034-.59387515.33449967-.80822328s.5048564-.33473274.8078507-.33465389c15.29789873 0 23.05338363-8.6652945 23.12924713-8.75294175.2171471-.2471714.5301246-.38895538.8590475-.38895538h.0022847c.3279351 0 .6400406.14105747.8567627.38728678.0779883.08760153 7.8937094 8.75461035 23.1313719 8.75461035.3029943-.00007885.5936014.12030576.8078507.33465389.2142494.21434813.3344997.50508922.3344997.80822328v20.7012537c-.0246608 8.9111942-4.180663 17.3065962-11.2505858 22.7269348l-13.1883432 10.053216c-.1991405.1516641-.442503.2338212-.6927783.2338212zm-22.8470067-52.5874117v19.5734397c.02297873 8.198453 3.84682592 15.9222389 10.3514304 20.9088459l12.4955763 9.5252867 12.4955762-9.5252867c6.5046045-4.986607 10.3284517-12.7103929 10.3514304-20.9088459v-19.5734397c-12.8458666-.339846-20.4105904-6.34441961-22.8470066-8.64412842-2.4364163 2.29970881-10.0011401 8.30427102-22.8470067 8.64412842z" fill="#28387c"/><path d="m22.2398501 41.2097561c-.3342913-.0002387-.6518759-.1462245-.8697899-.399821l-6.1041095-7.1257854c-.2693242-.3100687-.3519562-.7407112-.2165373-1.1284991.135419-.3877878.4681324-.673282.8718756-.7481377s.8166317.0724008 1.0819746.3858858l5.1225637 5.9783156 11.373197-17.0660303c.3533855-.5192124 1.0588899-.656777 1.5813325-.30834.5224426.3484371.6668269 1.052825.323626 1.5788299l-12.2116535 18.323602c-.1985127.2984373-.5254912.4864165-.8831955.507747-.0234915.001672-.0469142.0022332-.0692837.0022332z" fill="#fff"/><path d="m25.2878049 58.3804878c-.2507936 0-.4946598-.0820927-.6942127-.2336378l-10.4410526-7.9358747c-5.95040196-4.5500306-9.44837551-11.5964115-9.46961277-19.0757587v-16.3473842c0-.5857526.44432584-1.0764855 1.02845815-1.1358482 6.83595352-.6209227 13.36939842-3.104029 18.88666012-7.17807915.4084476-.30667015.9710261-.30667015 1.3794737 0 5.5172618 4.07405015 12.0507067 6.55715645 18.8866602 7.17807915.5841504.0593409 1.0285039.5500798 1.0285039 1.1358482v16.3473842c-.0212372 7.4793472-3.5192108 14.5257281-9.4696127 19.0757587l-10.4410526 7.9358747c-.1995529.1515451-.4434192.2336378-.6942127.2336378zm-18.31544718-42.5733463v15.3280751c.0189325 6.7673042 3.18419208 13.1428466 8.56859578 17.2590731l9.7468514 7.4083824 9.7468514-7.408371c5.3844069-4.1162289 8.5496668-10.4917763 8.5685957-17.2590845v-15.3280751c-6.5957783-.7717415-12.8926329-3.1797559-18.3154471-7.00410985-5.4228143 3.82435395-11.7196689 6.23236835-18.31544718 7.00410985z" fill="#28387c"/></g></svg>