<svg height="64" viewBox="0 0 64 64" width="64" xmlns="http://www.w3.org/2000/svg"><g fill="none"><path d="m36.574399 42.2906168h13.5260288c6.938.1155497 12.6571432-5.4124193 12.7767652-12.3496753-.0567296-5.3414001-3.5317345-10.0447263-8.6211525-11.6684993.066916-.5676783.1013944-1.1387109.1032671-1.7103157-.1494648-8.67159156-7.2984226-15.5815868-15.9709422-15.4370941-6.5685664-.05502962-12.4990059 3.92249595-14.9401013 10.020275-1.5175685-1.16338627-3.3775788-1.79178631-5.289835-1.78715812-4.6253067-.07700115-8.43802603 3.60830642-8.51775957 8.23311692 0 .2379599.01635347.4718033.03682391.7047319-5.05581554 1.6431075-8.49863245 6.3295923-8.55468642 11.6449434.11954683 6.9372796 5.83872105 12.4652885 12.77674228 12.3496753h13.5260517" fill="#eef6ff"/><path d="m50.1004164 38.8281471h-36.2009014c-6.27752634.0824819-11.66268436-4.4997265-12.64311266-10.7579717-.08672099.5811459-.13137097 1.1678962-.13359532 1.7555912.11955944 7.0019497 5.83870506 12.5814936 12.77670798 12.4648345h36.2009014c6.9380044.1166337 12.6571547-5.4628848 12.7767766-12.4648345-.0023036-.5874901-.0469994-1.1740308-.1337326-1.7549679-.9807271 6.257955-6.3657547 10.8398119-12.643044 10.7573484z" fill="#c7d3e3" opacity=".55"/><path d="m9.67747057 21.5953999c-.02044757-.2314924-.03678961-.4638028-.03678961-.7002831.07971481-4.5953902 3.89243134-8.257262 8.51773674-8.1807444 1.9122551-.004605 3.7722675.619785 5.2898464 1.7757556 2.4411157-6.0589592 8.3715446-10.01115181 14.9400899-9.95646588 8.6725284-.14358624 15.8215003 6.72245678 15.970965 15.33889568-.0018766.5679582-.0363665 1.1353475-.1033013 1.699402 4.4755997 1.435368 7.7575513 5.2506308 8.4874427 9.8666367.084504-.5564802.1291935-1.1182125.1337326-1.6809725-.0567419-5.3074419-3.5317551-9.9808648-8.6211868-11.5943304.0669378-.5640467.1014315-1.1314284.1033128-1.6993793-.1494647-8.61643886-7.2984366-15.48248191-15.970965-15.33889567-6.5685566-.05467856-12.4989888 3.89753427-14.9400899 9.95651127-1.5175774-1.1559746-3.37759-1.78036868-5.2898464-1.77576689-4.6253054-.07651757-8.43802193 3.58535419-8.51773674 8.18074439 0 .2364803.01633061.4688021.03678961.7002831-5.0557903 1.6326652-8.49859117 6.2893154-8.55466355 11.5708335.00452943.5625403.04917299 1.1240547.13359532 1.6803248.72613356-4.5907103 3.97776719-8.3912214 8.42106823-9.8425489z" fill="#fff" opacity=".75"/><path d="m33.3099505 53.5034644c-.0011908-.3026707.1167175-.5932965.3275422-.8073188.2108247-.2140222.4971085-.3337189.7952572-.3325101.2981202-.0011137.5843495.1186134.7951538.332615.2108044.2140015.3287427.5045721.3276443.8072139-.0019739.6286764-.5035144 1.1378237-1.1227981 1.1398197-.6193628-.0018031-1.1210143-.511063-1.1227994-1.1398197zm.000009-4.5592787c.0017761-.6287566.5034276-1.1380166 1.1227904-1.1398196.6192837.0019959 1.1208242.5111432 1.1227903 1.1398196-.0019661.6286765-.5035066 1.1378238-1.1227903 1.1398197-.6193628-.001803-1.1210143-.511063-1.1227904-1.1398197zm0-4.5592786c.0017761-.6287567.5034276-1.1380166 1.1227904-1.1398197.6192837.001996 1.1208242.5111433 1.1227903 1.1398197-.0019661.6286764-.5035066 1.1378237-1.1227903 1.1398197-.6193628-.0018031-1.1210143-.5110631-1.1227904-1.1398197zm0-4.5592787c.0017761-.6287566.5034276-1.1380166 1.1227904-1.1398196.6192837.0019959 1.1208242.5111432 1.1227903 1.1398196-.0019661.6286764-.5035066 1.1378238-1.1227903 1.1398197-.6193628-.001803-1.1210143-.511063-1.1227904-1.1398197zm0-4.5592786c.0017761-.6287567.5034276-1.1380166 1.1227904-1.1398197.6192837.001996 1.1208242.5111433 1.1227903 1.1398197-.0019661.6286764-.5035066 1.1378237-1.1227903 1.1398196-.6193628-.001803-1.1210143-.511063-1.1227904-1.1398196zm0-4.5592787c.0017761-.6287566.5034276-1.1380166 1.1227904-1.1398196.6192837.0019959 1.1208242.5111432 1.1227903 1.1398196-.0019661.6286764-.5035066 1.1378237-1.1227903 1.1398197-.6193628-.0018031-1.1210143-.511063-1.1227904-1.1398197z" fill="#27aafe"/><g fill="#28387c"><path d="m62.8634716 31.0643275c-.30145 0-.590576-.1200302-.8037334-.3338872-.2131574-.2138571-.3328733-.5039321-.3327949-.8063716-.1263094-6.284598-5.296785-11.2820559-11.5611752-11.174308-.6276873 0-1.1365283-.5105112-1.1365283-1.1402588 0-.6297475.508841-1.1402587 1.1365283-1.1402587 7.5194646-.1070742 13.7072352 5.9109957 13.8342319 13.4548255 0 .3024395-.1196375.5925145-.3327949.8063716-.2131574.213857-.5022834.3338872-.8037335.3338872z"/><path d="m1.13652836 31.0643275c-.30145008 0-.59057607-.1200302-.80373347-.3338872-.2131574-.2138571-.33279489-.5039321-.33279489-.8063716.12699675-7.5438298 6.31476732-13.5618997 13.8342319-13.4548255.6276873 0 1.1365283.5105112 1.1365283 1.1402587 0 .6297476-.508841 1.1402588-1.1365283 1.1402588-6.26439017-.1077479-11.43486576 4.88971-11.56117522 11.174308.00007841.3024395-.11963745.5925145-.33279485.8063716-.2131574.213857-.50228339.3338872-.80373347.3338872z"/><path d="m25.8173657 14.9707602c-.4155074.0005172-.797849-.2303414-.9958631-.6013048-1.3002945-2.3894804-3.7857302-3.8628577-6.4739414-3.8377813-.6247373 0-1.1311869-.5143148-1.1311869-1.14875429 0-.63443948.5064496-1.14875429 1.1311869-1.14875429 3.5184717-.02541852 6.7676117 1.90959708 8.4634617 5.04038918.1895952.3558734.1809518.7867749-.0227569 1.1345122-.2037087.3477372-.5724684.5610749-.9709003.5616933z"/><path d="m29.753251 64c-.3081115.000337-.6036533-.1181507-.8211947-.3292317l-4.6460802-4.4946203c-.4465498-.4398896-.4432456-1.1457265.0074043-1.5816855.4506499-.4359589 1.1802721-.4391554 1.6349851-.0071628l3.8248855 3.7001288 3.8248855-3.7001962c.4543771-.4340485 1.1857471-.4318072 1.6372725.0050172.4515255.4368245.4538112 1.1443523.0051169 1.5838985l-4.6460802 4.4946203c-.2175414.211081-.5130831.3295687-.8211947.3292317z"/><path d="m29.7142857 64c-.3031287 0-.5938647-.1203003-.8082091-.3346387s-.3347269-.5050663-.334648-.8081866v-15.9995537c-.0006266-1.8910588-1.5318863-3.4247707-3.4229943-3.4284758h-11.2371657c-7.56133718.1073151-13.78356471-5.9243001-13.9112686-13.4851096.05023458-5.4844129 3.41527962-10.3927487 8.51283429-12.417025.12698675-5.2207979 4.43255431-9.36674844 9.65457141-9.29665501 1.6740558-.00610399 3.3215281.41858252 4.784 1.23322275 2.9414244-5.81826914 8.9134382-9.47962121 15.4330857-9.46179322 9.2938557-.1338639 16.9435627 7.27777737 17.1032343 16.57096638 0 .3069057-.0100457.6194113-.0301371.9408194 5.1154783 2.0144794 8.4955338 6.9329572 8.5424114 12.4304647-.1277039 7.5608095-6.3499314 13.5924247-13.9112686 13.4851096h-6.66016c-3.1543751-.0037092-5.7105764-2.5598392-5.7142857-5.7141263v-15.9995537c0-.631165.5116746-1.1428253 1.1428572-1.1428253.6311825 0 1.1428571.5116603 1.1428571 1.1428253v15.9995537c.002066 1.8926385 1.5358801 3.4264099 3.4285714 3.4284758h6.66016c6.2992738.1079904 11.4985415-4.9007158 11.6255543-11.1994591-.057479-4.8458229-3.2150152-9.1089852-7.8337028-10.5767107-.5127788-.1707548-.8358918-.6772957-.7745486-1.2142518.0621959-.5245008.0942485-1.0521378.096-1.5803102-.15857-8.03131232-6.7855752-14.42028913-14.8175429-14.28532725-6.0865717-.03382621-11.5793811 3.64459599-13.86552 9.28545525-.1303815.3352814-.4110344.589598-.7575074.6864234s-.7183152.0248551-1.0036354-.1942542c-1.3156514-1.0117708-2.9306963-1.55678-4.5904-1.5490654-3.9893873-.0722798-7.2852372 3.0967025-7.3694172 7.0857452 0 .2042343.0145143.4040116.0323657.6037774.0461078.5250607-.2726209 1.01363-.77176 1.183007-4.58595318 1.4884163-7.71274378 5.7345614-7.77290281 10.5555113.12701282 6.2987433 5.32628049 11.3074495 11.62555431 11.1994591h11.2371657c3.1528778.0051413 5.7066458 2.5613329 5.7087086 5.7141263v15.9995537c.0000788.3031203-.1203037.5938482-.3346481.8081866s-.5050804.3346387-.8082091.3346387z"/><path d="m43.3773784 27.3216374c-.3079146.0003368-.6032674-.1180622-.8206697-.328985l-3.8224406-3.6973569-3.8224406 3.6974243c-.4540866.4337232-1.1849891.4314837-1.6362259-.0050135-.4512368-.4364973-.453521-1.1434951-.0051136-1.582712l4.6431104-4.4912533c.2176264-.2106147.5128569-.3289457.8207045-.3289457.3078477 0 .6030782.118331.8207046.3289457l4.6431103 4.4912533c.3318845.3211269.4311428.8040005.2515016 1.2235098-.1796411.4195093-.6028146.6930629-1.072241.6931333z"/></g></g></svg>