<?xml version="1.0" encoding="UTF-8"?>
<svg width="64px" height="64px" viewBox="0 0 64 64" version="1.1" xmlns="http://www.w3.org/2000/svg" xmlns:xlink="http://www.w3.org/1999/xlink">
    <title>icon-domains</title>
    <defs>
        <linearGradient x1="50%" y1="79.8800809%" x2="50%" y2="-29.0909774%" id="linearGradient-1">
            <stop stop-color="#01D0FF" offset="0%"></stop>
            <stop stop-color="#2BA1F7" offset="52%"></stop>
            <stop stop-color="#2878C7" offset="100%"></stop>
        </linearGradient>
        <linearGradient x1="50%" y1="79.8800809%" x2="50%" y2="-29.0909774%" id="linearGradient-2">
            <stop stop-color="#01D0FF" offset="0%"></stop>
            <stop stop-color="#2290E0" offset="51.6881556%"></stop>
            <stop stop-color="#2067AD" offset="100%"></stop>
        </linearGradient>
        <linearGradient x1="50.0152787%" y1="101.463083%" x2="50.0152787%" y2="-134.263355%" id="linearGradient-3">
            <stop stop-color="#273A9B" offset="0%"></stop>
            <stop stop-color="#202F65" offset="56%"></stop>
            <stop stop-color="#021E2F" offset="100%"></stop>
        </linearGradient>
        <linearGradient x1="49.8656879%" y1="178.428162%" x2="49.8656879%" y2="-56.5697912%" id="linearGradient-4">
            <stop stop-color="#273A9B" offset="0%"></stop>
            <stop stop-color="#202F65" offset="56%"></stop>
            <stop stop-color="#021E2F" offset="100%"></stop>
        </linearGradient>
        <linearGradient x1="50%" y1="264.771988%" x2="50%" y2="-218.464985%" id="linearGradient-5">
            <stop stop-color="#273A9B" offset="0%"></stop>
            <stop stop-color="#202F65" offset="56%"></stop>
            <stop stop-color="#021E2F" offset="100%"></stop>
        </linearGradient>
        <linearGradient x1="50.0983599%" y1="76.747587%" x2="50.0983599%" y2="-125.884762%" id="linearGradient-6">
            <stop stop-color="#273A9B" offset="0%"></stop>
            <stop stop-color="#202F65" offset="56%"></stop>
            <stop stop-color="#021E2F" offset="100%"></stop>
        </linearGradient>
        <linearGradient x1="49.9733335%" y1="139.781644%" x2="49.9733335%" y2="-56.0900716%" id="linearGradient-7">
            <stop stop-color="#273A9B" offset="0%"></stop>
            <stop stop-color="#202F65" offset="56%"></stop>
            <stop stop-color="#021E2F" offset="100%"></stop>
        </linearGradient>
        <linearGradient x1="50%" y1="946.153846%" x2="50%" y2="-467.307692%" id="linearGradient-8">
            <stop stop-color="#273A9B" offset="0%"></stop>
            <stop stop-color="#202F65" offset="56%"></stop>
            <stop stop-color="#021E2F" offset="100%"></stop>
        </linearGradient>
        <linearGradient x1="50%" y1="942.038217%" x2="50%" y2="-465.286624%" id="linearGradient-9">
            <stop stop-color="#273A9B" offset="0%"></stop>
            <stop stop-color="#202F65" offset="56%"></stop>
            <stop stop-color="#021E2F" offset="100%"></stop>
        </linearGradient>
        <linearGradient x1="50%" y1="129.89169%" x2="50%" y2="-19.333718%" id="linearGradient-10">
            <stop stop-color="#E587E8" offset="0%"></stop>
            <stop stop-color="#D662DB" offset="49%"></stop>
            <stop stop-color="#A13AA6" offset="100%"></stop>
        </linearGradient>
        <linearGradient x1="46.0925182%" y1="188.793016%" x2="49.6815649%" y2="43.4366236%" id="linearGradient-11">
            <stop stop-color="#FC9FFF" offset="0%"></stop>
            <stop stop-color="#FCB1FF" offset="52.5868663%"></stop>
            <stop stop-color="#FA88FF" offset="100%"></stop>
        </linearGradient>
        <linearGradient x1="50.0530999%" y1="144.381671%" x2="50.0530999%" y2="-398.840209%" id="linearGradient-12">
            <stop stop-color="#FFFFFF" offset="0%"></stop>
            <stop stop-color="#CCE2E6" offset="41%"></stop>
            <stop stop-color="#8FA1BB" offset="100%"></stop>
        </linearGradient>
    </defs>
    <g id="Pricing" stroke="none" stroke-width="1" fill="none" fill-rule="evenodd">
        <g id="Desktop-HD" transform="translate(-369.000000, -1492.000000)" fill-rule="nonzero">
            <g id="Left" transform="translate(341.000000, 700.000000)">
                <g id="icon-domains" transform="translate(28.000000, 792.000000)">
                    <circle id="Oval" fill="url(#linearGradient-1)" cx="29.7142857" cy="29.7142857" r="29.7142857"></circle>
                    <circle id="Oval" fill="url(#linearGradient-2)" cx="29.7142857" cy="29.7142857" r="25.4628571"></circle>
                    <path d="M21.2266667,20.0838095 L21.2266667,1.24952381 C12.2231115,3.92860061 5.01901629,10.7112919 1.80275981,19.5372283 C-1.41349667,28.3631646 -0.262294663,38.190607 4.90666667,46.0342857 L8.99047619,41.9504762 C10.0347906,40.9360636 10.6370658,39.5508305 10.6666667,38.0952381 L10.6666667,35.2304762 C10.666023,34.4182178 10.9896543,33.6393088 11.5657143,33.0666667 L18.9714286,25.6609524 C20.4313254,24.1734212 21.2422652,22.1679891 21.2266667,20.0838095 Z" id="Path" fill="url(#linearGradient-3)"></path>
                    <path d="M4.25142602,29.7142857 C4.2493301,34.3882956 5.54151722,38.9716042 7.9847619,42.9561905 L8.99047619,41.9504762 C10.0347906,40.9360636 10.6370658,39.5508305 10.6666667,38.0952381 L10.6666667,35.2304762 C10.666023,34.4182178 10.9896543,33.6393088 11.5657143,33.0666667 L18.9714286,25.6609524 C20.4480699,24.1808709 21.2758239,22.1745268 21.2723916,20.0838095 L21.2723916,5.72952381 C11.085421,9.30449522 4.26295511,18.9182475 4.25142602,29.7142857 L4.25142602,29.7142857 Z" id="Path" fill="url(#linearGradient-4)"></path>
                    <path d="M23.8171429,34.3771429 C22.1578473,32.7225941 19.4726289,32.7225941 17.8133333,34.3771429 L17.8133333,34.3771429 C16.1587846,36.0364384 16.1587846,38.7216569 17.8133333,40.3809524 L17.8133333,40.3809524 C19.4726289,42.0355011 22.1578473,42.0355011 23.8171429,40.3809524 L23.8171429,40.3809524 C25.4716916,38.7216569 25.4716916,36.0364384 23.8171429,34.3771429 L23.8171429,34.3771429 Z" id="Path" fill="url(#linearGradient-5)"></path>
                    <path d="M53.0590476,39.2685714 L53.0590476,37.2266667 C53.0565677,36.4901854 53.3471322,35.7829626 53.8666667,35.2609524 L59.4285743,29.7142857 C59.4325289,20.7882257 55.4134055,12.3357516 48.487619,6.7047619 L41.0514286,14.1409524 C40.5828302,14.6098295 40.3197212,15.2456761 40.32,15.9085714 L40.32,26.5752381 C40.3197212,27.2381334 40.5828302,27.87398 41.0514286,28.3428571 L43.7790476,31.0704762 C44.431012,31.7206586 44.7982198,32.6030535 44.8,33.5238095 L44.8,38.9028571 C44.7982198,39.8236131 44.431012,40.706008 43.7790476,41.3561905 L37.6838095,47.4514286 C36.701261,48.4448044 36.1531943,49.787568 36.1599374,51.1847619 L36.1599374,58.8038095 C44.6523675,56.9158631 51.8916594,51.4028639 55.9695238,43.7180952 L53.76,41.1428571 C53.3012416,40.6270971 53.0513073,39.9587944 53.0590476,39.2685714 L53.0590476,39.2685714 Z" id="Path" fill="url(#linearGradient-6)"></path>
                    <path d="M45.4552381,9.72190476 L41.0514286,14.1257143 C40.5828302,14.5945914 40.3197212,15.230438 40.32,15.8933333 L40.32,26.56 C40.3197212,27.2228953 40.5828302,27.8587419 41.0514286,28.327619 L43.7790476,31.0552381 C44.4347529,31.7091492 44.8022701,32.5977728 44.8,33.5238095 L44.8,38.9028571 C44.7982198,39.8236131 44.431012,40.706008 43.7790476,41.3561905 L37.6838095,47.4514286 C36.701261,48.4448044 36.1531943,49.787568 36.1599374,51.1847619 L36.1599374,54.3847619 C43.7583934,52.3851279 50.0102328,46.9934787 53.1047619,39.7714286 C53.0896179,39.6041516 53.0896179,39.4358484 53.1047619,39.2685714 L53.1047619,37.2266667 C53.102282,36.4901854 53.3928464,35.7829626 53.912381,35.2609524 L54.7657143,34.407619 C56.5493822,25.0928772 52.9727354,15.5629959 45.5009524,9.72190476 L45.4552381,9.72190476 Z" id="Path" fill="url(#linearGradient-7)"></path>
                    <circle id="Oval" fill="url(#linearGradient-8)" cx="29.7142857" cy="29.7142857" r="1.5847619"></circle>
                    <circle id="Oval" fill="url(#linearGradient-9)" cx="30.887619" cy="17.8438095" r="2.39238095"></circle>
                    <circle id="Oval" fill="url(#linearGradient-10)" cx="50.2857143" cy="50.2857143" r="13.7142857"></circle>
                    <path d="M57.9047619,38.9180952 C52.4711177,35.3592771 45.2861279,36.1003045 40.6932162,40.6932162 C36.1003045,45.2861279 35.3592771,52.4711177 38.9180952,57.9047619 C47.9047301,54.9529127 54.9529127,47.9047301 57.9047619,38.9180952 L57.9047619,38.9180952 Z" id="Path" fill="url(#linearGradient-11)"></path>
                    <path d="M56.8838095,45.592381 L56.3809524,45.0742857 C56.0203932,44.7104297 55.5293871,44.5057381 55.0171429,44.5057381 C54.5048987,44.5057381 54.0138925,44.7104297 53.6533333,45.0742857 L48.3504762,50.3771429 L46.9180952,48.9447619 C46.557536,48.5809059 46.0665299,48.3762143 45.5542857,48.3762143 C45.0420415,48.3762143 44.5510354,48.5809059 44.1904762,48.9447619 L43.672381,49.4628571 C43.308525,49.8234163 43.1038333,50.3144225 43.1038333,50.8266667 C43.1038333,51.3389109 43.308525,51.829917 43.672381,52.1904762 L46.4609524,54.9790476 L46.4609524,54.9790476 L46.9790476,55.4971429 C47.3396068,55.8609989 47.8306129,56.0656905 48.3428571,56.0656905 C48.8551013,56.0656905 49.3461075,55.8609989 49.7066667,55.4971429 L50.2247619,54.9790476 L50.2247619,54.9790476 L56.8838095,48.32 C57.2476655,47.9594408 57.4523571,47.4684347 57.4523571,46.9561905 C57.4523571,46.4439463 57.2476655,45.9529401 56.8838095,45.592381 Z" id="Path" fill="url(#linearGradient-12)"></path>
                </g>
            </g>
        </g>
    </g>
</svg>