<?xml version="1.0" encoding="UTF-8"?>
<svg width="177px" height="176px" viewBox="0 0 177 176" version="1.1" xmlns="http://www.w3.org/2000/svg" xmlns:xlink="http://www.w3.org/1999/xlink">
    <title>icon-hosting</title>
    <defs>
        <linearGradient x1="50%" y1="112.370062%" x2="50%" y2="-27.3388773%" id="linearGradient-1">
            <stop stop-color="#321F6C" offset="0%"></stop>
            <stop stop-color="#241550" offset="48.7188593%"></stop>
            <stop stop-color="#1A0E3F" offset="100%"></stop>
        </linearGradient>
        <linearGradient x1="50%" y1="106.408493%" x2="50%" y2="-7.17241379%" id="linearGradient-2">
            <stop stop-color="#E689E9" offset="0%"></stop>
            <stop stop-color="#D764DC" offset="49%"></stop>
            <stop stop-color="#A13AA6" offset="100%"></stop>
        </linearGradient>
        <linearGradient x1="-67.122916%" y1="133.704391%" x2="50%" y2="4.76190476%" id="linearGradient-3">
            <stop stop-color="#E588E8" offset="0%"></stop>
            <stop stop-color="#D763DC" offset="49%"></stop>
            <stop stop-color="#A13AA6" offset="100%"></stop>
        </linearGradient>
        <linearGradient x1="50%" y1="112.370062%" x2="50%" y2="-27.3388773%" id="linearGradient-4">
            <stop stop-color="#321F6C" offset="0%"></stop>
            <stop stop-color="#241550" offset="48.7188593%"></stop>
            <stop stop-color="#1A0E3F" offset="100%"></stop>
        </linearGradient>
        <linearGradient x1="49.9470899%" y1="139.6%" x2="49.9470899%" y2="19%" id="linearGradient-5">
            <stop stop-color="#FFFFFF" offset="0%"></stop>
            <stop stop-color="#CCE2E6" offset="52%"></stop>
            <stop stop-color="#8FA1BB" offset="100%"></stop>
        </linearGradient>
        <linearGradient x1="50.200165%" y1="261.254364%" x2="50.200165%" y2="-402.797982%" id="linearGradient-6">
            <stop stop-color="#273A9B" offset="0%"></stop>
            <stop stop-color="#202F65" offset="56%"></stop>
            <stop stop-color="#021E2F" offset="100%"></stop>
        </linearGradient>
        <linearGradient x1="49.799835%" y1="261.254364%" x2="49.799835%" y2="-402.797982%" id="linearGradient-7">
            <stop stop-color="#273A9B" offset="0%"></stop>
            <stop stop-color="#202F65" offset="56%"></stop>
            <stop stop-color="#021E2F" offset="100%"></stop>
        </linearGradient>
        <linearGradient x1="50.3946663%" y1="153.387694%" x2="50.3946663%" y2="-69.0155325%" id="linearGradient-8">
            <stop stop-color="#27E9DE" offset="0%"></stop>
            <stop stop-color="#03A4EC" offset="52%"></stop>
            <stop stop-color="#2547A8" offset="100%"></stop>
        </linearGradient>
        <linearGradient x1="50%" y1="156.503785%" x2="50%" y2="-39.3668273%" id="linearGradient-9">
            <stop stop-color="#27E9DE" offset="0%"></stop>
            <stop stop-color="#03A4EC" offset="52%"></stop>
            <stop stop-color="#2547A8" offset="100%"></stop>
        </linearGradient>
        <linearGradient x1="50%" y1="125.555556%" x2="50%" y2="-131.111111%" id="linearGradient-10">
            <stop stop-color="#FFFFFF" offset="0%"></stop>
            <stop stop-color="#CCE2E6" offset="52%"></stop>
            <stop stop-color="#8FA1BB" offset="100%"></stop>
        </linearGradient>
        <linearGradient x1="50%" y1="-24.0740741%" x2="50%" y2="-115.123457%" id="linearGradient-11">
            <stop stop-color="#FFFFFF" offset="0%"></stop>
            <stop stop-color="#CCE2E6" offset="52%"></stop>
            <stop stop-color="#8FA1BB" offset="100%"></stop>
        </linearGradient>
        <linearGradient x1="-495.454545%" y1="9.84848485%" x2="1377.27273%" y2="146.212121%" id="linearGradient-12">
            <stop stop-color="#27E9DE" offset="0%"></stop>
            <stop stop-color="#03A4EC" offset="52%"></stop>
            <stop stop-color="#2547A8" offset="100%"></stop>
        </linearGradient>
        <linearGradient x1="-976.315789%" y1="-25%" x2="2276.31579%" y2="211.842105%" id="linearGradient-13">
            <stop stop-color="#27E9DE" offset="0%"></stop>
            <stop stop-color="#03A4EC" offset="52%"></stop>
            <stop stop-color="#2547A8" offset="100%"></stop>
        </linearGradient>
        <linearGradient x1="-3270%" y1="-190%" x2="9090%" y2="710%" id="linearGradient-14">
            <stop stop-color="#27E9DE" offset="0%"></stop>
            <stop stop-color="#03A4EC" offset="52%"></stop>
            <stop stop-color="#2547A8" offset="100%"></stop>
        </linearGradient>
        <linearGradient x1="-154.514465%" y1="261.138173%" x2="-145.99325%" y2="-402.438906%" id="linearGradient-15">
            <stop stop-color="#273A9B" offset="0%"></stop>
            <stop stop-color="#202F65" offset="56%"></stop>
            <stop stop-color="#021E2F" offset="100%"></stop>
        </linearGradient>
        <linearGradient x1="50.0784929%" y1="128.257457%" x2="50.0784929%" y2="-46.9387755%" id="linearGradient-16">
            <stop stop-color="#FFFFFF" offset="0%"></stop>
            <stop stop-color="#CCE2E6" offset="52%"></stop>
            <stop stop-color="#8FA1BB" offset="100%"></stop>
        </linearGradient>
        <linearGradient x1="49.8630137%" y1="128.219178%" x2="49.8630137%" y2="-46.8493151%" id="linearGradient-17">
            <stop stop-color="#FFFFFF" offset="0%"></stop>
            <stop stop-color="#CCE2E6" offset="52%"></stop>
            <stop stop-color="#8FA1BB" offset="100%"></stop>
        </linearGradient>
        <linearGradient x1="49.9331554%" y1="126.694964%" x2="49.9331554%" y2="-39.5765261%" id="linearGradient-18">
            <stop stop-color="#FFFFFF" offset="0%"></stop>
            <stop stop-color="#CCE2E6" offset="52%"></stop>
            <stop stop-color="#8FA1BB" offset="100%"></stop>
        </linearGradient>
        <linearGradient x1="50%" y1="128.389831%" x2="50%" y2="-47.0338983%" id="linearGradient-19">
            <stop stop-color="#FFFFFF" offset="0%"></stop>
            <stop stop-color="#CCE2E6" offset="52%"></stop>
            <stop stop-color="#8FA1BB" offset="100%"></stop>
        </linearGradient>
        <linearGradient x1="50.6944404%" y1="126.608728%" x2="50.6944404%" y2="-38.8917097%" id="linearGradient-20">
            <stop stop-color="#FFFFFF" offset="0%"></stop>
            <stop stop-color="#CCE2E6" offset="52%"></stop>
            <stop stop-color="#8FA1BB" offset="100%"></stop>
        </linearGradient>
        <linearGradient x1="50%" y1="239.351852%" x2="50%" y2="-335.185185%" id="linearGradient-21">
            <stop stop-color="#FFFFFF" offset="0%"></stop>
            <stop stop-color="#CCE2E6" offset="52%"></stop>
            <stop stop-color="#8FA1BB" offset="100%"></stop>
        </linearGradient>
        <linearGradient x1="50%" y1="238.888889%" x2="50%" y2="-335.185185%" id="linearGradient-22">
            <stop stop-color="#FFFFFF" offset="0%"></stop>
            <stop stop-color="#CCE2E6" offset="52%"></stop>
            <stop stop-color="#8FA1BB" offset="100%"></stop>
        </linearGradient>
        <linearGradient x1="50%" y1="240%" x2="50%" y2="-338.571429%" id="linearGradient-23">
            <stop stop-color="#FFFFFF" offset="0%"></stop>
            <stop stop-color="#CCE2E6" offset="52%"></stop>
            <stop stop-color="#8FA1BB" offset="100%"></stop>
        </linearGradient>
        <linearGradient x1="50%" y1="235%" x2="50%" y2="-330%" id="linearGradient-24">
            <stop stop-color="#FFFFFF" offset="0%"></stop>
            <stop stop-color="#CCE2E6" offset="52%"></stop>
            <stop stop-color="#8FA1BB" offset="100%"></stop>
        </linearGradient>
        <linearGradient x1="49.9215071%" y1="128.257457%" x2="49.9215071%" y2="-46.9387755%" id="linearGradient-25">
            <stop stop-color="#FFFFFF" offset="0%"></stop>
            <stop stop-color="#CCE2E6" offset="52%"></stop>
            <stop stop-color="#8FA1BB" offset="100%"></stop>
        </linearGradient>
        <linearGradient x1="50.1369863%" y1="128.219178%" x2="50.1369863%" y2="-46.8493151%" id="linearGradient-26">
            <stop stop-color="#FFFFFF" offset="0%"></stop>
            <stop stop-color="#CCE2E6" offset="52%"></stop>
            <stop stop-color="#8FA1BB" offset="100%"></stop>
        </linearGradient>
        <linearGradient x1="50.0668446%" y1="126.694964%" x2="50.0668446%" y2="-39.5765261%" id="linearGradient-27">
            <stop stop-color="#FFFFFF" offset="0%"></stop>
            <stop stop-color="#CCE2E6" offset="52%"></stop>
            <stop stop-color="#8FA1BB" offset="100%"></stop>
        </linearGradient>
        <linearGradient x1="49.3055596%" y1="126.608728%" x2="49.3055596%" y2="-38.8917097%" id="linearGradient-28">
            <stop stop-color="#FFFFFF" offset="0%"></stop>
            <stop stop-color="#CCE2E6" offset="52%"></stop>
            <stop stop-color="#8FA1BB" offset="100%"></stop>
        </linearGradient>
    </defs>
    <g id="Hosting" stroke="none" stroke-width="1" fill="none" fill-rule="evenodd">
        <g id="Desktop-HD" transform="translate(-341.000000, -212.000000)" fill-rule="nonzero">
            <g id="icon-hosting" transform="translate(341.000000, 212.000000)">
                <path d="M113.189713,163.423365 L113.189713,163.423365 C109.716771,163.423365 106.901396,160.60799 106.901396,157.135048 L106.901396,135.670924 L69.1714914,135.670924 L69.1714914,157.135048 C69.1714914,160.60799 66.3561158,163.423365 62.883174,163.423365 L62.883174,163.423365 C59.4102322,163.423365 56.5948566,166.238741 56.5948566,169.711683 C56.5948566,173.184624 59.4102322,176 62.883174,176 L113.189713,176 C116.662655,176 119.478031,173.184624 119.478031,169.711683 C119.478031,166.238741 116.662655,163.423365 113.189713,163.423365 Z" id="Path" fill="url(#linearGradient-1)"></path>
                <rect id="Rectangle" fill="#1C113F" x="69.1714914" y="140.366201" width="37.7299044" height="16.7688464"></rect>
                <path d="M10.0613078,25.0803823 L166.011579,25.0803823 C171.568286,25.0803823 176.072887,29.5849833 176.072887,35.1416902 L176.072887,140.785423 C176.072887,144.026835 173.445203,146.654519 170.203791,146.654519 L5.86909624,146.654519 C2.62768389,146.654519 0,144.026835 0,140.785423 L0,35.1416902 C0,29.5849833 4.50460096,25.0803823 10.0613078,25.0803823 Z" id="Path" fill="url(#linearGradient-2)"></path>
                <rect id="Rectangle" fill="url(#linearGradient-3)" x="61.2901336" y="57.9053992" width="53.49262" height="67.7880616"></rect>
                <path d="M0,125.693461 L0,140.785423 C0,146.342129 4.50460096,150.84673 10.0613078,150.84673 L166.011579,150.84673 C171.568286,150.84673 176.072887,146.342129 176.072887,140.785423 L176.072887,125.693461 L0,125.693461 Z" id="Path" fill="url(#linearGradient-4)"></path>
                <path d="M97.930063,115.799841 L97.1335428,115.799841 C95.9579127,115.906089 94.7919667,115.511777 93.9221455,114.713775 C93.0523243,113.915774 92.5592409,112.788042 92.5640322,111.60763 L92.5640322,104.732403 L83.5088551,104.732403 L83.5088551,111.649552 C83.5136464,112.829964 83.020563,113.957696 82.1507418,114.755697 C81.2809205,115.553699 80.1149746,115.948011 78.9393445,115.841764 L78.1428243,115.841764 C72.695059,115.841715 68.2722886,120.245744 68.2492049,125.693461 L107.865605,125.693461 C107.865605,123.06223 106.817515,120.539375 104.953025,118.682752 C103.088534,116.826129 100.56127,115.788692 97.930063,115.799841 L97.930063,115.799841 Z" id="Path" fill="url(#linearGradient-5)"></path>
                <path d="M72.273728,84.9870861 L60.5774576,91.3173256 C56.436382,93.5006896 53.3965263,97.3157085 52.1930344,101.839777 L51.8157354,103.265129 C51.4392727,104.670987 51.9775473,106.162619 53.1649975,107.00412 C54.3524478,107.84562 55.9381729,107.859184 57.1398441,107.038119 L60.8289903,104.564714 C62.2835761,103.602829 63.9900264,103.092352 65.7338779,103.09744 L81.3289051,103.09744" id="Path" fill="url(#linearGradient-6)"></path>
                <path d="M103.799159,84.9870861 L115.49543,91.3173256 C119.636505,93.5006896 122.676361,97.3157085 123.879853,101.839777 L124.257152,103.265129 C124.633615,104.670987 124.09534,106.162619 122.90789,107.00412 C121.720439,107.84562 120.134714,107.859184 118.933043,107.038119 L115.076208,104.732403 C113.621623,103.770517 111.915172,103.26004 110.171321,103.265129 L94.7439822,103.265129" id="Path" fill="url(#linearGradient-7)"></path>
                <path d="M90.2163937,0.681710812 C88.9667971,-0.227236937 87.2737786,-0.227236937 86.0241821,0.681710812 C71.2675972,12.1264485 61.2901336,33.0875065 61.2901336,57.108879 C60.892705,74.9542906 66.8341818,92.3628177 78.05898,106.241599 C78.7382591,107.017352 79.7111976,107.473417 80.7419955,107.499262 L87.8268331,107.499262 L94.9116707,107.499262 C95.9424685,107.473417 96.915407,107.017352 97.5946861,106.241599 C108.819484,92.3628177 114.760961,74.9542906 114.363532,57.108879 C114.782754,33.0875065 104.80529,12.1264485 90.2163937,0.681710812 Z" id="Path" fill="url(#linearGradient-8)"></path>
                <path d="M99.355415,46.5864279 L76.7174723,46.5864279 L76.7174723,104.271259 C77.2205377,104.900091 77.7236031,105.612767 78.2266685,106.241599 C78.9059475,107.017352 79.878886,107.473417 80.9096839,107.499262 L87.9945215,107.499262 L95.0793591,107.499262 C96.110157,107.473417 97.0830955,107.017352 97.7623746,106.241599 C98.3073621,105.612767 98.7685053,104.942013 99.2715707,104.271259 L99.355415,46.5864279 Z" id="Path" fill="url(#linearGradient-9)"></path>
                <circle id="Oval" fill="url(#linearGradient-10)" cx="88.0364436" cy="46.5864279" r="11.3189713"></circle>
                <circle id="Oval" fill="url(#linearGradient-11)" cx="88.0364436" cy="46.5445057" r="6.79138279"></circle>
                <circle id="Oval" fill="url(#linearGradient-12)" cx="75.4178867" cy="23.4454198" r="2.76685966"></circle>
                <circle id="Oval" fill="url(#linearGradient-13)" cx="78.3105127" cy="18.2470774" r="1.59304041"></circle>
                <circle id="Oval" fill="url(#linearGradient-14)" cx="72.6510271" cy="28.8952949" r="1"></circle>
                <path d="M88.0364436,112.110695 L88.0364436,112.110695 C85.4649893,112.106713 83.3033106,110.179216 83.0057897,107.625029 L81.3289051,93.3715093 C81.112924,91.5846748 81.6729475,89.7909398 82.8672031,88.4443966 C84.0614587,87.0978533 85.7754603,86.3275869 87.5753004,86.3285878 L88.4975869,86.3285878 C90.3057018,86.326084 92.0274048,87.1020022 93.2231629,88.4582649 C94.4189211,89.8145275 94.9730121,91.6198788 94.7439822,93.4134314 L93.0670976,107.666951 C92.750079,110.204511 90.5937291,112.109287 88.0364436,112.110695 L88.0364436,112.110695 Z" id="Path" fill="url(#linearGradient-15)"></path>
                <path d="M0,125.693461 L26.7043879,125.693461 C26.7043879,110.945035 14.7484262,98.9890729 0,98.9890729 L0,125.693461 Z" id="Path" fill="url(#linearGradient-16)"></path>
                <path d="M14.8404291,125.693461 C14.8404291,117.242636 21.6911764,110.391888 30.1420014,110.391888 C38.5928265,110.391888 45.4435738,117.242636 45.4435738,125.693461" id="Path" fill="url(#linearGradient-17)"></path>
                <path d="M27.9620514,125.693461 C27.6624944,119.906115 30.5796309,114.425469 35.5476372,111.441844 C40.5156434,108.458219 46.72428,108.458219 51.6922862,111.441844 C56.6602925,114.425469 59.577429,119.906115 59.277872,125.693461" id="Path" fill="url(#linearGradient-18)"></path>
                <path d="M34.9630448,125.693461 C34.9630448,120.229366 39.392569,115.799841 44.8566641,115.799841 C50.3207592,115.799841 54.7502835,120.229366 54.7502835,125.693461" id="Path" fill="url(#linearGradient-19)"></path>
                <path d="M54.4987508,125.693461 C54.2192555,120.668369 56.7412565,115.900644 61.0524881,113.303927 C65.3637197,110.707209 70.7573911,110.707209 75.0686227,113.303927 C79.3798543,115.900644 81.9018552,120.668369 81.6223599,125.693461" id="Path" fill="url(#linearGradient-20)"></path>
                <circle id="Oval" fill="url(#linearGradient-21)" cx="29.6808581" cy="89.5146747" r="4.52758853"></circle>
                <circle id="Oval" fill="url(#linearGradient-22)" cx="39.9936987" cy="100.833646" r="2.26379426"></circle>
                <circle id="Oval" fill="url(#linearGradient-23)" cx="23.6859956" cy="100.037126" r="1.46727406"></circle>
                <circle id="Oval" fill="url(#linearGradient-24)" cx="42.9701689" cy="85.65784" r="1"></circle>
                <path d="M176.072887,125.693461 L149.368499,125.693461 C149.368499,110.945035 161.324461,98.9890729 176.072887,98.9890729 L176.072887,125.693461 Z" id="Path" fill="url(#linearGradient-25)"></path>
                <path d="M161.232458,125.693461 C161.232458,117.242636 154.381711,110.391888 145.930886,110.391888 C137.480061,110.391888 130.629314,117.242636 130.629314,125.693461" id="Path" fill="url(#linearGradient-26)"></path>
                <path d="M148.110836,125.693461 C148.410393,119.906115 145.493256,114.425469 140.52525,111.441844 C135.557244,108.458219 129.348607,108.458219 124.380601,111.441844 C119.412595,114.425469 116.495458,119.906115 116.795015,125.693461" id="Path" fill="url(#linearGradient-27)"></path>
                <path d="M141.109843,125.693461 C141.109843,120.229366 136.680318,115.799841 131.216223,115.799841 C125.752128,115.799841 121.322604,120.229366 121.322604,125.693461" id="Path" fill="url(#linearGradient-19)"></path>
                <path d="M121.574136,125.693461 C121.853632,120.668369 119.331631,115.900644 115.020399,113.303927 C110.709168,110.707209 105.315496,110.707209 101.004265,113.303927 C96.693033,115.900644 94.1710321,120.668369 94.4505274,125.693461" id="Path" fill="url(#linearGradient-28)"></path>
                <circle id="Oval" fill="url(#linearGradient-21)" cx="146.392029" cy="89.5146747" r="4.52758853"></circle>
                <circle id="Oval" fill="url(#linearGradient-22)" cx="136.079189" cy="100.833646" r="2.26379426"></circle>
                <circle id="Oval" fill="url(#linearGradient-23)" cx="152.386892" cy="100.037126" r="1.46727406"></circle>
                <circle id="Oval" fill="url(#linearGradient-24)" cx="133.102718" cy="85.65784" r="1"></circle>
            </g>
        </g>
    </g>
</svg>