<?xml version="1.0" encoding="UTF-8"?>
<svg width="65px" height="65px" viewBox="0 0 65 65" version="1.1" xmlns="http://www.w3.org/2000/svg" xmlns:xlink="http://www.w3.org/1999/xlink">
    <title>icon-compute</title>
    <defs>
        <circle id="path-1" cx="32.2770296" cy="59.3900186" r="2.79672207"></circle>
        <filter x="-35.8%" y="-17.9%" width="171.5%" height="171.5%" filterUnits="objectBoundingBox" id="filter-2">
            <feOffset dx="0" dy="1" in="SourceAlpha" result="shadowOffsetOuter1"></feOffset>
            <feGaussianBlur stdDeviation="0.5" in="shadowOffsetOuter1" result="shadowBlurOuter1"></feGaussianBlur>
            <feColorMatrix values="0 0 0 0 0   0 0 0 0 0   0 0 0 0 0  0 0 0 0.145378059 0" type="matrix" in="shadowBlurOuter1"></feColorMatrix>
        </filter>
        <linearGradient x1="-7.13018195%" y1="104.508529%" x2="50%" y2="-23.4809247%" id="linearGradient-3">
            <stop stop-color="#02D0FF" offset="0%"></stop>
            <stop stop-color="#2DA0F7" offset="52%"></stop>
            <stop stop-color="#2878C7" offset="100%"></stop>
        </linearGradient>
        <linearGradient x1="16.9956563%" y1="82.8312193%" x2="59.588225%" y2="-2.25725475%" id="linearGradient-4">
            <stop stop-color="#47DDFF" offset="0%"></stop>
            <stop stop-color="#48B0FE" offset="50.7266171%"></stop>
            <stop stop-color="#3390EC" offset="100%"></stop>
        </linearGradient>
    </defs>
    <g id="Pricing" stroke="none" stroke-width="1" fill="none" fill-rule="evenodd">
        <g id="Desktop-HD" transform="translate(-369.000000, -732.000000)" fill-rule="nonzero">
            <g id="Left" transform="translate(341.000000, 700.000000)">
                <g id="icon-compute" transform="translate(28.000000, 32.000000)">
                    <rect id="Rectangle" fill="#FFFFFF" opacity="0.659999967" x="29.9720389" y="43.2550835" width="4.60998144" height="18.4399258"></rect>
                    <path d="M53.0219461,61.6950093 L11.5321132,61.6950093 C10.2591019,61.6950093 9.22712244,60.6630298 9.22712244,59.3900186 C9.22712244,58.1170073 10.2591019,57.0850278 11.5321132,57.0850278 L53.0219461,57.0850278 C54.2949573,57.0850278 55.3269368,58.1170073 55.3269368,59.3900186 C55.3269368,60.6630298 54.2949573,61.6950093 53.0219461,61.6950093 Z" id="Path" fill="#FFFFFF" opacity="0.659999967"></path>
                    <circle id="Oval" fill="#D4DBEA" cx="32.2770296" cy="59.3900186" r="4.60998144"></circle>
                    <g id="Oval">
                        <use fill="black" fill-opacity="1" filter="url(#filter-2)" xlink:href="#path-1"></use>
                        <use fill="#FFFFFF" xlink:href="#path-1"></use>
                    </g>
                    <path d="M52.4841149,15.5029953 C50.6900479,15.1422587 49.2384776,13.8264042 48.7039302,12.0762424 C46.4583402,4.89168205 39.804352,0 32.2770296,0 C24.7497073,0 18.0957191,4.89168205 15.8501291,12.0762424 C15.3155817,13.8264042 13.8640114,15.1422587 12.0699443,15.5029953 C4.86511424,17.0182104 -0.217444545,23.4798583 0.0071595598,30.8388669 C0.483981665,39.195277 7.46575251,45.6890018 15.8347625,45.5600742 L48.7192968,45.5600742 C57.0883067,45.6890018 64.0700776,39.195277 64.5468997,30.8388669 C64.7715038,23.4798583 59.688945,17.0182104 52.4841149,15.5029953 Z" id="Path" fill="url(#linearGradient-3)"></path>
                    <path d="M52.4841149,26.7667166 C50.7058693,26.4121199 49.2625075,25.1160399 48.7192968,23.3860635 C46.4896762,16.1765216 39.823466,11.2603962 32.2770296,11.2603962 C24.7305933,11.2603962 18.064383,16.1765216 15.8347625,23.3860635 C15.2915517,25.1160399 13.84819,26.4121199 12.0699443,26.7667166 L11.7165124,26.8435496 C2.34288349,29.0409741 2.49654954,42.6404193 11.7165124,45.0529763 C13.0617156,45.3985523 14.4459087,45.568994 15.8347625,45.560407 L48.7192968,45.560407 C50.0824481,45.562439 51.4404044,45.392049 52.7607138,45.0529763 C62.0728763,42.6404193 62.1958092,29.0409741 52.7607138,26.8435496 L52.4841149,26.7667166 Z" id="Path" fill="url(#linearGradient-4)" opacity="0.879999995"></path>
                </g>
            </g>
        </g>
    </g>
</svg>