<?xml version="1.0" encoding="UTF-8"?>
<svg width="214px" height="214px" viewBox="0 0 214 214" version="1.1" xmlns="http://www.w3.org/2000/svg" xmlns:xlink="http://www.w3.org/1999/xlink">
    <title>icon-instances</title>
    <defs>
        <linearGradient x1="50%" y1="122.235294%" x2="50%" y2="-38.9019608%" id="linearGradient-1">
            <stop stop-color="#53D7FF" offset="0%"></stop>
            <stop stop-color="#08A9E8" offset="50.0928759%"></stop>
            <stop stop-color="#0981B5" offset="99.5656687%"></stop>
        </linearGradient>
        <linearGradient x1="-83.3333333%" y1="82.3530019%" x2="50%" y2="10.1837912%" id="linearGradient-2">
            <stop stop-color="#8DE1FF" offset="3.28616696%"></stop>
            <stop stop-color="#1FABE0" offset="50.4561844%"></stop>
            <stop stop-color="#0995CD" offset="100%"></stop>
        </linearGradient>
        <linearGradient x1="-4.34808052%" y1="50.8132774%" x2="76.2121079%" y2="47.2995428%" id="linearGradient-3">
            <stop stop-color="#4F398F" offset="2.84910402%"></stop>
            <stop stop-color="#352568" offset="58.3888767%"></stop>
            <stop stop-color="#2F1E64" offset="100%"></stop>
        </linearGradient>
        <rect id="path-4" x="15.1382637" y="149.913183" width="183.723473" height="15.1382637"></rect>
        <linearGradient x1="50%" y1="122.222222%" x2="50%" y2="-2.22044605e-14%" id="linearGradient-5">
            <stop stop-color="#2B1A5E" offset="2.01048951%"></stop>
            <stop stop-color="#2B1A5E" offset="55.2666084%"></stop>
            <stop stop-color="#22144E" offset="100%"></stop>
        </linearGradient>
        <rect id="path-6" x="0" y="157.482315" width="214" height="22.7073955" rx="1.7"></rect>
        <linearGradient x1="-167.724388%" y1="53.5990448%" x2="-158.658205%" y2="39.5387739%" id="linearGradient-7">
            <stop stop-color="#7B66B7" offset="0%"></stop>
            <stop stop-color="#2B1A5D" offset="53.9308348%"></stop>
            <stop stop-color="#22144F" offset="100%"></stop>
        </linearGradient>
        <path d="M79.1318328,157.482315 L82.7127128,162.831164 C83.634751,164.178203 85.1581143,165.004676 86.805147,165.051447 L127.72949,165.051447 C129.431053,165.05397 131.022516,164.221758 131.97539,162.831164 L135.55627,157.482315 L79.1318328,157.482315 Z" id="path-8"></path>
        <linearGradient x1="50%" y1="140.5%" x2="50%" y2="-158.888889%" id="linearGradient-9">
            <stop stop-color="#FFFFFF" offset="0%"></stop>
            <stop stop-color="#CCE2E6" offset="52%"></stop>
            <stop stop-color="#8FA1BB" offset="100%"></stop>
        </linearGradient>
        <linearGradient x1="49.9296765%" y1="109.949592%" x2="49.9296765%" y2="-20.5345565%" id="linearGradient-10">
            <stop stop-color="#FFFFFF" offset="0%"></stop>
            <stop stop-color="#CCE2E6" offset="52%"></stop>
            <stop stop-color="#8FA1BB" offset="100%"></stop>
        </linearGradient>
        <linearGradient x1="50.1626405%" y1="180.190236%" x2="50%" y2="-59.4482831%" id="linearGradient-11">
            <stop stop-color="#FB87FF" offset="0%"></stop>
            <stop stop-color="#D361D8" offset="46.4106206%"></stop>
            <stop stop-color="#98399F" offset="100%"></stop>
        </linearGradient>
    </defs>
    <g id="Pricing" stroke="none" stroke-width="1" fill="none" fill-rule="evenodd">
        <g id="Desktop-HD" transform="translate(-1597.000000, -1233.000000)">
            <g id="Left" transform="translate(341.000000, 700.000000)">
                <g id="Group-23" transform="translate(0.000000, 122.000000)">
                    <g id="icon-instances" transform="translate(1256.000000, 411.000000)">
                        <path d="M29.7340729,35 L184.265927,35 C192.32697,35 198.861736,41.5304473 198.861736,49.5861623 L198.861736,165.051447 L15.1382637,165.051447 L15.1382637,49.5861623 C15.1382637,41.5304473 21.67303,35 29.7340729,35 Z" id="Path" fill="url(#linearGradient-1)" fill-rule="nonzero"></path>
                        <rect id="Rectangle" fill="url(#linearGradient-2)" fill-rule="nonzero" x="61.2411576" y="96.2411576" width="91.5176849" height="61.2411576"></rect>
                        <g id="Rectangle" fill-rule="nonzero">
                            <use fill="url(#linearGradient-3)" xlink:href="#path-4"></use>
                            <use fill-opacity="0.0665428322" fill="#FFFFFF" xlink:href="#path-4"></use>
                        </g>
                        <g id="Rectangle" fill-rule="nonzero">
                            <use fill="url(#linearGradient-5)" xlink:href="#path-6"></use>
                            <use fill-opacity="0.0983937937" fill="#FFFFFF" xlink:href="#path-6"></use>
                        </g>
                        <g id="Path" fill-rule="nonzero">
                            <use fill="url(#linearGradient-7)" xlink:href="#path-8"></use>
                            <use fill-opacity="0.0961265297" fill="#FFFFFF" xlink:href="#path-8"></use>
                        </g>
                        <circle id="Oval" fill="url(#linearGradient-9)" fill-rule="nonzero" cx="107" cy="95.8971061" r="45.7588424"></circle>
                        <path d="M88.7652733,137.941134 C100.406533,142.89422 113.593467,142.89422 125.234727,137.941134 L125.234727,90.7363344 L88.7652733,102.562913 L88.7652733,137.941134 Z" id="Path" fill="url(#linearGradient-10)" fill-rule="nonzero" opacity="0.600000024"></path>
                        <path d="M114.374071,86.1712818 L119.512797,73.8011806 C119.90474,72.8070216 119.775754,71.6842506 119.168437,70.8036807 C118.561121,69.9231107 117.554471,69.3992808 116.480949,69.4051447 L103.582747,69.4051447 C102.24441,69.3978381 101.039486,70.2104257 100.550899,71.4498391 L88.9887664,100.790492 C88.5968233,101.784651 88.7258098,102.907422 89.3331262,103.787992 C89.9404426,104.668562 90.9470927,105.192392 92.0206146,105.186479 L99.112056,105.186479 C99.3869685,105.183608 99.6451311,105.317608 99.8000079,105.543562 C99.9548848,105.769516 99.9859779,106.057519 99.8828649,106.311033 L94.7441392,118.681135 C94.3521961,119.675294 94.4811826,120.798064 95.088499,121.678634 C95.6958153,122.559204 96.7024655,123.083034 97.7759874,123.07717 L110.417253,123.07717 C111.75559,123.084477 112.960514,122.271889 113.449101,121.032476 L125.011234,91.6918228 C125.403177,90.6976638 125.27419,89.5748929 124.666874,88.6943229 C124.059557,87.8137529 123.052907,87.289923 121.979385,87.2958364 L115.14488,87.2958364 C114.869968,87.2987073 114.611805,87.1647072 114.456928,86.9387531 C114.302052,86.7127989 114.270958,86.4247957 114.374071,86.1712818 Z" id="Path" fill="url(#linearGradient-11)" fill-rule="nonzero"></path>
                        <rect id="Rectangle" x="97" y="0" width="33" height="214"></rect>
                    </g>
                </g>
            </g>
        </g>
    </g>
</svg>