<?xml version="1.0" encoding="UTF-8"?>
<svg width="176px" height="164px" viewBox="0 0 176 164" version="1.1" xmlns="http://www.w3.org/2000/svg" xmlns:xlink="http://www.w3.org/1999/xlink">
    <title>icon-kubernetes</title>
    <defs>
        <linearGradient x1="50%" y1="-71.7948718%" x2="50%" y2="170.717949%" id="linearGradient-1">
            <stop stop-color="#04CDFE" offset="0%"></stop>
            <stop stop-color="#2BA1F7" offset="52%"></stop>
            <stop stop-color="#2878C7" offset="99.7350306%"></stop>
        </linearGradient>
        <linearGradient x1="-48.6842105%" y1="228.619461%" x2="50%" y2="16.3866799%" id="linearGradient-2">
            <stop stop-color="#27E9DE" offset="0%"></stop>
            <stop stop-color="#03A4EC" offset="52%"></stop>
            <stop stop-color="#2547A8" offset="100%"></stop>
        </linearGradient>
        <linearGradient x1="50%" y1="838.833333%" x2="50%" y2="-1131.16667%" id="linearGradient-3">
            <stop stop-color="#273A9B" offset="0%"></stop>
            <stop stop-color="#202F65" offset="56%"></stop>
            <stop stop-color="#021E2F" offset="100%"></stop>
        </linearGradient>
        <linearGradient x1="-7.14285714%" y1="52.0408163%" x2="50%" y2="48.7517007%" id="linearGradient-4">
            <stop stop-color="#27E9DE" offset="0%"></stop>
            <stop stop-color="#03A4EC" offset="52%"></stop>
            <stop stop-color="#2547A8" offset="100%"></stop>
        </linearGradient>
        <linearGradient x1="50%" y1="413.69863%" x2="50%" y2="-823.972603%" id="linearGradient-5">
            <stop stop-color="#F3C57A" offset="0%"></stop>
            <stop stop-color="#F39369" offset="49%"></stop>
            <stop stop-color="#E94867" offset="100%"></stop>
        </linearGradient>
        <linearGradient x1="50%" y1="413.69863%" x2="50%" y2="-823.972603%" id="linearGradient-6">
            <stop stop-color="#27E9DE" offset="0%"></stop>
            <stop stop-color="#03A4EC" offset="52%"></stop>
            <stop stop-color="#2547A8" offset="100%"></stop>
        </linearGradient>
        <linearGradient x1="50%" y1="413.69863%" x2="50%" y2="-823.972603%" id="linearGradient-7">
            <stop stop-color="#FFFFFF" offset="0%"></stop>
            <stop stop-color="#CCE2E6" offset="52%"></stop>
            <stop stop-color="#8FA1BB" offset="100%"></stop>
        </linearGradient>
        <linearGradient x1="49.9189404%" y1="124.792477%" x2="49.9189404%" y2="-155.889444%" id="linearGradient-8">
            <stop stop-color="#FFFFFF" offset="0%"></stop>
            <stop stop-color="#CCE2E6" offset="52%"></stop>
            <stop stop-color="#8FA1BB" offset="100%"></stop>
        </linearGradient>
    </defs>
    <g id="Kubernetes" stroke="none" stroke-width="1" fill="none" fill-rule="evenodd">
        <g id="Desktop-HD" transform="translate(-340.000000, -215.000000)">
            <g id="Banner" transform="translate(340.000000, 200.800932)">
                <g id="icon-kubernetes" transform="translate(0.000000, 14.199068)">
                    <rect id="Rectangle" fill="url(#linearGradient-1)" fill-rule="nonzero" x="0" y="0" width="176" height="163.428571" rx="14"></rect>
                    <rect id="Rectangle" fill="url(#linearGradient-2)" fill-rule="nonzero" opacity="0.5" x="37.0438095" y="95.6685714" width="101.912381" height="67.76"></rect>
                    <path d="M163.135238,0 L12.8647619,0 C5.75975009,0 0,5.75975009 0,12.8647619 L0,25.1428571 L176,25.1428571 L176,12.8647619 C176,5.75975009 170.24025,0 163.135238,0 Z" id="Path" fill="url(#linearGradient-3)" fill-rule="nonzero"></path>
                    <rect id="Rectangle" fill="url(#linearGradient-4)" fill-rule="nonzero" opacity="0.5" x="0" y="25.1428571" width="176" height="12.5714286"></rect>
                    <circle id="Oval" fill="url(#linearGradient-5)" fill-rule="nonzero" cx="22.2514286" cy="12.5714286" r="3.05904762"></circle>
                    <circle id="Oval" fill="url(#linearGradient-6)" fill-rule="nonzero" cx="37.7142857" cy="12.5714286" r="3.05904762"></circle>
                    <circle id="Oval" fill="url(#linearGradient-7)" fill-rule="nonzero" cx="53.1771429" cy="12.5714286" r="3.05904762"></circle>
                    <path d="M118.213333,67.5085714 C115.151103,66.5786876 112.436792,64.7545539 110.419048,62.2704762 C104.953126,55.5174085 96.7298401,51.5939263 88.0419048,51.5939263 C79.3539694,51.5939263 71.1306834,55.5174085 65.6647619,62.2704762 C63.6470172,64.7545539 60.9327061,66.5786876 57.8704762,67.5085714 C44.5684927,71.419895 35.9058888,84.2117319 37.2114286,98.0152381 C39.1169646,113.313178 52.2627518,124.704989 67.6761905,124.415238 L108.491429,124.415238 C123.904867,124.704989 137.050654,113.313178 138.95619,98.0152381 C140.252452,84.1877886 131.548793,71.3872545 118.213333,67.5085714 L118.213333,67.5085714 Z" id="Path" fill="url(#linearGradient-8)" fill-rule="nonzero"></path>
                    <g id="4100624_kubernetes_icon" transform="translate(67.000000, 68.000000)" fill="#326CE5">
                        <path d="M20.2892319,35.8144166 C22.1276702,35.8144166 23.8617352,35.4989325 25.4575648,34.8679642 L25.7695022,35.4284214 L26.1165686,35.2540438 C26.1858974,35.5683458 26.2899328,35.9196343 26.3591772,36.164523 L27.5386961,39.1772445 C28.1631621,40.823994 30.4174889,39.738884 29.5851208,38.1973521 L28.0245045,35.3592615 C27.8852557,35.1489951 27.7119759,34.8681331 27.4694517,34.6230756 L27.8505491,34.4474313 L27.6080249,33.8523519 C30.7647241,32.0311403 33.1930062,29.0531254 34.3371429,25.4788488 L34.9616089,25.5840665 L35.0315289,25.1980713 C35.3433819,25.3738 35.6553194,25.5135554 35.8986036,25.5840665 L38.9511829,26.5305189 C40.6158346,27.0550873 41.2054251,24.6029074 39.4709379,24.3232277 L36.279701,23.7974771 C36.0370923,23.7615882 35.7252393,23.7268816 35.3780041,23.7268816 L35.4818707,23.3767753 L34.8922801,23.1664244 C34.9967378,22.4302384 35.0314444,21.6954036 35.0314444,20.924511 C35.0314444,17.8760695 34.1291564,15.0379789 32.5685401,12.65631 L33.0190508,12.2356927 L32.7765266,11.9202085 C33.0888863,11.7804531 33.3662016,11.6059066 33.5740192,11.4648001 L36.2102877,9.64367294 C37.6676286,8.66259833 36.1064212,6.66574247 34.8228668,7.85598577 L32.4645047,10.0642903 C32.2559271,10.2041302 32.0481095,10.4838099 31.8401231,10.728783 L31.5969233,10.4491033 L31.0764082,10.799294 C28.6488017,8.13676328 25.2835249,6.38488052 21.5032886,6.10401857 L21.4339597,5.47423251 L21.0521868,5.47423251 C21.1561378,5.15874837 21.1908444,4.80872648 21.2254666,4.56248672 L21.4340442,1.34076538 C21.5727018,-0.446921792 19.0404687,-0.446921792 19.1790419,1.34076538 L19.3869439,4.56248672 C19.4216506,4.80872648 19.4568639,5.15883281 19.5608993,5.47423251 L19.1791264,5.47423251 L19.1097975,6.10401857 C15.4673744,6.38488052 12.1721864,8.0315456 9.77911762,10.5184321 L9.25868701,10.169508 L9.01548725,10.4838944 C8.80758522,10.2041302 8.5996832,9.92335267 8.42581226,9.74889061 L6.10207227,7.54050163 C4.81868684,6.27974729 3.22268838,8.24198095 4.64540701,9.29238439 L7.24696895,11.1852892 C7.45487097,11.3250447 7.73218626,11.5007734 8.04454596,11.6406132 L7.80202175,11.920293 L8.25244798,12.375617 C6.55317406,14.7930902 5.58164166,17.7363985 5.58164166,20.9246799 C5.58164166,21.5903548 5.61626385,22.2201408 5.68559267,22.8164025 L5.09591769,22.9920468 L5.16516206,23.3769442 C4.85330903,23.3422375 4.50615825,23.3769442 4.2635496,23.412833 L1.07231267,23.8668904 C-0.662343437,24.1130457 -0.141828382,26.5997633 1.55803665,26.109986 L4.61070038,25.1981557 C4.85330903,25.1289114 5.16516206,25.0236937 5.47769065,24.8492316 L5.54693503,25.2340446 L6.17131665,25.1634491 C7.21217787,28.7723479 9.57054005,31.7851538 12.6925326,33.6779742 L12.4499239,34.2730537 L12.7964836,34.4475157 C12.5885816,34.6937555 12.3806796,34.9733508 12.276053,35.1836172 L10.6460235,37.9870857 C9.74381988,39.4928131 11.9988222,40.6496164 12.657826,39.0028669 L13.8718826,35.9890476 C13.975918,35.7788656 14.079869,35.4285903 14.1491979,35.1143729 L14.4963486,35.2888349 L14.8082861,34.7629154 C16.5081511,35.4284214 18.3466738,35.8144166 20.2892319,35.8144166 L20.2892319,35.8144166 Z M20.2545253,23.2369354 C21.5379952,23.2369354 22.5435587,22.2199719 22.5435587,20.924511 C22.5435587,19.6626588 21.5379952,18.6122554 20.2545253,18.6122554 C18.9710554,18.6122554 17.9649009,19.6626588 17.9649009,20.924511 C17.9649009,22.2199719 18.9710554,23.2369354 20.2545253,23.2369354 L20.2545253,23.2369354 Z M13.8026382,31.1192256 L16.2655425,24.7784673 C16.473529,24.2873388 16.1264626,23.8667215 15.571832,24.0077436 L8.98078061,24.8836849 C9.39726021,26.1802437 10.056264,27.4063758 10.9579609,28.5272059 C11.7908357,29.5430716 12.761777,30.4189285 13.8026382,31.1192256 L13.8026382,31.1192256 Z M8.39102118,22.1507276 L14.8082861,20.1538717 C15.3287167,20.0140318 15.4326677,19.4524768 14.9821571,19.1033838 L10.1949217,14.4428994 C9.46658903,15.5997028 8.91153624,16.8603727 8.59959876,18.2622335 C8.32171424,19.59333 8.25236354,20.8887066 8.39102118,22.1507276 L8.39102118,22.1507276 Z M11.9294089,12.2703149 L17.479008,16.089649 C17.8954876,16.4051331 18.4159182,16.1600756 18.4159182,15.5638139 L19.0403843,8.90765587 C17.6875856,9.04749573 16.3695779,9.39760206 15.0860236,10.0284859 C13.8718826,10.6235653 12.8311058,11.3597513 11.9294089,12.2703149 L11.9294089,12.2703149 Z M21.815226,8.90757142 L22.30095,15.704836 C22.30095,16.2294044 22.8213806,16.4743775 23.2718913,16.089649 L28.822166,12.4113369 C27.8852557,11.4648845 26.7758257,10.6236498 25.4922714,10.0284015 C24.2781303,9.43332203 23.0639893,9.08194903 21.815226,8.90757142 L21.815226,8.90757142 Z M30.5566532,14.6532503 L25.5962224,19.2420415 C25.214365,19.5934145 25.3536137,20.1538717 25.9080754,20.2590049 L32.2213049,22.360994 C32.3598781,21.0298131 32.2905493,19.6281211 31.9787807,18.2263447 C31.7008743,16.9307993 31.1810348,15.704836 30.5566532,14.6532503 L30.5566532,14.6532503 Z M31.5623855,25.0939514 L24.9025964,24.0770724 C24.3821658,23.9718547 24.0355217,24.4282765 24.312837,24.9182227 L26.602377,31.2244433 C27.746767,30.5241462 28.7875438,29.6124004 29.6891562,28.4567793 C30.4873244,27.440998 31.1118749,26.2854614 31.5623855,25.0939514 L31.5623855,25.0939514 Z M24.0701439,32.4157843 L20.7397426,26.5304345 C20.497134,26.039306 19.9420812,26.0751105 19.6994725,26.5649722 L16.2655425,32.3464555 C17.5137991,32.8005973 18.8671889,33.0467526 20.2892319,33.0467526 C21.6418618,33.0467526 22.8907094,32.8364862 24.0701439,32.4157843 L24.0701439,32.4157843 Z" id="Shape"></path>
                    </g>
                </g>
            </g>
        </g>
    </g>
</svg>