<?xml version="1.0" encoding="UTF-8"?>
<svg width="273px" height="60px" viewBox="0 0 273 60" version="1.1" xmlns="http://www.w3.org/2000/svg" xmlns:xlink="http://www.w3.org/1999/xlink">
    <title>logo</title>
    <defs>
        <linearGradient x1="-229.962457%" y1="49.9830133%" x2="157.743502%" y2="49.9830133%" id="linearGradient-1">
            <stop stop-color="#5E489D" offset="0%"></stop>
            <stop stop-color="#436DB5" offset="87.73%"></stop>
            <stop stop-color="#446CB4" offset="100%"></stop>
        </linearGradient>
        <linearGradient x1="-229.962457%" y1="49.9830133%" x2="157.743502%" y2="49.9830133%" id="linearGradient-2">
            <stop stop-color="#FFFFFF" offset="0%"></stop>
            <stop stop-color="#FFFFFF" offset="87.73%"></stop>
            <stop stop-color="#FFFFFF" offset="100%"></stop>
        </linearGradient>
        <linearGradient x1="-288.327788%" y1="49.9874353%" x2="269.99811%" y2="49.9874353%" id="linearGradient-3">
            <stop stop-color="#5E489D" offset="0%"></stop>
            <stop stop-color="#436DB5" offset="87.73%"></stop>
            <stop stop-color="#446CB4" offset="100%"></stop>
        </linearGradient>
        <linearGradient x1="-288.327788%" y1="49.9874353%" x2="269.99811%" y2="49.9874353%" id="linearGradient-4">
            <stop stop-color="#FFFFFF" offset="0%"></stop>
            <stop stop-color="#FFFFFF" offset="87.73%"></stop>
            <stop stop-color="#FFFFFF" offset="100%"></stop>
        </linearGradient>
        <linearGradient x1="-307.886303%" y1="50.0169993%" x2="132.809609%" y2="50.0169993%" id="linearGradient-5">
            <stop stop-color="#5E489D" offset="0%"></stop>
            <stop stop-color="#436DB5" offset="87.73%"></stop>
            <stop stop-color="#446CB4" offset="100%"></stop>
        </linearGradient>
        <linearGradient x1="-307.886303%" y1="50.0169993%" x2="132.809609%" y2="50.0169993%" id="linearGradient-6">
            <stop stop-color="#FFFFFF" offset="0%"></stop>
            <stop stop-color="#FFFFFF" offset="87.73%"></stop>
            <stop stop-color="#FFFFFF" offset="100%"></stop>
        </linearGradient>
        <linearGradient x1="-665.698295%" y1="49.9926145%" x2="429.017791%" y2="49.9926145%" id="linearGradient-7">
            <stop stop-color="#5E489D" offset="0%"></stop>
            <stop stop-color="#436DB5" offset="87.73%"></stop>
            <stop stop-color="#446CB4" offset="100%"></stop>
        </linearGradient>
        <linearGradient x1="-665.698295%" y1="49.9926145%" x2="429.017791%" y2="49.9926145%" id="linearGradient-8">
            <stop stop-color="#FFFFFF" offset="0%"></stop>
            <stop stop-color="#FFFFFF" offset="87.73%"></stop>
            <stop stop-color="#FFFFFF" offset="100%"></stop>
        </linearGradient>
        <linearGradient x1="-1000.53892%" y1="50.0066519%" x2="94.1771683%" y2="50.0066519%" id="linearGradient-9">
            <stop stop-color="#5E489D" offset="0%"></stop>
            <stop stop-color="#436DB5" offset="87.73%"></stop>
            <stop stop-color="#446CB4" offset="100%"></stop>
        </linearGradient>
        <linearGradient x1="-1000.53892%" y1="50.0066519%" x2="94.1771683%" y2="50.0066519%" id="linearGradient-10">
            <stop stop-color="#FFFFFF" offset="0%"></stop>
            <stop stop-color="#FFFFFF" offset="87.73%"></stop>
            <stop stop-color="#FFFFFF" offset="100%"></stop>
        </linearGradient>
        <linearGradient x1="-1.54641178%" y1="49.9980529%" x2="149.421897%" y2="49.9980529%" id="linearGradient-11">
            <stop stop-color="#5E489D" offset="0%"></stop>
            <stop stop-color="#436DB5" offset="87.73%"></stop>
            <stop stop-color="#446CB4" offset="100%"></stop>
        </linearGradient>
        <linearGradient x1="-1.54641178%" y1="49.9980529%" x2="149.421897%" y2="49.9980529%" id="linearGradient-12">
            <stop stop-color="#FFFFFF" offset="0%"></stop>
            <stop stop-color="#FFFFFF" offset="87.73%"></stop>
            <stop stop-color="#FFFFFF" offset="100%"></stop>
        </linearGradient>
    </defs>
    <g id="Block-Storage" stroke="none" stroke-width="1" fill="none" fill-rule="evenodd">
        <g id="Desktop-HD" transform="translate(-342.000000, -29.000000)">
            <g id="Header" transform="translate(340.000000, 29.000000)">
                <g id="logo" transform="translate(2.000000, 0.000000)">
                    <g id="Group" transform="translate(0.000000, 3.000000)" fill-rule="nonzero">
                        <polygon id="Path" fill="url(#linearGradient-2)" points="30.9443318 14.5749966 44.6370549 14.5749966 44.6370549 9.66590573 30.9443318 9.66590573"></polygon>
                        <polygon id="Path" fill="url(#linearGradient-4)" points="26.8713848 24.273533 36.379721 24.273533 36.379721 19.3680677 26.8713848 19.3680677"></polygon>
                        <polygon id="Path" fill="url(#linearGradient-6)" points="36.5450834 43.6162213 48.5913724 43.6162213 48.5913724 38.710756 36.5450834 38.710756"></polygon>
                        <polygon id="Path" fill="url(#linearGradient-8)" points="31.7387902 33.9756949 36.5882214 33.9756949 36.5882214 29.066604 31.7387902 29.066604"></polygon>
                        <polygon id="Path" fill="url(#linearGradient-10)" points="47.9766558 24.215523 52.826087 24.215523 52.826087 19.3100577 47.9766558 19.3100577"></polygon>
                        <path d="M0,27 C0,41.9121794 11.9851769,54 26.7707295,54 C26.8713848,54 26.975635,54 27.0762904,53.9963744 L27.0762904,53.9963744 L35.1646671,53.9963744 L35.1646671,49.0945347 L32.9250854,49.0945347 L27.2092992,49.0945347 L27.2092992,44.1854438 L32.8675681,44.1854438 L34.2012515,44.1854438 L34.2012515,39.2763529 L32.4721363,39.2763529 L25.286063,39.2763529 L22.4569286,39.2763529 L22.4569286,34.367262 L27.604731,34.367262 L29.0534491,34.367262 L29.0534491,29.4581711 L26.9828247,29.4581711 L20.1382606,29.4581711 L12.1038064,29.4581711 L12.1038064,24.5490802 L16.1767534,24.5490802 L24.3262423,24.5490802 L25.0955368,24.5490802 L25.0955368,19.6399893 L24.3837596,19.6399893 L16.8022545,19.6399893 L16.8022545,14.7308983 L17.9346273,14.7308983 L25.458615,14.7308983 L26.8498158,14.7308983 L26.8498158,9.82180744 L25.3471752,9.82180744 L20.4222525,9.82180744 L20.4222525,4.93084464 L26.5190911,4.93084464 L32.1917393,4.93084464 L33.1875083,4.93084464 L33.1875083,0.0217537263 L27.8491797,0.0217537263 C27.4896963,0.00725124211 27.1338077,0 26.7707295,0 C11.9851769,0 0,12.0878206 0,27 Z M12.8407474,9.83630992 L12.8407474,4.93084464 L17.6901786,4.93084464 L17.6901786,9.83993554 L12.8407474,9.83993554 L12.8407474,9.83630992 Z M5.25924227,19.5384719 L5.25924227,14.629381 L14.1744308,14.629381 L14.1744308,19.5384719 L5.25924227,19.5384719 Z M19.2323624,43.561837 L24.0817936,43.561837 L24.0817936,48.4709279 L19.2323624,48.4709279 L19.2323624,43.561837 Z M7.97334201,33.917685 L19.5235439,33.917685 L19.5235439,38.8267759 L7.97334201,38.8267759 L7.97334201,33.917685 Z M3.67392044,29.2370082 L3.67392044,24.3279173 L8.52335163,24.3279173 L8.52335163,29.2370082 L3.67392044,29.2370082 Z" id="Shape" fill="url(#linearGradient-12)"></path>
                    </g>
                    <g id="Group" transform="translate(63.818182, 17.727273)" fill="#FFFFFF" fill-rule="nonzero">
                        <path d="M32.3272533,22.2829293 L26.8011417,22.2829293 L26.8011417,8.71544614 L23.826568,5.31429643 L22.3609326,5.31429643 L18.9166895,8.80317421 L18.9166895,22.2829293 L13.4072328,22.2829293 L13.4072328,8.71544614 L10.4193352,5.31429643 L8.95369982,5.31429643 L5.50945666,8.80317421 L5.50945666,22.2829293 L0,22.2829293 L0,7.74706323 C0,7.04523869 0.253155203,6.43451637 0.762796599,5.92164459 L5.6560202,0.965008748 C6.20230248,0.320544864 6.91180325,0 7.78119151,0 L11.6951042,0 C12.5445065,0 13.2440143,0.317170707 13.7902966,0.951512122 L16.2818768,3.78580355 L19.066584,0.965008748 C19.6128663,0.320544864 20.322367,0 21.1917553,0 L25.105668,0 C25.9550703,0 26.6545781,0.317170707 27.2008604,0.951512122 L31.5544637,5.90814796 C32.0707671,6.4243939 32.3305842,7.03511622 32.3305842,7.75043739 L32.3305842,22.2829293 L32.3272533,22.2829293 Z" id="Path"></path>
                        <path d="M51.6569854,5.65508623 C52.439768,5.65508623 53.1026349,5.93176706 53.6489172,6.48512872 L56.873315,9.75131217 C57.4695621,10.2776806 57.7660202,10.9288928 57.7660202,11.7116971 L57.7660202,16.239815 C57.7660202,16.9315171 57.512865,17.5422394 57.0032236,18.0652337 L53.7954807,21.3145464 C53.2392054,21.9590102 52.5263737,22.2795551 51.6569854,22.2795551 L40.4915086,22.2795551 C39.708726,22.2795551 39.0458591,22.0028743 38.4995768,21.4495126 L35.275179,18.2002 C34.6789319,17.6670832 34.3824738,17.0124969 34.3824738,16.239815 L34.3824738,11.7116971 C34.3824738,11.0098725 34.635629,10.3991502 35.1452704,9.88627843 L38.3696682,6.62009498 C38.9159505,5.97563109 39.6254513,5.65508623 40.4948396,5.65508623 L51.6569854,5.65508623 Z M41.6606859,10.9693827 L39.8885995,12.7509373 L39.8885995,15.1837041 L41.6606859,16.9652587 L50.4811461,16.9652587 L52.2532325,15.1837041 L52.2532325,12.7509373 L50.4811461,10.9693827 L41.6606859,10.9693827 Z" id="Shape"></path>
                        <path d="M77.0957524,5.65508623 C77.8785349,5.65508623 78.5414018,5.93176706 79.0876841,6.48512872 L82.3120819,9.75131217 C82.9083291,10.2776806 83.2047871,10.9288928 83.2047871,11.7116971 L83.2047871,16.239815 C83.2047871,16.9315171 82.9516319,17.5422394 82.4419905,18.0652337 L79.2342476,21.3145464 C78.6779724,21.9590102 77.9651406,22.2795551 77.0957524,22.2795551 L65.9302755,22.2795551 C65.147493,22.2795551 64.4846261,22.0028743 63.9383438,21.4495126 L60.7139459,18.2002 C60.1176988,17.6670832 59.8212407,17.0124969 59.8212407,16.239815 L59.8212407,11.7116971 C59.8212407,11.0098725 60.0743959,10.3991502 60.5840373,9.88627843 L63.8084352,6.62009498 C64.3547175,5.97563109 65.0642182,5.65508623 65.9336065,5.65508623 L77.0957524,5.65508623 Z M67.1027838,10.9693827 L65.3306974,12.7509373 L65.3306974,15.1837041 L67.1027838,16.9652587 L75.9232441,16.9652587 L77.6953305,15.1837041 L77.6953305,12.7509373 L75.9232441,10.9693827 L67.1027838,10.9693827 Z" id="Shape"></path>
                        <path d="M90.7694643,22.2829293 L85.2600077,22.2829293 L85.2600077,5.65508623 L90.7694643,5.65508623 L90.7694643,8.4623844 L92.7314172,6.48850287 C93.2776994,5.93514121 93.9438973,5.65846038 94.7233489,5.65846038 L100.306087,5.65846038 C101.175476,5.65846038 101.884976,5.97900525 102.431259,6.62346913 L105.639002,9.88965259 C106.155305,10.4058985 106.415122,11.0132467 106.415122,11.7150712 L106.415122,22.2829293 L100.88901,22.2829293 L100.88901,12.7543114 L99.130248,10.9727568 L92.5348888,10.9727568 L90.7628024,12.7543114 L90.7628024,22.2829293 L90.7694643,22.2829293 Z" id="Path"></path>
                        <path d="M134.352131,23.3491627 L130.364937,27 L125.691558,22.2795551 L115.69859,22.2795551 C114.829202,22.2795551 114.119701,21.9590102 113.573419,21.3145464 L109.23647,16.9213947 C108.726829,16.4085229 108.473674,15.7978005 108.473674,15.095976 L108.473674,7.18357911 C108.473674,6.40077481 108.770132,5.74956261 109.366379,5.2231942 L113.703327,0.830042489 C114.249609,0.27668083 114.915807,0 115.695259,0 L126.860736,0 C127.730124,0 128.442956,0.320544864 128.999231,0.965008748 L133.322855,5.35816046 C133.839159,5.8744064 134.098976,6.48175456 134.098976,7.18357911 L134.098976,15.095976 C134.098976,15.8787803 133.795856,16.5299925 133.189616,17.0563609 L130.654733,19.624094 L134.352131,23.3491627 Z M120.458574,16.9686328 L119.389326,15.8990252 L123.376521,12.248188 L125.281847,14.1613347 L126.864067,15.7809298 L128.579526,14.06011 L128.579526,8.23969008 L125.691558,5.31429643 L116.867767,5.31429643 L113.979799,8.23969008 L113.979799,14.06011 L116.867767,16.9686328 L120.458574,16.9686328 L120.458574,16.9686328 Z" id="Shape"></path>
                        <path d="M157.565797,5.65508623 L157.565797,22.2795551 L152.039686,22.2795551 L152.039686,19.4722569 L150.220965,21.3145464 C149.674683,21.9590102 148.965182,22.2795551 148.095794,22.2795551 L142.513055,22.2795551 C141.730273,22.2795551 141.067406,22.0028743 140.521124,21.4495126 L137.296726,18.2002 C136.700479,17.6670832 136.404021,17.0124969 136.404021,16.239815 L136.404021,5.65508623 L141.913477,5.65508623 L141.913477,15.1870782 L143.685564,16.9686328 L150.280923,16.9686328 L152.039686,15.1870782 L152.039686,5.65508623 L157.565797,5.65508623 Z" id="Path"></path>
                        <path d="M159.617687,0 L165.127143,0 L165.127143,8.4623844 L166.945864,6.62009498 C167.502139,5.97563109 168.214971,5.65508623 169.084359,5.65508623 L176.895529,5.65508623 C177.678312,5.65508623 178.341179,5.93176706 178.887461,6.48512872 L182.111859,9.75131217 C182.708106,10.2776806 183.004564,10.9288928 183.004564,11.7116971 L183.004564,16.239815 C183.004564,16.9315171 182.751409,17.5422394 182.241767,18.0652337 L179.034025,21.3145464 C178.477749,21.9590102 177.764918,22.2795551 176.895529,22.2795551 L169.084359,22.2795551 C168.301576,22.2795551 167.638709,22.0028743 167.092427,21.4495126 L165.130474,19.4756311 L165.130474,22.2829293 L159.621018,22.2829293 L159.621018,0 L159.617687,0 Z M165.127143,15.1870782 L166.89923,16.9686328 L175.71969,16.9686328 L177.491776,15.1870782 L177.491776,12.7543114 L175.71969,10.9727568 L166.89923,10.9727568 L165.127143,12.7543114 L165.127143,15.1870782 Z" id="Shape"></path>
                        <path d="M207.287478,17.2486878 L207.287478,22.2795551 L191.168819,22.2795551 C190.299431,22.2795551 189.58993,21.9590102 189.043648,21.3145464 L185.81925,18.0652337 C185.389553,17.6299675 185.136397,17.1508373 185.056454,16.6244689 L185.056454,11.3101725 C185.143059,10.7163209 185.442848,10.1967008 185.949159,9.75131217 L189.173557,6.48512872 C189.719839,5.93176706 190.386037,5.65508623 191.165488,5.65508623 L202.330965,5.65508623 C203.200353,5.65508623 203.913185,5.97563109 204.46946,6.62009498 L207.677203,9.88627843 C208.186845,10.4025244 208.44,11.0098725 208.44,11.7116971 L208.44,12.8386653 C208.44,13.5708573 208.17019,14.1950762 207.633901,14.707948 C207.097611,15.2343164 206.448068,15.4941265 205.685272,15.4941265 L190.958967,15.4941265 L191.924954,17.2453137 L207.287478,17.2453137 L207.287478,17.2486878 Z M192.341328,10.1224694 L190.875692,11.8736566 L202.627423,11.8736566 L201.161788,10.1224694 L192.341328,10.1224694 Z" id="Shape"></path>
                    </g>
                    <rect id="Rectangle" x="22" y="0" width="81" height="60"></rect>
                </g>
            </g>
        </g>
    </g>
</svg>