<svg height="48" viewBox="0 0 50 48" width="50" xmlns="http://www.w3.org/2000/svg"><g fill="none"><ellipse cx="24.774194" cy="36.387097" fill="#eef6ff" rx="24" ry="10.83871"/><path d="m24.7741935 28.0311457c12.3176194 0 22.4622207 4.1605573 23.8360387 9.5172414.1066086-.4052577.1616968-.8223398.1639613-1.2413793 0-5.9418124-10.7451806-10.7586207-24-10.7586207-13.2548193 0-23.99999995 4.8168083-23.99999995 10.7586207.00226457.4190395.05735278.8361216.16396138 1.2413793 1.37381793-5.3566593 11.51841927-9.5172414 23.83603857-9.5172414z" fill="#fff" opacity=".75"/><path d="m24.7741935 44.7396461c-12.3049903 0-22.44095168-4.1577635-23.83133788-9.5138396-.10689922.4002737-.16355668.8123296-.16866207 1.2266383 0 5.9499536 10.74518065 10.7733617 23.99999995 10.7733617 13.2548194 0 24-4.8234081 24-10.7733617-.005108-.4142649-.0617655-.8262766-.168662-1.2265058-1.3904359 5.3559934-11.5264469 9.5137071-23.831338 9.5137071z" fill="#2c4b75" opacity=".2"/><g fill="#28387c"><path d="m20.4513436 35.2258065c-.1180065-.0000781-.2346535-.0252893-.3422354-.0739682l-9.1618314-4.1225209c-.4225669-.1901877-.6115331-.6882299-.422068-1.1124083.1894652-.4241784.6856152-.6138654 1.1081821-.4236777l9.161823 4.1225209c.3607863.1627272.5593035.5563372.4763869.9445561-.0829166.388219-.4247329.6654981-.8202656.6654981z" opacity=".2"/><path d="m38.2790782 43.3548387c-.115018-.0000764-.228711-.0247481-.3335685-.0723853l-9.2043336-4.1585538c-.4118657-.1861181-.5960465-.6735031-.4113794-1.088605.1846671-.4151018.6682524-.6007298 1.080118-.4146117l9.2043255 4.1585702c.3516275.1592559.5450993.5444292.4642869.9243257-.0808124.3798964-.4139487.6512599-.7994489.6512599z" opacity=".2"/><path d="m11.2693507 43.3548387c-.3855147 0-.7186737-.271345-.7994902-.6512558-.0808165-.3799107.1126727-.7650971.4643212-.9243418l9.2042945-4.1585584c.4118643-.1861176.895448-.0004901 1.0801145.4146106.1846664.4151006.0004862.9024843-.411378 1.0886019l-9.2042864 4.1585748c-.1048609.0476326-.2185564.0722987-.3335756.0723687z" opacity=".2"/><path d="m29.0970519 35.2258065c-.3955327 0-.737349-.2772791-.8202656-.6654981-.0829166-.3882189.1156006-.7818289.4763869-.9445561l9.161823-4.1225209c.4225669-.1901877.9187169-.0005007 1.1081821.4236777.1894651.4241784.0004989.9222206-.422068 1.1124083l-9.1618146 4.1225209c-.1075845.0486801-.2242345.0738913-.3422438.0739682z" opacity=".2"/></g><path d="m24.7741935.77419355c-6.8412046 0-12.3870967 5.57065058-12.3870967 12.44239635 0 9.953917 12.3870967 22.3963133 12.3870967 22.3963133s12.3870968-12.4423963 12.3870968-22.3963133c0-6.87174577-5.5458921-12.44239635-12.3870968-12.44239635zm0 16.58986175c-2.2804015 0-4.1290322-1.8568835-4.1290322-4.1474654s1.8486307-4.14746548 4.1290322-4.14746548c2.2804016 0 4.1290323 1.85688358 4.1290323 4.14746548 0 1.0999762-.4350218 2.1549002-1.2093655 2.9327009-.7743438.7778006-1.8245793 1.2147645-2.9196668 1.2147645z" fill="#27aafe"/><path d="m24.7741935 32.2978213s-11.0336-11.0778271-12.2696092-20.6849181c-.0743007.537925-.1135466 1.0801425-.1174875 1.6231968 0 9.9452459 12.3870967 22.3768032 12.3870967 22.3768032s12.3870968-12.4315573 12.3870968-22.3768032c-.0039409-.5430543-.0431868-1.0852718-.1174875-1.6231968-1.2360093 9.607091-12.2696093 20.6849181-12.2696093 20.6849181z" fill="#0a77be" opacity=".5"/><path d="m24.7741935 3.24371195c6.348424.00029376 11.6692527 4.78424937 12.3221802 11.07886865.0382596-.4032476.0649166-.8045361.0649166-1.200795 0-6.81938681-5.5458921-12.34759205-12.3870968-12.34759205-6.8412046 0-12.3870967 5.52820524-12.3870967 12.34759205 0 .3962589.0266653.7975474.0649166 1.200795.6529275-6.29461928 5.9737562-11.07857489 12.3221801-11.07886865z" fill="#fff" opacity=".5"/><path d="m24.7741935 48c-13.891939 0-24.7741935-5.1080499-24.7741935-11.6291967 0-4.4647808 5.22016206-8.4529889 13.6233868-10.4083553.2875571-.0673739.5889955.0248198.7905965.2418006.2016011.2169809.2726821.5257256.1864276.8097591-.0862545.2840334-.3167171.5001273-.604445.5667593-7.49918964 1.7448613-12.344353 5.1952523-12.344353 8.7900363 0 5.4033235 10.5887133 9.9678829 23.1225806 9.9678829 12.5338674 0 23.1225807-4.5645594 23.1225807-9.9678829 0-3.5988376-4.8532645-7.0508484-12.3645192-8.7944969-.2881586-.0660699-.5192583-.2819804-.6060031-.5661733-.0867449-.2841928-.0159125-.5933486.1857409-.8106864s.5033898-.3097289.7912309-.2422733c8.4169415 1.9541535 13.6451634 5.9439814 13.6451634 10.4136299 0 6.5211468-10.8822545 11.6291967-24.7741936 11.6291967z" fill="#28387c"/><path d="m24.7741935 36.3870973c-.2182025 0-.4275031-.0869557-.5815645-.2423055-.5133314-.5164322-12.5797258-12.7636425-12.5797258-22.9131202 0-7.30765046 5.8925104-13.2316716 13.1612903-13.2316716 7.26878 0 13.1612904 5.92402114 13.1612904 13.2316716 0 10.1494777-12.0663944 22.396688-12.5797258 22.9131202-.1540614.1553498-.363362.2423055-.5815646.2423055zm0-34.73313836c-6.3572264.00716892-11.5089982 5.18649032-11.516129 11.57771266 0 8.256472 9.1006045 18.5484879 11.516129 21.1336092 2.4155246-2.5867339 11.5161291-12.8836041 11.5161291-21.1336092-.0071308-6.39122234-5.1589026-11.57054374-11.5161291-11.57771266zm0 16.53958946c-2.7257924 0-4.9354838-2.2215079-4.9354838-4.9618768 0-2.740369 2.2096914-4.96187688 4.9354838-4.96187688 2.7257925 0 4.9354839 2.22150788 4.9354839 4.96187688-.002974 2.7391295-2.2109242 4.9588869-4.9354839 4.9618768zm0-8.26979473c-1.8171949 0-3.2903225 1.48100533-3.2903225 3.30791793s1.4731276 3.3079178 3.2903225 3.3079178c1.817195 0 3.2903226-1.4810052 3.2903226-3.3079178-.0019359-1.8261059-1.47393-3.30597168-3.2903226-3.30791793z" fill="#28387c"/></g></svg>