<svg height="56" viewBox="0 0 64 56" width="64" xmlns="http://www.w3.org/2000/svg"><g fill="none"><circle cx="50.02449" cy="50.02449" fill="#27aafe" r="4.310204"/><circle cx="13.97551" cy="50.02449" fill="#eef6ff" r="4.310204"/><rect fill="#eef6ff" height="19.069388" rx="2" width="25.6" x="1.044898" y="1.044898"/><g fill="#fff" opacity=".5" transform="translate(1.044898 1.044898)"><path d="m25.6 1.5699721c-.2482895-.92416566-1.0925219-1.56806109-2.0584418-1.5699721h-.8956492l-19.26127497 19.0693878h4.5398611z"/><path d="m2.14014166 0c-.56760608 0-1.11196938.22321-1.51332749.62056964-.4013581.39735965-.62681417.93629982-.62681417 1.49825122v14.83174604c0 .2788613.0558466.5549555.16425587.8123347l17.94165293-17.7629016z"/></g><path d="m13.844898 27.6897959c-.2771463 0-.5429621-.1134292-.7389341-.3155253s-.306036-.4762187-.3059639-.7620257v-6.4653061c0-.595115.4678168-1.077551 1.044898-1.077551.5770811 0 1.0448979.482436 1.0448979 1.077551v6.4653061c.0000721.285807-.1099919.5599296-.3059639.7620257s-.4617878.3155253-.738934.3155253z" fill="#28387c"/><path d="m18.2595918 27.6897959h-8.56816323c-.59150824 0-1.07102041-.4678167-1.07102041-1.0448979s.47951217-1.044898 1.07102041-1.044898h8.56816323c.5915083 0 1.0710204.4678168 1.0710204 1.044898s-.4795121 1.0448979-1.0710204 1.0448979z" fill="#28387c"/><path d="m24.5115646 1.04489796h-21.33333331c-.56580038 0-1.10843192.22015233-1.50851321.61206869s-.62482012.92347379-.62482012 1.47772723v3.13469388c0-.55425344.22473883-1.08581087.62482012-1.47772723.40008129-.39191637.94271283-.61208532 1.50851321-.61206869h21.33333331c.5658004-.00001663 1.108432.22015232 1.5085132.61206869.4000813.39191636.6248202.92347379.6248202 1.47772723v-3.13469388c0-.55425344-.2247389-1.08581087-.6248202-1.47772723-.4000812-.39191636-.9427128-.61206869-1.5085132-.61206869z" fill="#2c4b75" opacity=".1"/><g fill="#28387c"><path d="m13.844898 46.7591837c-.2771463 0-.5429621-.1117106-.7389341-.3107447-.195972-.199034-.306036-.4690032-.3059639-.7504799v-14.8571428c0-.5860981.4678168-1.0612245 1.044898-1.0612245.5770811 0 1.0448979.4751264 1.0448979 1.0612245v14.8571428c.0000721.2814767-.1099919.5514459-.3059639.7504799-.195972.1990341-.4617878.3107447-.738934.3107447z"/><path d="m50.155102 46.7591837c-.2771462 0-.542962-.1117106-.738934-.3107447-.195972-.199034-.306036-.4690032-.3059639-.7504799v-14.8571428c0-.5860981.4678168-1.0612245 1.0448979-1.0612245.5770812 0 1.044898.4751264 1.044898 1.0612245v14.8571428c.0000721.2814767-.1099919.5514459-.3059639.7504799-.195972.1990341-.4617878.3107447-.7389341.3107447z"/><path d="m9.63918367 51.2h-8.56816326c-.59150824 0-1.07102041-.4678168-1.07102041-1.044898s.47951217-1.0448979 1.07102041-1.0448979h8.56816326c.59150823 0 1.07102043.4678167 1.07102043 1.0448979s-.4795122 1.044898-1.07102043 1.044898z"/><path d="m62.9289796 51.2h-8.5681633c-.5915082 0-1.0710204-.4678168-1.0710204-1.044898s.4795122-1.0448979 1.0710204-1.0448979h8.5681633c.5915082 0 1.0710204.4678167 1.0710204 1.0448979s-.4795122 1.044898-1.0710204 1.044898z"/><path d="m45.6956268 51.2h-27.6524781c-.5873862 0-1.0635569-.4678168-1.0635569-1.044898s.4761707-1.0448979 1.0635569-1.0448979h27.6524781c.5873863 0 1.0635569.4678167 1.0635569 1.0448979s-.4761706 1.044898-1.0635569 1.044898z"/></g><path d="m13.9755102 48.8544956c1.7546676.0010581 3.3331981 1.0322624 3.9902873 2.6067289.7350995-1.7427862.1727703-3.7460791-1.3724742-4.8894275s-3.6903816-1.1433484-5.2356262 0c-1.5452445 1.1433484-2.10757366 3.1466413-1.37247415 4.8894275.65708915-1.5744665 2.23561965-2.6056708 3.99028725-2.6067289z" fill="#c7d3e3" opacity=".5"/><path d="m54.014777 51.4612245c.7350996-1.7427862.1727704-3.7460791-1.3724741-4.8894275-1.5452446-1.1433484-3.6903817-1.1433484-5.2356262 0s-2.1075737 3.1466413-1.3724742 4.8894275c.6570892-1.5744665 2.2356197-2.6056708 3.9902873-2.6067289 1.7546676.0010581 3.3331981 1.0322624 3.9902872 2.6067289z" fill="#fff" opacity=".2"/><path d="m24.4948195 21.4204082h-21.29984305c-1.76373871-.0019361-3.19305125-1.4393391-3.19497645-3.2130613v-14.99428568c.0019252-1.77372213 1.43123774-3.21112512 3.19497645-3.21306122h21.29984305c1.7637387.0019361 3.1930512 1.43933909 3.1949764 3.21306122v14.99428568c-.0019252 1.7737222-1.4312377 3.2111252-3.1949764 3.2130613zm-21.29984305-19.27836738c-.58793558.00059037-1.06440509.47975688-1.06499215 1.0710204v14.99428568c.00058706.5912636.47705657 1.0704301 1.06499215 1.0710204h21.29984305c.5879356-.0005903 1.0644051-.4797568 1.0649921-1.0710204v-14.99428568c-.000587-.59126352-.4770565-1.07043003-1.0649921-1.0710204z" fill="#28387c"/><rect fill="#27aafe" height="19.069388" rx="2" width="25.6" x="37.355102" y="1.044898"/><g fill="#fff" opacity=".5" transform="translate(37.093878 1.044898)"><path d="m25.6 1.5699721c-.2482895-.92416566-1.0925219-1.56806109-2.0584418-1.5699721h-.8956492l-19.26127497 19.0693878h4.53989321z" opacity=".35"/><path d="m2.14014166 0c-.56760608 0-1.11196938.22321-1.51332749.62056964-.4013581.39735965-.62681417.93629982-.62681417 1.49825122v14.83174604c0 .2788613.0558466.5549555.16425587.8123347l17.94165293-17.7629016z" opacity=".35"/></g><path d="m50.155102 27.6897959c-.2771462 0-.542962-.1134292-.738934-.3155253s-.306036-.4762187-.3059639-.7620257v-6.4653061c0-.595115.4678168-1.077551 1.0448979-1.077551.5770812 0 1.044898.482436 1.044898 1.077551v6.4653061c.0000721.285807-.1099919.5599296-.3059639.7620257s-.4617878.3155253-.7389341.3155253z" fill="#28387c"/><path d="m54.3085714 27.6897959h-8.5681632c-.5915083 0-1.0710204-.4678167-1.0710204-1.0448979s.4795121-1.044898 1.0710204-1.044898h8.5681632c.5915083 0 1.0710204.4678168 1.0710204 1.044898s-.4795121 1.0448979-1.0710204 1.0448979z" fill="#28387c"/><path d="m60.8217687 14.3673469h-21.3333333c-.5658004 0-1.108432.2201524-1.5085132.6120687-.4000813.3919164-.6248202.9234738-.6248202 1.4777273v3.1346938c0-.5542534.2247389-1.0858108.6248202-1.4777272.4000812-.3919164.9427128-.6120853 1.5085132-.6120687h21.3333333c.5658004-.0000166 1.1084319.2201523 1.5085132.6120687s.6248201.9234738.6248201 1.4777272v-3.1346938c0-.5542535-.2247388-1.0858109-.6248201-1.4777273-.4000813-.3919163-.9427128-.6120687-1.5085132-.6120687z" fill="#2c4b75" opacity=".1" transform="matrix(1 0 0 -1 0 33.959184)"/><path d="m60.8050235 21.4204082h-21.299843c-1.7637387-.0019361-3.1930512-1.4393391-3.1949764-3.2130613v-14.99428568c.0019252-1.77372213 1.4312377-3.21112512 3.1949764-3.21306122h21.299843c1.7637388.0019361 3.1930513 1.43933909 3.1949765 3.21306122v14.99428568c-.0019252 1.7737222-1.4312377 3.2111252-3.1949765 3.2130613zm-21.299843-19.27836738c-.5879356.00059037-1.0644051.47975688-1.0649921 1.0710204v14.99428568c.000587.5912636.4770565 1.0704301 1.0649921 1.0710204h21.299843c.5879356-.0005903 1.0644051-.4797568 1.0649922-1.0710204v-14.99428568c-.0005871-.59126352-.4770566-1.07043003-1.0649922-1.0710204z" fill="#28387c"/><path d="m13.9755102 55.3795918c-2.9575412 0-5.35510204-2.3975608-5.35510204-5.355102s2.39756084-5.355102 5.35510204-5.355102 5.355102 2.3975608 5.355102 5.355102c-.0034761 2.9561001-2.3990019 5.3516259-5.355102 5.355102zm0-8.5681632c-1.7745247 0-3.2130612 1.4385365-3.2130612 3.2130612s1.4385365 3.2130612 3.2130612 3.2130612 3.2130612-1.4385365 3.2130612-3.2130612c-.0019361-1.7737221-1.4393391-3.2111251-3.2130612-3.2130612z" fill="#28387c"/><path d="m50.0244898 55.3795918c-2.9575412 0-5.355102-2.3975608-5.355102-5.355102s2.3975608-5.355102 5.355102-5.355102 5.355102 2.3975608 5.355102 5.355102c-.0034761 2.9561001-2.3990019 5.3516259-5.355102 5.355102zm0-8.5681632c-1.299562 0-2.4711607.7828372-2.9684815 1.9834759s-.222425 2.5826336.6965041 3.5015627c.9189291.918929 2.300924 1.1938249 3.5015627.6965041s1.9834759-1.6689195 1.9834759-2.9684815c-.0019361-1.7737221-1.4393391-3.2111251-3.2130612-3.2130612z" fill="#28387c"/></g></svg>