<?xml version="1.0" encoding="UTF-8"?>
<svg width="271px" height="66px" viewBox="0 0 271 66" version="1.1" xmlns="http://www.w3.org/2000/svg" xmlns:xlink="http://www.w3.org/1999/xlink">
    <title>logo.svg</title>
    <g id="Homepage" stroke="none" stroke-width="1" fill="none" fill-rule="evenodd">
        <g id="Desktop-HD" transform="translate(-301, -65)">
            <g id="logo.svg" transform="translate(436.2833, 97.9437) scale(-1, 1) rotate(-180) translate(-436.2833, -97.9437)translate(301, 65.4437)">
                <path d="M24.4481309,41.9068089 C24.4481309,41.9068089 34.0428117,51.1478084 50.2333333,54.2280298 C50.2333333,54.2280298 12.5622281,57.5202868 0.879171274,38.3756762 C0.879171274,38.3756762 -6.80922608,24.7396327 23.2862855,21.0769841 C23.2862855,21.0769841 11.8552798,29.5852526 24.4481309,41.9068089" id="Path" fill="#FFFFFF" fill-rule="nonzero"></path>
                <path d="M58.570619,43.8103175 C58.570619,43.8103175 70.0399038,35.284472 57.4048829,22.9374608 C57.4048829,22.9374608 47.7780724,13.6773705 31.5333333,10.5907858 C31.5333333,10.5907858 67.934123,7.80509357 81.3211125,26.4758884 C81.3211125,26.4758884 88.7669118,40.1401024 58.570619,43.8103175" id="Path" fill="#FFFFFF" fill-rule="nonzero"></path>
                <polygon id="Path" fill="#FFFFFF" fill-rule="nonzero" points="37.5909711 29.5567184 42.6618333 29.5567184 39.8832971 21.0769841 49.8004357 21.0769841 57.5666667 43.8103175 47.8862357 43.8103175 44.6592009 35.2287982 39.5886753 35.2287982 42.5850633 43.8103175 32.5968788 43.8103175 24.5666667 21.0769841 34.5551879 21.0769841"></polygon>
                <polygon id="Path" fill="#FFFFFF" fill-rule="nonzero" points="106.867407 21.4436508 102.014265 21.4436508 103.897944 30.3912179 95.437157 30.3912179 93.5531421 21.4436508 88.7 21.4436508 93.2659262 43.0769841 98.1190683 43.0769841 96.29914 34.449105 104.760263 34.449105 106.580191 43.0769841 111.433333 43.0769841"></polygon>
                <path d="M127.00859,37.6126542 C127.02924,37.7191065 127.045227,37.8151487 127.056218,37.9004449 C127.066543,37.9854053 127.071873,38.0602914 127.071873,38.1240956 C127.071873,38.6137092 126.702168,38.8591877 125.962759,38.8591877 L119.972548,38.8591877 C119.549552,38.8591877 119.24846,38.7738915 119.06927,38.6032991 C118.889413,38.4323708 118.746861,38.1026036 118.641278,37.6126542 L116.359436,26.8438407 C116.316803,26.630936 116.296153,26.4925815 116.296153,26.4284415 C116.296153,25.9808043 116.602242,25.7574895 117.215085,25.7574895 L123.205297,25.7574895 C123.712558,25.7574895 124.071604,25.8424499 124.282769,26.0130423 C124.493933,26.1832989 124.642148,26.4606794 124.726747,26.8438407 L127.00859,37.6126542 Z M114.109235,21.4436508 C113.031762,21.4436508 112.25505,21.6353994 111.779763,22.0185607 C111.304477,22.4020578 111.066667,22.9877136 111.066667,23.7761997 C111.066667,24.180853 111.129949,24.6600564 111.256848,25.2141459 L114.204492,39.306489 C114.478606,40.5849246 114.943568,41.5322498 115.598711,42.1508151 C116.25352,42.7683731 117.26771,43.0769841 118.641278,43.0769841 L129.322074,43.0769841 C130.399879,43.0769841 131.170929,42.8855714 131.635891,42.5020743 C132.100519,42.1185772 132.333333,41.5218396 132.333333,40.7121973 C132.333333,40.4996284 132.317346,40.2756419 132.285705,40.0412453 C132.252223,39.7958041 132.215249,39.5508601 132.174793,39.306489 L129.22715,25.2141459 C128.952369,23.9360462 128.482412,22.9877136 127.816944,22.3701556 C127.151143,21.7522619 126.141949,21.4436508 124.79003,21.4436508 L114.109235,21.4436508 Z" id="Shape" fill="#FFFFFF" fill-rule="nonzero"></path>
                <path d="M131.6,21.4436508 L132.490649,25.6620534 L143.975469,25.6620534 C144.357271,25.6620534 144.638106,25.7359309 144.818643,25.8857006 C144.998511,26.0341272 145.131574,26.3111676 145.216493,26.7161504 L145.852718,29.7199405 C145.873446,29.8048996 145.884479,29.9220961 145.884479,30.0711942 C145.884479,30.4550212 145.608325,30.6467667 145.057353,30.6467667 L136.563093,30.6467667 C135.692838,30.6467667 135.061962,30.8328036 134.67013,31.2055489 C134.277295,31.5786301 134.081379,32.1055106 134.081379,32.7875339 C134.081379,33.0434185 134.113475,33.351689 134.176997,33.7143601 L135.354164,39.3062117 C135.629316,40.5846275 136.096037,41.5319379 136.753659,42.1504937 C137.410947,42.7680421 138.440008,43.0769841 139.839837,43.0769841 L153.233333,43.0769841 L152.374446,38.9546222 L140.953482,38.9546222 C140.613805,38.9546222 140.369412,38.8800732 140.221639,38.730975 C140.072863,38.5818769 139.955849,38.3155822 139.871598,37.9324269 L139.267134,35.0881449 C139.248147,35.0144 139.232197,34.9398995 139.219325,34.8648335 C139.208522,34.8014975 139.203153,34.7373467 139.203277,34.673088 C139.203277,34.3530643 139.436638,34.1935561 139.903359,34.1935561 L148.524998,34.1935561 C149.415647,34.1935561 150.056887,34.0018106 150.449722,33.6183194 C150.841888,33.2348283 151.038473,32.7019032 151.038473,32.0205516 C151.038473,31.7435111 151.006377,31.4456506 150.942521,31.1259628 L149.702166,25.2144232 C149.426011,23.9363433 148.95929,22.9880254 148.302336,22.3704771 C147.64438,21.7522571 146.626352,21.4436508 145.24792,21.4436508 L131.6,21.4436508 Z" id="Path" fill="#FFFFFF" fill-rule="nonzero"></path>
                <polygon id="Path" fill="#FFFFFF" fill-rule="nonzero" points="161.437595 21.4436508 156.619845 21.4436508 160.2648 38.8273515 155.066667 38.8273515 155.95434 43.0769841 171.2 43.0769841 170.31266 38.8273515 165.08255 38.8273515"></polygon>
                <polygon id="Path" fill="#FFFFFF" fill-rule="nonzero" points="187.534342 21.4436508 182.681128 21.4436508 184.564835 30.3912179 176.103923 30.3912179 174.219545 21.4436508 169.366667 21.4436508 173.932325 43.0769841 178.785538 43.0769841 176.965919 34.449105 185.426831 34.449105 187.247122 43.0769841 192.1 43.0769841"></polygon>
                <path d="M203.33884,38.7312434 L198.053865,28.3778291 L204.015507,28.3778291 L203.33884,38.7312434 Z M204.402609,21.4436508 L204.177053,24.7990825 L196.31343,24.7990825 L194.637681,21.4436508 L189.9,21.4436508 L201.244155,43.0769841 L207.657585,43.0769841 L209.333333,21.4436508 L204.402609,21.4436508 Z" id="Shape" fill="#FFFFFF" fill-rule="nonzero"></path>
                <polygon id="Path" fill="#FFFFFF" fill-rule="nonzero" points="214.393225 21.4436508 212.266667 43.0769841 217.326175 43.0769841 218.550495 27.2913871 226.8332 43.0769841 231.7 43.0769841 219.90419 21.4436508"></polygon>
                <path d="M245.442256,37.6126542 C245.462906,37.7191065 245.478894,37.8151487 245.489552,37.9004449 C245.499877,37.9854053 245.505206,38.0602914 245.505206,38.1240956 C245.505206,38.6137092 245.135501,38.8591877 244.396092,38.8591877 L238.405881,38.8591877 C237.983219,38.8591877 237.682126,38.7738915 237.502603,38.6032991 C237.32308,38.4323708 237.180527,38.1026036 237.074945,37.6126542 L234.792769,26.8438407 C234.750137,26.630936 234.729819,26.4925815 234.729819,26.4284415 C234.729819,25.9808043 235.035575,25.7574895 235.648752,25.7574895 L241.63863,25.7574895 C242.146224,25.7574895 242.504938,25.8424499 242.716435,26.0130423 C242.927267,26.1832989 243.075481,26.4606794 243.16008,26.8438407 L245.442256,37.6126542 Z M232.542568,21.4436508 C231.465096,21.4436508 230.688716,21.6353994 230.213097,22.0185607 C229.73781,22.4020578 229.5,22.9877136 229.5,23.7761997 C229.5,24.180853 229.563283,24.6600564 229.690181,25.2141459 L232.637825,39.306489 C232.912272,40.5849246 233.376901,41.5322498 234.032377,42.1508151 C234.687187,42.7683731 235.701376,43.0769841 237.074945,43.0769841 L247.75574,43.0769841 C248.833545,43.0769841 249.604263,42.8855714 250.069557,42.5020743 C250.533853,42.1185772 250.766667,41.5218396 250.766667,40.7121973 C250.766667,40.4996284 250.750679,40.2756419 250.719371,40.0412453 C250.685773,39.7958032 250.648688,39.5508593 250.608127,39.306489 L247.660816,25.2141459 C247.385703,23.9360462 246.916078,22.9877136 246.25061,22.3701556 C245.584809,21.7522619 244.575283,21.4436508 243.223363,21.4436508 L232.542568,21.4436508 Z" id="Shape" fill="#FFFFFF" fill-rule="nonzero"></path>
                <path d="M253.805761,21.4436508 C252.71833,21.4436508 251.93948,21.6353964 251.470556,22.0188875 C251.001296,22.4020429 250.766667,22.9984354 250.766667,23.808401 C250.766667,24.0213023 250.777087,24.2399124 250.798937,24.4632238 C250.819778,24.686871 250.862804,24.937047 250.927008,25.2144232 L253.901563,39.3062117 C254.178211,40.5846275 254.653185,41.5319379 255.325141,42.1504937 C255.99676,42.7680421 257.014946,43.0769841 258.379698,43.0769841 L270.566667,43.0769841 L269.671174,38.7632125 L259.882943,38.7632125 C259.371665,38.7632125 259.024426,38.6832905 258.843243,38.5234465 C258.662061,38.3636026 258.518527,38.0388776 258.411632,37.5486 L256.140631,27.0039366 C256.122289,26.9138239 256.106372,26.8232354 256.092898,26.7322691 C256.081663,26.6528483 256.07627,26.5727116 256.076763,26.4925032 C256.076763,26.2577744 256.151387,26.0875204 256.300636,25.9810697 C256.449213,25.8742832 256.726869,25.8215616 257.132261,25.8215616 L266.984024,25.8215616 L266.056598,21.4436508 L253.805761,21.4436508 Z" id="Path" fill="#FFFFFF" fill-rule="nonzero"></path>
                <rect id="Rectangle" stroke-opacity="0" stroke="#FFFFFF" x="32.5" y="0.5" width="50" height="64"></rect>
            </g>
        </g>
    </g>
</svg>