<?xml version="1.0" encoding="UTF-8"?>
<svg width="43px" height="48px" viewBox="0 0 43 48" version="1.1" xmlns="http://www.w3.org/2000/svg" xmlns:xlink="http://www.w3.org/1999/xlink">
    <title>networkddos</title>
    <g id="Page-1" stroke="none" stroke-width="1" fill="none" fill-rule="evenodd">
        <g id="Desktop-HD" transform="translate(-264.000000, -609.000000)" fill="#0693FE" fill-rule="nonzero">
            <g id="networkddos" transform="translate(264.000000, 609.000000)">
                <path d="M21.4753037,48 C21.3580964,48 21.2414827,47.9833432 21.1292736,47.9494787 C20.9423669,47.8989633 2.53205414,42.4256271 2.53205414,24.0052113 C2.53205414,23.0580488 2.50679647,22.1614017 2.48153881,21.2900122 C2.59349792,16.3874471 1.79797944,11.5064403 0.135101635,6.89314255 C-0.0626831879,6.50065056 -0.0421837351,6.03355692 0.189225206,5.65990105 C0.420634147,5.28624519 0.829666555,5.05977402 1.26917084,5.06196177 C1.39040764,5.06196177 13.6100665,4.9988176 20.7756663,0.222592958 C21.3550655,-0.139143595 22.117076,0.0253579185 22.4956483,0.5938997 C22.8742206,1.16244148 22.7321363,1.92894838 22.174941,2.32403077 C16.0221736,6.42587573 6.90920766,7.33515171 3.06499089,7.5321615 C4.32700917,11.9885926 4.98037166,16.5952654 5.00730541,21.226868 C5.03256308,22.1235152 5.05782074,23.04542 5.05782074,24.0178401 C5.05782074,40.511096 21.1393767,45.337836 21.8238594,45.5373716 C22.4062142,45.7275536 22.7680853,46.3082657 22.6822313,46.9148424 C22.5963774,47.5214192 22.0875627,47.9788957 21.4753037,48 Z" id="Path"></path>
                <path d="M21.4753037,48 C20.84778,47.9975009 20.3172785,47.5346158 20.2297755,46.9132179 C20.1422726,46.29182 20.5243155,45.7004337 21.1267479,45.5247427 C21.8112306,45.3252072 37.8927866,40.4984672 37.8927866,24.0052113 C37.8927866,23.0327911 37.9180442,22.1108863 37.9433019,21.226868 C37.9712077,16.5986557 38.6245604,11.9954505 39.8856164,7.54226457 C36.0413996,7.34020324 26.9284337,6.4359788 20.7756663,2.33413384 C20.385454,2.0905124 20.1585776,1.65398126 20.1834397,1.19463506 C20.2083018,0.735288853 20.4809693,0.325795519 20.895197,0.125714396 C21.3094247,-0.0743667275 21.7996825,-0.0333830836 22.174941,0.232696024 C29.3405409,4.9988176 41.5601997,5.06196177 41.6814365,5.06196177 C42.119036,5.06153849 42.5256668,5.28768294 42.7561588,5.65966004 C42.9866508,6.03163715 43.0081496,6.49642492 42.8129799,6.88809102 C41.1517512,11.5017555 40.3571139,16.3826095 40.4690685,21.2849607 C40.4438108,22.1538244 40.4185532,23.0529973 40.4185532,23.997634 C40.4185532,42.4180498 22.0082404,47.891386 21.8213337,47.9419014 C21.7095136,47.9783352 21.5928912,47.9979141 21.4753037,48 Z" id="Path"></path>
                <path d="M21.4753037,47.999994 C20.7778325,47.999994 20.2124204,47.4345819 20.2124204,46.7371107 L20.2124204,1.27331186 C20.2124204,0.575840677 20.7778325,0.0104285635 21.4753037,0.0104285635 C22.1727748,0.0104285635 22.738187,0.575840677 22.738187,1.27331186 L22.738187,46.7371107 C22.738187,47.4345819 22.1727748,47.999994 21.4753037,47.999994 Z" id="Path"></path>
                <path d="M21.4753037,25.2680946 C20.7778325,25.2680946 20.2124204,24.7026825 20.2124204,24.0052113 C20.2124204,23.3077401 20.7778325,22.742328 21.4753037,22.742328 C27.3381355,22.7498164 33.1664893,21.8457399 38.7515472,20.0624896 C39.4078676,19.8253494 40.1321605,20.1651621 40.3693007,20.8214825 C40.6064409,21.4778029 40.2666282,22.2020958 39.6103079,22.439236 C33.7536024,24.3380575 27.6320808,25.2929467 21.4753037,25.2680946 L21.4753037,25.2680946 Z" id="Path"></path>
                <path d="M21.4753037,25.2680946 C15.3185266,25.2929467 9.1970049,24.3380575 3.34029945,22.439236 C2.68397908,22.2020958 2.34416641,21.4778029 2.58130661,20.8214825 C2.81844681,20.1651621 3.54273971,19.8253494 4.1990601,20.0624896 C9.784118,21.8457399 15.6124718,22.7498164 21.4753037,22.742328 C22.1727748,22.742328 22.738187,23.3077401 22.738187,24.0052113 C22.738187,24.7026825 22.1727748,25.2680946 21.4753037,25.2680946 L21.4753037,25.2680946 Z" id="Path"></path>
            </g>
        </g>
    </g>
</svg>