<?xml version="1.0" encoding="UTF-8"?>
<svg width="54px" height="49px" viewBox="0 0 54 49" version="1.1" xmlns="http://www.w3.org/2000/svg" xmlns:xlink="http://www.w3.org/1999/xlink">
    <title>merch</title>
    <g id="Page-1" stroke="none" stroke-width="1" fill="none" fill-rule="evenodd">
        <g id="Desktop-HD" transform="translate(-450.000000, -160.000000)" fill="#0693FE" fill-rule="nonzero">
            <g id="merch" transform="translate(450.000000, 160.007993)">
                <path d="M26.8328129,47.9999877 C26.681031,47.9999877 26.5302526,47.975383 26.3865409,47.9265492 L0.965981265,39.4530293 C0.389508436,39.2610257 0.000461347335,38.7218201 0,38.1142132 L0,9.86914696 C0.000344409033,9.41543627 0.218653155,8.98951896 0.586791384,8.72432515 C0.954929614,8.45913135 1.42806309,8.38695807 1.85852536,8.53033082 L27.279085,17.0038507 C27.77573,17.1487055 28.1534222,17.5535199 28.2635425,18.0590027 C28.3736629,18.5644854 28.198584,19.089722 27.8071981,19.428036 C27.4158122,19.7663499 26.8707698,19.8635862 26.3865409,19.681483 L2.82450662,11.8293546 L2.82450662,37.0973908 L27.279085,45.2489169 C27.9346002,45.468986 28.3343695,46.1313253 28.2236482,46.8138731 C28.1129269,47.4964208 27.5242811,47.9984218 26.8328129,47.9999877 L26.8328129,47.9999877 Z" id="Path"></path>
                <path d="M26.8328129,19.7549214 C26.1413448,19.7533556 25.552699,19.2513546 25.4419777,18.5688069 C25.3312564,17.8862591 25.7310256,17.2239198 26.3865409,17.0038507 L51.8071005,8.53033082 C52.5358495,8.31777902 53.3022597,8.71934191 53.5423125,9.43950029 C53.7823653,10.1596587 53.4101749,10.9407551 52.6996446,11.2079631 L27.279085,19.681483 C27.1353732,19.7303168 26.9845949,19.7551284 26.8328129,19.7549214 Z" id="Path"></path>
                <path d="M26.8328129,48 C26.0528469,48 25.4205596,47.367699 25.4205596,46.5877331 L25.4205596,18.3426668 C25.4205596,17.5627009 26.0528469,16.9304135 26.8328129,16.9304135 C27.6127789,16.9304135 28.2450662,17.5627009 28.2450662,18.3426668 L28.2450662,44.6275255 L50.8411192,37.0973908 L50.8411192,9.86914696 C50.8411192,9.089181 51.4734065,8.45689365 52.2533725,8.45689365 C53.0333385,8.45689365 53.6656258,9.089181 53.6656258,9.86914696 L53.6656258,38.1142132 C53.6651645,38.7218201 53.2761174,39.2610257 52.6996446,39.4530293 L27.279085,47.9265492 C27.1354887,47.9758429 26.9846328,48.0006673 26.8328129,48 L26.8328129,48 Z" id="Path"></path>
                <path d="M1.41225331,11.2814016 C0.72078517,11.2798357 0.132139362,10.7778347 0.0214180639,10.095287 C-0.0893032345,9.41273923 0.310466018,8.7503999 0.965981265,8.53033082 L26.3865409,0.0568109561 C27.1152899,-0.15574085 27.8817001,0.245822039 28.1217529,0.965980425 C28.3618057,1.68613881 27.9896153,2.46723525 27.279085,2.73444323 L1.85852536,11.2079631 C1.71481362,11.2567969 1.56403526,11.2816085 1.41225331,11.2814016 Z" id="Path"></path>
                <path d="M52.2533725,11.2814016 C52.1015906,11.2816085 51.9508122,11.2567969 51.8071005,11.2079631 L26.3865409,2.73444323 C25.6760105,2.46723525 25.3038201,1.68613881 25.5438729,0.965980425 C25.7839257,0.245822039 26.5503359,-0.15574085 27.279085,0.0568109561 L52.6996446,8.53033082 C53.3551598,8.7503999 53.7549291,9.41273923 53.6442078,10.095287 C53.5334865,10.7778347 52.9448407,11.2798357 52.2533725,11.2814016 Z" id="Path"></path>
                <path d="M39.5430927,15.5181615 C39.3913108,15.5183685 39.2405324,15.4935568 39.0968207,15.444723 L13.6762611,6.97120317 C13.179616,6.82634835 12.8019238,6.42153392 12.6918035,5.9160512 C12.5816832,5.41056849 12.756762,4.88533188 13.1481479,4.54701791 C13.5395338,4.20870393 14.0845762,4.11146769 14.5688052,4.29357089 L39.9893648,12.7670908 C40.64488,12.9871598 41.0446493,13.6494992 40.933928,14.3320469 C40.8232067,15.0145947 40.2345609,15.5165956 39.5430927,15.5181615 Z" id="Path"></path>
            </g>
        </g>
    </g>
</svg>