<?xml version="1.0" encoding="UTF-8"?>
<svg width="49px" height="48px" viewBox="0 0 49 48" version="1.1" xmlns="http://www.w3.org/2000/svg" xmlns:xlink="http://www.w3.org/1999/xlink">
    <title>support</title>
    <g id="Page-1" stroke="none" stroke-width="1" fill="none" fill-rule="evenodd">
        <g id="Desktop-HD" transform="translate(-1329.000000, -281.000000)" fill="#0693FE" fill-rule="nonzero">
            <g id="support" transform="translate(1329.000000, 281.000000)">
                <path d="M24.0035857,37.892731 C21.8092713,37.8953557 19.64518,37.3811676 17.6865661,36.391797 C15.0559701,35.0633346 12.920713,32.9263063 11.5944323,30.2946097 C9.59452847,26.3313726 9.59452847,21.6541292 11.5944323,17.6908921 C12.921728,15.0588269 15.0590044,12.9224361 17.6916197,11.5962316 C21.6554479,9.59507267 26.3340358,9.59507267 30.297864,11.5962316 C32.92846,12.924694 35.0637171,15.0617224 36.3899978,17.693419 C38.3899425,21.6575363 38.3899425,26.335546 36.3899978,30.2996633 C35.0615353,32.9302593 32.924507,35.0655163 30.2928104,36.391797 C28.3435624,37.3796107 26.1888414,37.8938349 24.0035857,37.892731 Z M24.0035857,12.6246048 C22.2110812,12.6229527 20.4434012,13.043664 18.8438441,13.852671 C16.6961388,14.9349922 14.9516256,16.6768488 13.8660326,18.8229021 L13.8660326,18.8229021 C12.226118,22.0708356 12.226118,25.904559 13.8660326,29.1524925 C14.9494445,31.299647 16.6921866,33.0432747 18.8387904,34.1277772 C22.0870246,35.7701654 25.9226735,35.7701654 29.1709077,34.1277772 C31.318613,33.0454561 33.0631262,31.3035995 34.1487192,29.1575462 C35.7899701,25.9072608 35.7899701,22.0706607 34.1487192,18.8203753 C33.0653073,16.6732208 31.3225652,14.9295931 29.1759613,13.8450906 C27.5714594,13.0381228 25.7995819,12.6200393 24.0035857,12.6246048 Z" id="Shape"></path>
                <path d="M24.0035857,47.9999762 C19.7996303,48.0035619 15.6688204,46.9002697 12.0265165,44.8010135 C8.37108644,42.6743265 5.33063734,39.6347481 3.20290348,35.9799274 C-1.06763449,28.5644224 -1.06763449,19.4362403 3.20290348,12.0207353 L3.20290348,12.0207353 C5.32982184,8.36680253 8.36944768,5.3280474 12.0239897,3.20217594 C19.4388515,-1.06739198 28.5657931,-1.06739198 35.9806549,3.20217594 C39.6360849,5.32886295 42.676534,8.36844135 44.8042679,12.0232621 C50.2375793,21.4248938 48.6631256,33.3058999 40.9685736,40.967846 C39.4797876,42.4575027 37.8039999,43.7476809 35.9831817,44.8060672 C32.3397836,46.904319 28.2079851,48.0058995 24.0035857,47.9999762 Z M5.38859227,13.2816124 C1.57136179,19.9140327 1.57136179,28.0765227 5.38859227,34.708943 C7.29490372,37.9830984 10.0182919,40.7064865 13.2924472,42.612798 C19.9242241,46.429059 28.085474,46.429059 34.717251,42.612798 C37.9914047,40.7073407 40.7141689,37.9837058 42.6185791,34.708943 C46.4348401,28.0771661 46.4348401,19.9159162 42.6185791,13.2841393 C40.7122676,10.0099839 37.9888795,7.28659576 34.7147242,5.38028431 C28.0821179,1.56712857 19.9225267,1.56712857 13.2899204,5.38028431 C11.6586616,6.32794305 10.1577526,7.48399131 8.82505094,8.81926979 C7.49273722,10.1530141 6.33775003,11.652799 5.38859227,13.2816124 Z" id="Shape"></path>
                <path d="M29.7394395,13.9891186 C29.2738098,13.9888781 28.8460555,13.7325411 28.6262778,13.3220428 C28.4065001,12.9115445 28.4303285,12.4134334 28.6882874,12.0257889 L34.2978009,3.58625074 C34.6930461,3.02882569 35.459869,2.88668289 36.0286452,3.26541125 C36.5974213,3.64413961 36.7619907,4.40646425 36.400105,4.98610228 L30.7905916,13.4256405 C30.5564887,13.7774358 30.1620079,13.9889003 29.7394395,13.9891186 Z" id="Path"></path>
                <path d="M35.2731487,19.5228325 C34.7155297,19.5229592 34.2237682,19.1575072 34.0630568,18.6235496 C33.9023455,18.0895919 34.1106955,17.5134193 34.5757497,17.205745 L43.0127611,11.5962316 C43.3887239,11.3371186 43.8752427,11.3010268 44.2853237,11.5018282 C44.6954047,11.7026296 44.9652296,12.1090747 44.9910911,12.5649462 C45.0169526,13.0208176 44.794826,13.4551711 44.4100859,13.7010626 L35.9705477,19.310576 C35.764581,19.449567 35.5216246,19.5235102 35.2731487,19.5228325 L35.2731487,19.5228325 Z" id="Path"></path>
                <path d="M43.7126869,36.604052 C43.4638143,36.6046043 43.2203208,36.5316442 43.0127611,36.3943238 L34.5757497,30.7848104 C34.1807507,30.5438782 33.9490462,30.1063026 33.9717648,29.644181 C33.9944835,29.1820593 34.2679909,28.7693208 34.6847173,28.5682944 C35.1014438,28.3672679 35.5947222,28.4101132 35.9705477,28.6799795 L44.4100859,34.2894929 C44.8727418,34.5979861 45.0792984,35.1727097 44.9188719,35.7051399 C44.7584453,36.2375701 44.268759,36.6025086 43.7126869,36.604052 Z" id="Path"></path>
                <path d="M35.3489529,44.9677829 C34.9263845,44.9675645 34.5319037,44.7561001 34.2978009,44.4043047 L28.6882874,35.9647665 C28.4220986,35.5893533 28.3810981,35.0988934 28.5812617,34.6844949 C28.7814253,34.2700964 29.1910875,33.9973166 29.650623,33.9724442 C30.1101586,33.9475719 30.5468697,34.1745418 30.7905916,34.564915 L36.400105,43.0044532 C36.6580639,43.3920976 36.6818924,43.8902088 36.4621147,44.300707 C36.242337,44.7112053 35.8145826,44.9675423 35.3489529,44.9677829 L35.3489529,44.9677829 Z" id="Path"></path>
                <path d="M12.6582184,44.9677829 C12.1925888,44.9675423 11.7648344,44.7112053 11.5450567,44.300707 C11.325279,43.8902088 11.3491074,43.3920976 11.6070664,43.0044532 L17.2165798,34.564915 C17.4603017,34.1745418 17.8970128,33.9475719 18.3565483,33.9724442 C18.8160839,33.9973166 19.2257461,34.2700964 19.4259097,34.6844949 C19.6260733,35.0988934 19.5850727,35.5893533 19.3188839,35.9647665 L13.7093705,44.4043047 C13.4752676,44.7561001 13.0807869,44.9675645 12.6582184,44.9677829 L12.6582184,44.9677829 Z" id="Path"></path>
                <path d="M4.29448447,36.604052 C3.73841236,36.6025086 3.24872605,36.2375701 3.08829949,35.7051399 C2.92787294,35.1727097 3.1344296,34.5979861 3.5970855,34.2894929 L12.0366237,28.6799795 C12.4124492,28.4101132 12.9057276,28.3672679 13.3224541,28.5682944 C13.7391805,28.7693208 14.0126879,29.1820593 14.0354065,29.644181 C14.0581252,30.1063026 13.8264207,30.5438782 13.4314216,30.7848104 L4.99441024,36.3943238 C4.78685056,36.5316442 4.54335711,36.6046043 4.29448447,36.604052 L4.29448447,36.604052 Z" id="Path"></path>
                <path d="M12.7340227,19.5228325 C12.4855467,19.5235102 12.2425904,19.449567 12.0366237,19.310576 L3.5970855,13.7010626 C3.21234534,13.4551711 2.99021875,13.0208176 3.01608025,12.5649462 C3.04194175,12.1090747 3.3117667,11.7026296 3.72184766,11.5018282 C4.13192862,11.3010268 4.61844745,11.3371186 4.99441024,11.5962316 L13.4314216,17.205745 C13.8964759,17.5134193 14.1048259,18.0895919 13.9441145,18.6235496 C13.7834032,19.1575072 13.2916417,19.5229592 12.7340227,19.5228325 Z" id="Path"></path>
                <path d="M18.2677319,13.9891186 C17.8451635,13.9889003 17.4506827,13.7774358 17.2165798,13.4256405 L11.6070664,4.98610228 C11.3408776,4.61068905 11.299877,4.12022919 11.5000406,3.7058307 C11.7002043,3.29143222 12.1098664,3.01865238 12.569402,2.99378002 C13.0289375,2.96890766 13.4656486,3.19587755 13.7093705,3.58625074 L19.3188839,12.0257889 C19.5768429,12.4134334 19.6006713,12.9115445 19.3808936,13.3220428 C19.1611159,13.7325411 18.7333615,13.9888781 18.2677319,13.9891186 L18.2677319,13.9891186 Z" id="Path"></path>
            </g>
        </g>
    </g>
</svg>