<?xml version="1.0" encoding="UTF-8"?>
<svg width="48px" height="36px" viewBox="0 0 48 36" version="1.1" xmlns="http://www.w3.org/2000/svg" xmlns:xlink="http://www.w3.org/1999/xlink">
    <title>networkspeed</title>
    <g id="Page-1" stroke="none" stroke-width="1" fill="none" fill-rule="evenodd">
        <g id="Desktop-HD" transform="translate(-386.000000, -763.000000)" fill="#0693FE" fill-rule="nonzero">
            <g id="networkspeed" transform="translate(386.000000, 763.000000)">
                <path d="M46.8266592,12.5417633 C46.4924818,12.5423105 46.1737852,12.4009532 45.9498865,12.1528721 C40.3614219,5.91750707 32.3837493,2.35463313 24.0105352,2.35463313 C15.6373211,2.35463313 7.65964848,5.91750707 2.07118387,12.1528721 C1.79208635,12.4767314 1.35947902,12.6240322 0.940741316,12.5377827 C0.522003613,12.4515332 0.182820615,12.1452629 0.0544250923,11.7374702 C-0.0739704301,11.3296776 0.0285622221,10.8843309 0.322352299,10.5737385 C6.35765765,3.84458701 14.970198,0 24.0093567,0 C33.0485155,0 41.6610558,3.84458701 47.6963612,10.5737385 C48.0083175,10.9193866 48.087515,11.4163052 47.8984616,11.8418028 C47.7094081,12.2673004 47.2875518,12.5415952 46.8219454,12.5417633 L46.8266592,12.5417633 Z" id="Path"></path>
                <path d="M40.1330182,19.2354899 C39.788541,19.2354899 39.4613003,19.084724 39.2373901,18.822944 C35.438628,14.3596265 29.8727543,11.7879113 24.0117136,11.7879113 C18.150673,11.7879113 12.5847993,14.3596265 8.78603717,18.822944 C8.51237256,19.1429211 8.0887903,19.2925938 7.67484971,19.2155819 C7.26090913,19.1385699 6.91949765,18.8465732 6.77922168,18.4495842 C6.6389457,18.0525951 6.72111649,17.6109258 6.99478111,17.2909487 C11.2413336,12.3040084 17.4616921,9.43082312 24.0117136,9.43082312 C30.5617352,9.43082312 36.7820937,12.3040084 41.0286462,17.2909487 C41.3276557,17.6405296 41.3959187,18.1321432 41.203467,18.5499659 C41.0110154,18.9677886 40.5930328,19.2354899 40.1330182,19.2354899 L40.1330182,19.2354899 Z" id="Path"></path>
                <path d="M33.4393771,25.9291147 C33.0684489,25.9291147 32.7191677,25.7544048 32.4966108,25.4576622 C30.4935983,22.7869789 27.3500678,21.2152136 24.0117136,21.2152136 C20.6733595,21.2152136 17.529829,22.7869789 15.5268165,25.4576622 C15.1363099,25.9783377 14.3976509,26.0838604 13.8769754,25.6933538 C13.3563,25.3028472 13.2507772,24.5641882 13.6412838,24.0435127 C16.0894102,20.7793442 19.931503,18.8582978 24.0117136,18.8582978 C28.0919243,18.8582978 31.9340171,20.7793442 34.3821434,24.0435127 C34.6499636,24.4006062 34.6930433,24.8783671 34.4934219,25.2776098 C34.2938006,25.6768526 33.885744,25.9291147 33.4393771,25.9291147 L33.4393771,25.9291147 Z" id="Path"></path>
                <circle id="Oval" cx="24.0942057" cy="31.821335" r="2.35691586"></circle>
                <path d="M24.0942057,35.3567088 C22.1416727,35.3567088 20.5588319,33.7738681 20.5588319,31.821335 C20.5588319,29.868802 22.1416727,28.2859612 24.0942057,28.2859612 C26.0467387,28.2859612 27.6295795,29.868802 27.6295795,31.821335 C27.6295795,33.7738681 26.0467387,35.3567088 24.0942057,35.3567088 L24.0942057,35.3567088 Z M24.0942057,30.6428771 C23.4433614,30.6428771 22.9157478,31.1704907 22.9157478,31.821335 C22.9157478,32.4721794 23.4433614,32.999793 24.0942057,32.999793 C24.74505,32.999793 25.2726636,32.4721794 25.2726636,31.821335 C25.2726636,31.1704907 24.74505,30.6428771 24.0942057,30.6428771 Z" id="Shape"></path>
            </g>
        </g>
    </g>
</svg>