<?xml version="1.0" encoding="UTF-8"?>
<svg width="61px" height="48px" viewBox="0 0 61 48" version="1.1" xmlns="http://www.w3.org/2000/svg" xmlns:xlink="http://www.w3.org/1999/xlink">
    <title>monitorchat</title>
    <g id="Page-1" stroke="none" stroke-width="1" fill="none" fill-rule="evenodd">
        <g id="Desktop-HD" transform="translate(-780.000000, -293.000000)" fill="#0693FE" fill-rule="nonzero">
            <g id="monitorchat" transform="translate(780.000000, 293.000000)">
                <path d="M59.1995154,47.9998082 C58.6775936,48.0079557 58.1857385,47.7560299 57.8875261,47.3276126 C57.8875261,47.3276126 51.1995809,38.3996856 41.8556574,38.3996856 L11.1999083,38.3996856 C5.01436975,38.3996856 0,33.3853159 0,27.1997773 L0,11.1999083 C0,5.01436975 5.01436975,3.55271368e-15 11.1999083,3.55271368e-15 L49.599594,3.55271368e-15 C55.7851325,3.55271368e-15 60.7995319,5.01436975 60.7995319,11.1999083 L60.7995319,46.3996202 C60.8037549,47.1019387 60.349497,47.724921 59.6795114,47.9356076 L59.1995154,47.9998082 Z M11.1999083,3.1999738 C6.78166648,3.1999738 3.1999738,6.78166648 3.1999738,11.1999083 L3.1999738,27.1997773 C3.1999738,31.6180192 6.78166648,35.1997118 11.1999083,35.1997118 L41.8556574,35.1997118 C47.8064712,35.4373601 53.4402902,37.9450966 57.5995285,42.2076545 L57.5995285,11.1999083 C57.5995285,6.78166648 54.0178358,3.1999738 49.599594,3.1999738 L11.1999083,3.1999738 Z" id="Shape"></path>
                <path d="M28.3517679,27.0717784 C27.8556758,27.077343 27.3887539,26.8378959 27.1037781,26.4317836 L23.2958093,21.503824 C22.7835287,20.7924095 22.9248213,19.8033616 23.6158067,19.2638423 C24.3143625,18.7265666 25.315862,18.8553308 25.8557883,19.5518399 L28.2557687,22.7518137 L35.0077134,12.5118976 C35.5079931,11.7777958 36.5035516,11.5786841 37.2476951,12.0639012 C37.9777291,12.5521893 38.1776831,13.5376769 37.6956914,14.2718832 L29.6957569,26.3677841 C29.4108126,26.8031307 28.9353601,27.0765159 28.4157674,27.1037781 L28.3517679,27.0717784 Z" id="Path"></path>
            </g>
        </g>
    </g>
</svg>