<?xml version="1.0" encoding="UTF-8"?>
<svg width="54px" height="48px" viewBox="0 0 54 48" version="1.1" xmlns="http://www.w3.org/2000/svg" xmlns:xlink="http://www.w3.org/1999/xlink">
    <title>subdomain</title>
    <g id="Page-1" stroke="none" stroke-width="1" fill="none" fill-rule="evenodd">
        <g id="Desktop-HD" transform="translate(-211.000000, -285.000000)" fill="#0693FE" fill-rule="nonzero">
            <g id="subdomain" transform="translate(211.000000, 285.000000)">
                <path d="M47.9891191,17.7387438 C47.4521931,17.738056 46.9740186,17.3986398 46.7957595,16.8916774 C43.7596743,8.27932425 35.6275544,2.51975673 26.5035791,2.51975673 C17.3796038,2.51975673 9.24748383,8.27932425 6.21139868,16.8916774 C6.0687848,17.328942 5.70079288,17.6546163 5.24977023,17.7427224 C4.79874758,17.8308285 4.33542469,17.6675493 4.03902498,17.3160449 C3.74262527,16.9645405 3.65963087,16.4799345 3.82214583,16.0496833 C7.21995821,6.43074158 16.3058602,0 26.4985117,0 C36.6911633,0 45.7770653,6.43074158 49.1748776,16.0496833 C49.3107839,16.4361601 49.2517626,16.8645516 49.0164238,17.1997812 C48.781085,17.5350109 48.3984319,17.7357651 47.9891191,17.7387438 Z" id="Path"></path>
                <path d="M26.4891543,48 C16.2991268,47.9946048 7.21805376,41.5641356 3.82209394,31.9489404 C3.65968196,31.5190341 3.74262377,31.0348167 4.03883566,30.6835941 C4.33504754,30.3323715 4.79807683,30.1692233 5.24881367,30.2572588 C5.69955051,30.3452942 6.06730925,30.6707074 6.20983275,31.1076214 C8.65559383,38.0228356 14.4497403,43.216945 21.5859883,44.8914348 C28.7222364,46.5659246 36.2194048,44.4905649 41.4815207,39.3839707 C41.9828549,38.8941313 42.7860423,38.903775 43.2754899,39.4055105 C43.7649375,39.907246 43.7553015,40.7110763 43.2539673,41.2009157 C38.7714177,45.5776694 32.7516001,48.0190075 26.4891543,48 Z" id="Path"></path>
                <path d="M8.7440748,39.2727273 C8.13613329,39.2705902 7.6152804,38.8449045 7.50260768,38.2580729 C7.38993495,37.6712413 7.7171567,37.0884409 8.28254967,36.8689522 C18.4138945,33.2424865 29.4183592,32.6777178 39.8792701,35.2473523 C40.3182139,35.358593 40.6633984,35.6914097 40.7847959,36.1204336 C40.9061934,36.5494574 40.7853607,37.0095094 40.4678144,37.3272925 C40.150268,37.6450756 39.6842509,37.7723109 39.245307,37.6610702 C29.3020764,35.2148598 18.8411793,35.7466412 9.20813579,39.1880145 C9.06030947,39.2448744 8.90282761,39.2736151 8.7440748,39.2727273 Z" id="Path"></path>
                <path d="M26.6493506,14.3362531 C20.3798886,14.3824159 14.1556587,13.2940932 8.28997429,11.1260686 C7.86663457,10.9653364 7.5634059,10.5951832 7.49501029,10.1556509 C7.42661467,9.71611861 7.60349719,9.27433071 7.95873701,8.997431 C8.31397683,8.72053128 8.79332324,8.6508067 9.21542276,8.81463648 C20.4822719,12.7969772 32.8164294,12.7969772 44.0832785,8.81463648 C44.5053781,8.6508067 44.9847245,8.72053128 45.3399643,8.997431 C45.6952041,9.27433071 45.8720866,9.71611861 45.803691,10.1556509 C45.7352954,10.5951832 45.4320667,10.9653364 45.008727,11.1260686 C39.1430426,13.2940932 32.9188127,14.3824159 26.6493506,14.3362531 L26.6493506,14.3362531 Z" id="Path"></path>
                <path d="M37.0790943,17.7662338 C36.5043456,17.7654973 36.0032389,17.3717127 35.8618511,16.8096876 C34.4950329,10.8939099 30.9325911,5.73170707 25.907619,2.3853777 C25.5092711,2.16877258 25.2570049,1.75293883 25.2470583,1.29651386 C25.2371117,0.840088894 25.4710186,0.413471557 25.8595455,0.179413111 C26.2480724,-0.0546453348 26.731293,-0.0600437852 27.1248622,0.165277227 C32.7772017,3.83157934 36.78671,9.58004563 38.2988524,16.1855222 C38.3811415,16.5119019 38.331421,16.8578977 38.1606475,17.147264 C37.9898741,17.4366303 37.7120632,17.6456186 37.388435,17.7281749 C37.2871511,17.7530199 37.1833282,17.7657935 37.0790943,17.7662338 L37.0790943,17.7662338 Z" id="Path"></path>
                <path d="M26.5074006,48 C25.9337895,48.0011978 25.4320188,47.611392 25.2874677,47.0522796 C25.1429165,46.4931672 25.3921992,45.9063692 25.8935376,45.6256236 C30.9101198,42.2714772 34.4712338,37.1199611 35.8537163,31.217205 C35.9558449,30.7692981 36.2907652,30.4122096 36.7289355,30.2840555 C37.1671058,30.1559014 37.6398196,30.2767766 37.964239,30.5999287 C38.2886585,30.9230808 38.4139135,31.3978384 38.2915575,31.8405731 C36.7775075,38.4376531 32.7670318,44.1790921 27.1137161,47.8428882 C26.9279859,47.9458874 26.7194215,48 26.5074006,48 Z" id="Path"></path>
                <path d="M15.9121168,17.7662338 C15.8075352,17.7657929 15.703366,17.7530023 15.6017443,17.7281241 C15.2770365,17.6454577 14.998299,17.4361908 14.8269559,17.1464386 C14.6556128,16.8566864 14.6057265,16.5102292 14.6882901,16.1834143 C16.2054763,9.56912928 20.2283587,3.81299736 25.8995522,0.141806212 C26.5056089,-0.173261838 27.2506344,0.0536774634 27.5815896,0.654164989 C27.9125448,1.25465251 27.7095893,2.01124928 27.1233789,2.36232656 C22.0917976,5.72524153 18.5200362,10.8902249 17.1334202,16.8084121 C16.9915607,17.3711866 16.4887826,17.7654964 15.9121168,17.7662338 Z" id="Path"></path>
                <path d="M26.4844045,48 C26.2714908,48.0003598 26.0619684,47.9463029 25.875456,47.8428892 C20.2210528,44.1790929 16.2098056,38.4376535 14.6954644,31.8405732 C14.5730848,31.3978385 14.6983639,30.9230809 15.0228458,30.5999288 C15.3473276,30.2767766 15.8201323,30.1559014 16.258387,30.2840555 C16.6966416,30.4122096 17.0316262,30.7692981 17.1337745,31.2172051 C18.5026483,37.1255038 22.0666163,42.2814596 27.0933529,45.6256245 C27.5939687,45.9059119 27.8434044,46.4913384 27.7001705,47.0498273 C27.5569365,47.6083162 27.0571891,47.9988892 26.4844045,48 Z" id="Path"></path>
                <path d="M26.4935065,17.7662338 C25.8049437,17.7662338 25.2467532,17.1980756 25.2467532,16.4972171 L25.2467532,1.2690167 C25.2467532,0.568158128 25.8049437,0 26.4935065,0 C27.1820693,0 27.7402597,0.568158128 27.7402597,1.2690167 L27.7402597,16.4972171 C27.7402597,17.1980756 27.1820693,17.7662338 26.4935065,17.7662338 Z" id="Path"></path>
                <path d="M26.4935065,48 C25.8049437,48 25.2467532,47.4318419 25.2467532,46.7309833 L25.2467532,31.5027829 C25.2467532,30.8019244 25.8049437,30.2337662 26.4935065,30.2337662 C27.1820693,30.2337662 27.7402597,30.8019244 27.7402597,31.5027829 L27.7402597,46.7309833 C27.7402597,47.4318419 27.1820693,48 26.4935065,48 Z" id="Path"></path>
                <path d="M37.0909091,33.038961 L1.26159555,33.038961 C0.564835566,33.038961 0,32.4708029 0,31.7699443 L0,16.541744 C0,15.8408854 0.564835566,15.2727273 1.26159555,15.2727273 L51.7254174,15.2727273 C52.4221774,15.2727273 52.987013,15.8408854 52.987013,16.541744 L52.987013,20.3970167 C52.987013,21.0978753 52.4221774,21.6660334 51.7254174,21.6660334 C51.0286575,21.6660334 50.4638219,21.0978753 50.4638219,20.3970167 L50.4638219,17.8107607 L2.52319109,17.8107607 L2.52319109,30.5009276 L37.0909091,30.5009276 C37.7876691,30.5009276 38.3525046,31.0690858 38.3525046,31.7699443 C38.3525046,32.4708029 37.7876691,33.038961 37.0909091,33.038961 Z" id="Path"></path>
                <path d="M11.2207796,27.737993 C10.8898942,27.7385837 10.5723452,27.6076569 10.3380785,27.3740513 L8.72727373,25.7612415 L7.11646897,27.3740513 C6.75986225,27.7314541 6.2228228,27.838526 5.75635309,27.6452235 C5.28988338,27.4519211 4.98611154,26.9964217 4.98701299,26.4916175 L4.98701299,21.5061157 C4.98701299,20.8177616 5.54520529,20.2597403 6.23376791,20.2597403 C6.92233053,20.2597403 7.48052082,20.8177616 7.48052082,21.5061157 L7.48052082,23.4828672 L7.84457267,23.1164328 C8.07847415,22.8820103 8.39606818,22.7502632 8.72727373,22.7502632 C9.05847928,22.7502632 9.37607332,22.8820103 9.60997479,23.1164328 L9.97402664,23.4828672 L9.97402664,21.5061157 C9.97402664,20.8177616 10.5322169,20.2597403 11.2207796,20.2597403 C11.9093422,20.2597403 12.4675325,20.8177616 12.4675325,21.5061157 L12.4675325,26.4916175 C12.4674506,26.9959913 12.1633035,27.4505977 11.6970392,27.6432684 C11.5462444,27.7064456 11.3842799,27.7386591 11.2207796,27.737993 Z" id="Path"></path>
                <path d="M21.5064938,27.737993 C21.1756085,27.7385837 20.8580595,27.6076569 20.6237928,27.3740513 L19.012988,25.7612415 L17.4021833,27.3740513 C17.0455765,27.7314541 16.5085371,27.838526 16.0420674,27.6452235 C15.5755977,27.4519211 15.2718258,26.9964217 15.2727273,26.4916175 L15.2727273,21.5061157 C15.2727273,20.8177616 15.8309196,20.2597403 16.5194822,20.2597403 C17.2080448,20.2597403 17.7662351,20.8177616 17.7662351,21.5061157 L17.7662351,23.4828672 L18.130287,23.1164328 C18.3641884,22.8820103 18.6817825,22.7502632 19.012988,22.7502632 C19.3441936,22.7502632 19.6617876,22.8820103 19.8956891,23.1164328 L20.2597409,23.4828672 L20.2597409,21.5061157 C20.2597409,20.8177616 20.8179312,20.2597403 21.5064938,20.2597403 C22.1950565,20.2597403 22.7532468,20.8177616 22.7532468,21.5061157 L22.7532468,26.4916175 C22.7531649,26.9959913 22.4490178,27.4505977 21.9827535,27.6432684 C21.8319587,27.7064456 21.6699942,27.7386591 21.5064938,27.737993 L21.5064938,27.737993 Z" id="Path"></path>
                <path d="M31.4805198,27.737993 C31.1496344,27.7385837 30.8320855,27.6076569 30.5978188,27.3740513 L28.987014,25.7612415 L27.3762092,27.3740513 C27.0196025,27.7314541 26.4825631,27.838526 26.0160934,27.6452235 C25.5496236,27.4519211 25.2458518,26.9964217 25.2467532,26.4916175 L25.2467532,21.5061157 C25.2467532,20.8177616 25.8049455,20.2597403 26.4935082,20.2597403 C27.1820708,20.2597403 27.7402611,20.8177616 27.7402611,21.5061157 L27.7402611,23.4828672 L28.1043129,23.1164328 C28.3382144,22.8820103 28.6558084,22.7502632 28.987014,22.7502632 C29.3182195,22.7502632 29.6358136,22.8820103 29.8697151,23.1164328 L30.2337669,23.4828672 L30.2337669,21.5061157 C30.2337669,20.8177616 30.7919572,20.2597403 31.4805198,20.2597403 C32.1690824,20.2597403 32.7272727,20.8177616 32.7272727,21.5061157 L32.7272727,26.4916175 C32.7271908,26.9959913 32.4230438,27.4505977 31.9567794,27.6432684 C31.8059847,27.7064456 31.6440202,27.7386591 31.4805198,27.737993 L31.4805198,27.737993 Z" id="Path"></path>
                <path d="M36.779156,27.7367858 C36.615711,27.7400947 36.453674,27.7059783 36.3054363,27.6370455 C36.004221,27.5054998 35.7637886,27.2650438 35.6322558,26.9637987 C35.4992048,26.6619695 35.4992048,26.3180956 35.6322558,26.0162663 C35.7637886,25.7150213 36.004221,25.4745652 36.3054363,25.3430195 C36.6082137,25.2190036 36.9476049,25.2190036 37.2503823,25.3430195 C37.4072834,25.3949425 37.5463962,25.4899979 37.6517974,25.6173052 C37.7769197,25.7236661 37.8715632,25.8613429 37.9260561,26.0162663 C37.9947315,26.1646018 38.0288322,26.3265963 38.0257866,26.4900325 C38.0301303,26.8207433 37.8942498,27.1378291 37.6517974,27.3627598 C37.5463962,27.4900672 37.4072834,27.5851226 37.2503823,27.6370455 C37.1030167,27.7059431 36.9417961,27.7400672 36.779156,27.7367858 L36.779156,27.7367858 Z" id="Path"></path>
                <path d="M43.2321807,35.8302731 C43.1685,35.8340703 43.1046497,35.8340703 43.040969,35.8302731 C42.5664032,35.7586892 42.1722636,35.4266262 42.0211735,34.9710944 L37.4677864,21.3134686 C37.3153767,20.8552476 37.4349756,20.3502441 37.776709,20.0090502 C38.1184424,19.6678563 38.6236338,19.5490559 39.0816128,19.70219 L52.7392247,24.2555818 C53.1927511,24.4076211 53.5229926,24.8007605 53.5944743,25.2737224 C53.6659559,25.7466843 53.4666457,26.2198583 53.0783067,26.4991343 L50.5466642,28.3092732 L53.0783067,30.1168627 C53.3828137,30.3352194 53.5758282,30.6764916 53.6060509,31.0499765 C53.6369454,31.4236935 53.5017237,31.7920563 53.236375,32.0570257 L49.8200599,35.4707948 C49.5590393,35.7404227 49.1889302,35.8756912 48.8155613,35.8379215 C48.4420768,35.8076988 48.1008049,35.6146842 47.8824484,35.3101768 L46.0748608,32.7785318 L44.2698227,35.3101768 C44.0275083,35.6400871 43.6415046,35.8335634 43.2321807,35.8302731 Z M46.0748608,29.2984759 C46.4864845,29.2981421 46.8729378,29.4965913 47.1125027,29.8313196 L49.0807081,32.5924189 L50.3554526,31.3176732 L47.5969056,29.3469162 C47.26163,29.1076656 47.0626155,28.7211601 47.0626155,28.3092732 C47.0626155,27.8973863 47.26163,27.5108808 47.5969056,27.2716302 L49.5447151,25.8821573 L40.6826918,22.9094503 L43.6400989,31.7714826 L45.0270209,29.8262206 C45.2687383,29.4919518 45.657266,29.2953129 46.0697618,29.2984759 L46.0748608,29.2984759 Z" id="Shape"></path>
            </g>
        </g>
    </g>
</svg>