<?xml version="1.0" encoding="UTF-8"?>
<svg width="48px" height="48px" viewBox="0 0 48 48" version="1.1" xmlns="http://www.w3.org/2000/svg" xmlns:xlink="http://www.w3.org/1999/xlink">
    <title>plugin</title>
    <g id="Page-1" stroke="none" stroke-width="1" fill="none" fill-rule="evenodd">
        <g id="Desktop-HD" transform="translate(-524.000000, -289.000000)" fill="#0693FE" fill-rule="nonzero">
            <g id="plugin" transform="translate(524.000000, 289.000019)">
                <path d="M43.7647059,48 L24,48 C23.2203039,48 22.5882353,47.3679314 22.5882353,46.5882353 L22.5882353,41.0371765 C20.1401322,41.7565612 17.5051265,40.8449888 16.0249013,38.7666104 C14.5446762,36.688232 14.5446762,33.9000033 16.0249013,31.8216249 C17.5051265,29.7432465 20.1401322,28.8316741 22.5882353,29.5510588 L22.5882353,24 C22.5882353,23.2203039 23.2203039,22.5880353 24,22.5880353 L31.9341176,22.5880353 C32.4963325,22.5880353 33.0051747,22.9211295 33.2295238,23.436642 C33.4538729,23.9521545 33.3509601,24.5516465 32.9675294,24.9628235 C32.4225417,25.5432241 32.1195792,26.3097193 32.1204706,27.1058824 C32.1204706,28.8524017 33.5363042,30.2682353 35.2828235,30.2682353 C37.0293428,30.2682353 38.4451765,28.8524017 38.4451765,27.1058824 C38.4460679,26.3097193 38.1431053,25.5432241 37.5981176,24.9628235 C37.2117523,24.5486592 37.1103176,23.9436778 37.3404691,23.4261447 C37.5706206,22.9086116 38.0877963,22.5787316 38.6541176,22.5880353 L46.5882353,22.5880353 C47.3679314,22.5880353 48,23.2203039 48,24 L48,43.7647059 C48,46.1037942 46.1037942,48 43.7647059,48 Z M25.4117647,45.1764706 L43.7647059,45.1764706 C44.544402,45.1764706 45.1764706,44.544402 45.1764706,43.7647059 L45.1764706,25.4117647 L41.04,25.4117647 C41.1996553,25.9622917 41.2804592,26.5326724 41.28,27.1058824 C41.2799999,30.4117938 38.6000291,33.0917645 35.2941176,33.0917645 C31.9882062,33.0917645 29.3082354,30.4117938 29.3082353,27.1058824 C29.3077761,26.5326724 29.38858,25.9622917 29.5482353,25.4117647 L25.4117647,25.4117647 L25.4117647,31.9341176 C25.411085,32.4951561 25.078259,33.0025494 24.5639224,33.2266532 C24.0495859,33.450757 23.4513601,33.3490362 23.04,32.9675294 C21.7800201,31.8076032 19.8256469,31.8614565 18.6314547,33.0890083 C17.4372626,34.3165601 17.4372626,36.2716752 18.6314547,37.499227 C19.8256469,38.7267787 21.7800201,38.7806321 23.04,37.6207059 C23.4513601,37.2391991 24.0495859,37.1374783 24.5639224,37.3615821 C25.078259,37.5856859 25.411085,38.0930792 25.4117647,38.6541176 L25.4117647,45.1764706 Z" id="Shape"></path>
                <path d="M24,48 L4.23529412,48 C1.89620577,48 0,46.1037942 0,43.7647059 L0,24 C0,23.2203039 0.632068588,22.5882353 1.41176471,22.5882353 C2.19146082,22.5882353 2.82352941,23.2203039 2.82352941,24 L2.82352941,43.7647059 C2.82352941,44.544402 3.455598,45.1764706 4.23529412,45.1764706 L24,45.1764706 C24.7796961,45.1764706 25.4117647,45.8085392 25.4117647,46.5882353 C25.4117647,47.3679314 24.7796961,48 24,48 Z" id="Path"></path>
                <path d="M24,25.4119647 L16.0658824,25.4119647 C15.5036675,25.4119647 14.9948253,25.0788705 14.7704762,24.563358 C14.5461271,24.0478455 14.6490399,23.4483535 15.0324706,23.0371765 C15.5774583,22.4567759 15.8804208,21.6902807 15.8795294,20.8941176 C15.8795294,19.1475983 14.4636958,17.7317647 12.7171765,17.7317647 C10.9706572,17.7317647 9.55482353,19.1475983 9.55482353,20.8941176 C9.55393214,21.6902807 9.85689468,22.4567759 10.4018824,23.0371765 C10.7882477,23.4513408 10.8896824,24.0563222 10.6595309,24.5738553 C10.4293794,25.0913884 9.91220373,25.4212684 9.34588235,25.4119647 L1.41176471,25.4119647 C0.632068588,25.4119647 0,24.7796961 0,24 L0,4.23529412 C0,3.11202428 0.446217206,2.03476065 1.24048893,1.24048893 C2.03476065,0.446217206 3.11202428,0 4.23529412,0 L24,0 C24.7796961,0 25.4117647,0.632068588 25.4117647,1.41176471 L25.4117647,6.96282353 C27.8598678,6.24343877 30.4948735,7.15501123 31.9750987,9.23338963 C33.4553238,11.311768 33.4553238,14.0999967 31.9750987,16.1783751 C30.4948735,18.2567535 27.8598678,19.1683259 25.4117647,18.4489412 L25.4117647,24 C25.4117647,24.7796961 24.7796961,25.4119647 24,25.4119647 Z M18.4517647,22.5882353 L22.5882353,22.5882353 L22.5882353,16.0658824 C22.588915,15.5048439 22.921741,14.9974506 23.4360776,14.7733468 C23.9504141,14.549243 24.5486399,14.6509638 24.96,15.0324706 C26.2199799,16.1923968 28.1743531,16.1385435 29.3685453,14.9109917 C30.5627374,13.6834399 30.5627374,11.7283248 29.3685453,10.500773 C28.1743531,9.27322125 26.2199799,9.21936786 24.96,10.3792941 C24.5486399,10.7608009 23.9504141,10.8625217 23.4360776,10.6384179 C22.921741,10.4143141 22.588915,9.90692076 22.5882353,9.34588235 L22.5882353,2.82352941 L4.23529412,2.82352941 C3.455598,2.82352941 2.82352941,3.455598 2.82352941,4.23529412 L2.82352941,22.5882353 L6.96,22.5882353 C6.80034468,22.0377083 6.71954076,21.4673276 6.72,20.8941176 C6.72,17.5882061 9.39997082,14.9082353 12.7058824,14.9082353 C16.0117939,14.9082353 18.6917647,17.5882061 18.6917647,20.8941176 C18.6922239,21.4673276 18.61142,22.0377083 18.4517647,22.5882353 Z" id="Shape"></path>
            </g>
        </g>
    </g>
</svg>