<?xml version="1.0" encoding="UTF-8"?>
<svg width="46px" height="48px" viewBox="0 0 46 48" version="1.1" xmlns="http://www.w3.org/2000/svg" xmlns:xlink="http://www.w3.org/1999/xlink">
    <title>manage-files</title>
    <g id="Page-1" stroke="none" stroke-width="1" fill="none" fill-rule="evenodd">
        <g id="Desktop-HD" transform="translate(-664.000000, -289.000000)" fill="#0693FE" fill-rule="nonzero">
            <g id="manage-files" transform="translate(664.512762, 289.000000)">
                <path d="M25.0368464,47.9999694 L20.0674466,47.9999694 C18.7242984,48.0049112 17.470525,47.327512 16.7385134,46.2013545 C16.0669382,45.2512826 15.5776985,44.1847209 15.2956934,43.0559503 C15.250792,42.799354 15.1131177,42.5682219 14.9088708,42.4065401 L10.5804106,39.9048991 C10.2193596,39.7610774 9.81878818,39.7510631 9.45100157,39.8766639 C8.42809103,40.1204176 7.37539541,40.2155121 6.32536204,40.1590161 C4.96047711,40.092494 3.71800633,39.3516682 3.0105465,38.1825503 L0.528670133,33.8569137 C-0.129666455,32.6846562 -0.164561758,31.2624082 0.435493887,30.0592758 C0.922676293,29.0206362 1.59208286,28.0777292 2.41195971,27.2752825 C2.61731165,27.1025292 2.75444191,26.862301 2.79878231,26.597637 L2.79878231,21.4023554 C2.75119006,21.1301369 2.6080159,20.8838373 2.39501858,20.7077689 C1.57556264,19.9038857 0.906235959,18.9601351 0.418552751,17.9209521 C-0.169904449,16.7313062 -0.136125787,15.3284361 0.508905474,14.1684905 L3.00489946,9.85414798 C3.69735435,8.68387665 4.9256639,7.93377202 6.2830092,7.85227045 C7.35467285,7.78621586 8.4301813,7.8813936 9.47358975,8.13462272 C9.84361739,8.25791383 10.2463234,8.23878529 10.6029988,8.08097579 L14.9286354,5.58215828 C15.1272018,5.41420542 15.2593541,5.18093666 15.3013404,4.92427751 C15.5833954,3.80125678 16.0716831,2.74042777 16.7413369,1.79581446 C17.4734651,0.671577858 18.7258437,-0.00457900082 20.0674466,2.68958473e-05 L25.0368464,2.68958473e-05 C26.3799945,-0.00491876223 27.6337679,0.672480456 28.3657795,1.79863799 C29.0373547,2.7487099 29.5265944,3.8152716 29.8085996,4.94404217 C29.8535009,5.20063852 29.9911752,5.43177055 30.1954222,5.59345237 L34.5238823,8.0950934 C34.8843579,8.24169924 35.2859404,8.2517388 35.6532914,8.12332862 C36.67501,7.87236113 37.7287773,7.77716986 38.7789309,7.84097636 C40.1465754,7.91056205 41.3896322,8.65703146 42.0937464,9.8315598 L44.5756228,14.1430788 C45.2339594,15.3153363 45.2688547,16.7375842 44.668799,17.9407167 C44.1816166,18.9793563 43.5122101,19.9222633 42.6923332,20.72471 C42.4869813,20.8974633 42.349851,21.1376915 42.3055106,21.4023554 L42.3055106,26.597637 C42.3531029,26.8698556 42.496277,27.1161552 42.7092743,27.2922236 C43.5287303,28.0961068 44.198057,29.0398574 44.6857402,30.0790404 C45.2741974,31.2686863 45.2404187,32.6715563 44.5953874,33.831502 L42.0965699,38.1458445 C41.404115,39.3161158 40.1758055,40.0662205 38.8184602,40.147722 C37.7467966,40.2137766 36.6712881,40.1185989 35.6278796,39.8653698 C35.257244,39.7465819 34.8561781,39.7656325 34.4984706,39.9190167 L30.1813045,42.4121872 C29.9827382,42.58014 29.8505859,42.8134088 29.8085996,43.0700679 C29.5265446,44.1930887 29.0382569,45.2539177 28.368603,46.198531 C27.63671,47.3266104 26.3815406,48.0052529 25.0368464,47.9999694 L25.0368464,47.9999694 Z M10.0382943,36.9684356 C10.7081474,36.9613107 11.3688235,37.1245366 11.9582896,37.4427874 L16.3403967,39.9839577 C17.2381837,40.5414543 17.8609437,41.4499873 18.0570985,42.4884223 C18.2765411,43.2691279 18.6300386,44.0057403 19.1018018,44.6653582 C19.3143921,44.9904224 19.6791013,45.1834411 20.0674466,45.1766012 L25.0368464,45.1766012 C25.4258428,45.1806163 25.7896199,44.984326 25.9996676,44.6568876 C26.4692718,44.002566 26.8217927,43.2717301 27.0415474,42.4968928 C27.2314476,41.4597897 27.8454863,40.5489657 28.735661,39.9839577 L33.1036504,37.4597285 C34.1130654,36.9324631 35.2889687,36.8219687 36.3789367,37.1519645 C37.1337986,37.3192305 37.9086298,37.3781747 38.6801076,37.3270229 C39.0854555,37.2966769 39.4503205,37.0699544 39.6570464,36.7199656 L42.1304522,32.4423288 C42.321997,32.096722 42.3283527,31.6783025 42.1473933,31.3270374 C41.8135557,30.5946678 41.3549677,29.9258937 40.7921025,29.3505716 C39.9896642,28.6519833 39.5157084,27.6498175 39.4848115,26.5863429 L39.4848115,21.4023554 C39.5142676,20.3462163 39.9817265,19.3499253 40.7751614,18.6522444 C41.339533,18.0844408 41.800133,17.4222089 42.1360993,16.6955433 C42.3287255,16.3311441 42.3223394,15.8936964 42.1191581,15.5350755 L39.6485758,11.2687328 C39.4315694,10.9127407 39.0514568,10.6882731 38.6349312,10.670146 C37.8849949,10.6226476 37.1321108,10.6815855 36.3987013,10.8452044 C35.3164634,11.1803818 34.1460586,11.0790481 33.1375327,10.5628522 L28.7554256,8.02168181 C27.8576386,7.46418526 27.2348787,6.55565222 27.0387239,5.51721726 C26.8192812,4.73651165 26.4657837,3.99989927 25.9940205,3.34028133 C25.7843779,3.01562847 25.4232933,2.82070671 25.0368464,2.82351061 L20.0674466,2.82351061 C19.6784501,2.81937623 19.314673,3.01566652 19.1046254,3.34310485 C18.6350211,3.99742645 18.2825002,4.72826238 18.0627455,5.50309965 C17.8728453,6.54020274 17.2588066,7.45102678 16.368632,8.01603477 L11.9921719,10.540264 C10.9836375,11.0704999 9.80654187,11.1811063 8.71688569,10.8480279 C7.96219492,10.6796089 7.18719776,10.6206521 6.41571477,10.6729695 C6.00759792,10.706374 5.64215196,10.9387385 5.43877594,11.2941445 L2.96254662,15.5576636 C2.77732106,15.906356 2.77732106,16.3242627 2.96254662,16.6729551 C3.2963843,17.4053247 3.75497225,18.0740988 4.31783747,18.6494209 C5.12027577,19.3480092 5.59423157,20.3501749 5.62512844,21.4136495 L5.62512844,26.6089311 C5.59567241,27.6650703 5.12821351,28.6613613 4.33477861,29.3590421 C3.77040692,29.9268458 3.30980698,30.5890776 2.97384071,31.3157433 C2.78121449,31.6801424 2.78760059,32.1175902 2.99078185,32.4762111 L5.46136413,36.7425538 C5.67837052,37.0985459 6.05848314,37.3230135 6.47500874,37.3411406 C7.22494506,37.388639 7.97782919,37.3297011 8.71123864,37.1660822 C9.14315451,37.0429615 9.58924571,36.9765224 10.0382943,36.9684356 L10.0382943,36.9684356 Z" id="Shape"></path>
                <path d="M22.5521465,31.0588028 C18.6536753,31.0588028 15.4933399,27.8984674 15.4933399,23.9999962 C15.4933399,20.101525 18.6536753,16.9411897 22.5521465,16.9411897 C26.4506176,16.9411897 29.610953,20.101525 29.610953,23.9999962 C29.610953,27.8984674 26.4506176,31.0588028 22.5521465,31.0588028 Z M22.5521465,19.7647123 C20.2130637,19.7647123 18.3168626,21.6609135 18.3168626,23.9999962 C18.3168626,26.339079 20.2130637,28.2352801 22.5521465,28.2352801 C24.8912292,28.2352801 26.7874304,26.339079 26.7874304,23.9999962 C26.7874304,21.6609135 24.8912292,19.7647123 22.5521465,19.7647123 L22.5521465,19.7647123 Z" id="Shape"></path>
            </g>
        </g>
    </g>
</svg>