<?xml version="1.0" encoding="UTF-8"?>
<svg width="48px" height="48px" viewBox="0 0 48 48" version="1.1" xmlns="http://www.w3.org/2000/svg" xmlns:xlink="http://www.w3.org/1999/xlink">
    <title>questions</title>
    <g id="Page-1" stroke="none" stroke-width="1" fill="none" fill-rule="evenodd">
        <g id="Desktop-HD" transform="translate(-98.000000, -880.000000)" fill="#0693FE" fill-rule="nonzero">
            <g id="questions" transform="translate(98.000000, 880.000000)">
                <path d="M19.4557004,11.6216318 C18.3892059,11.8300451 17.224731,12.5219855 16.3037326,14.1418357 C15.8971539,14.8569828 14.9878036,15.1071026 14.2726863,14.7004941 C13.5575392,14.2939154 13.3074194,13.3845651 13.7140279,12.6694478 C15.0273354,10.3595637 16.8951902,9.08665196 18.8843215,8.69788792 C20.8293631,8.31776308 22.7629057,8.80802284 24.2233775,9.77498774 C25.6640387,10.7289939 26.8291392,12.2862247 26.8663772,14.1559861 C26.9051046,16.1047217 25.7170655,17.8644376 23.5323308,19.1562662 C22.046984,20.0346049 21.46923,20.6302033 21.2236682,21.0258787 C21.016953,21.3589348 20.9669648,21.662707 20.9669648,22.342761 C20.9669648,23.1653917 20.300078,23.8322784 19.4774473,23.8322784 C18.6547869,23.8322784 17.9879299,23.1653917 17.9879299,22.342761 C17.9879299,21.5332679 18.0293385,20.5234347 18.6925015,19.4549145 C19.3168178,18.4490136 20.3874233,17.5550648 22.0159723,16.5920323 C23.6096367,15.6496444 23.8985435,14.7512271 23.8879084,14.2151498 C23.8756943,13.6000982 23.465094,12.8458364 22.5785928,12.2588772 C21.7116043,11.6848172 20.5662846,11.4045794 19.4557004,11.6216318 Z" id="Path"></path>
                <path d="M20.2219379,31.2798655 C21.4558839,31.2798655 22.456214,30.2795056 22.456214,29.0455894 C22.456214,27.8116731 21.4558839,26.8113132 20.2219379,26.8113132 C18.9879919,26.8113132 17.9876618,27.8116731 17.9876618,29.0455894 C17.9876618,30.2795056 18.9879919,31.2798655 20.2219379,31.2798655 Z" id="Path"></path>
                <path d="M19.4777453,0 C8.78345716,0 0.114019019,8.66943814 0.114019019,19.3637262 C0.114019019,22.7925953 1.00650806,26.0169536 2.57246749,28.8129267 L0.201930336,35.0161709 C-0.671760991,37.3022822 1.431378,39.6083531 3.78815202,38.9481989 L11.1981436,36.8727054 C13.7100658,38.0625319 16.5181338,38.7274525 19.4777453,38.7274525 C30.1719142,38.7274525 38.8415013,30.0581633 38.8415013,19.3637262 C38.8415013,8.66943814 30.1719142,0 19.4777453,0 Z M3.09305382,19.3637262 C3.09305382,10.3146995 10.4287483,2.97903481 19.4777453,2.97903481 C28.5268912,2.97903481 35.8624665,10.3146995 35.8624665,19.3637262 C35.8624665,28.4128424 28.5268912,35.7484177 19.4777453,35.7484177 C16.7902686,35.7484177 14.2579996,35.1025629 12.0235746,33.9589115 L11.5045969,33.6931816 L2.98467654,36.0793884 L5.87168896,28.525152 L5.48950858,27.9001505 C3.96945607,25.4151886 3.09305382,22.4940662 3.09305382,19.3637262 Z" id="Shape"></path>
                <path d="M28.3034636,47.6645569 C22.4358077,47.6645569 17.1777814,45.0546245 13.6267422,40.932534 C15.3040877,41.3865389 17.0597223,41.6498856 18.8689795,41.6984439 C21.5363775,43.5803002 24.7908836,44.6855221 28.3034636,44.6855221 C30.9908509,44.6855221 33.5230304,44.0396673 35.7576044,42.8960159 L36.2765523,42.630286 L44.7965919,45.0164928 L41.9096092,37.4619585 L42.2915215,36.8372549 C43.8117229,34.352144 44.688155,31.4312004 44.688155,28.3008306 C44.688155,24.8615945 43.6285123,21.6699162 41.817855,19.0343344 C41.7916394,17.2237366 41.5503376,15.4652719 41.1177818,13.7833982 C45.1341165,17.3313989 47.6671898,22.5203115 47.6671898,28.3008306 C47.6671898,31.7296997 46.774671,34.9539091 45.2085924,37.7500311 L47.5793083,43.9532753 C48.4530592,46.2393866 46.3498606,48.5454575 43.9931462,47.8853034 L36.583095,45.8098098 C34.0711728,46.9996363 31.2631346,47.6645569 28.3034636,47.6645569 Z" id="Path"></path>
            </g>
        </g>
    </g>
</svg>