<?xml version="1.0" encoding="UTF-8"?>
<svg width="51px" height="56px" viewBox="0 0 51 56" version="1.1" xmlns="http://www.w3.org/2000/svg" xmlns:xlink="http://www.w3.org/1999/xlink">
    <title>shared-hosting</title>
    <g id="Page-1" stroke="none" stroke-width="1" fill="none" fill-rule="evenodd">
        <g id="Desktop-HD" transform="translate(-324.000000, -285.000000)" fill="#0693FE" fill-rule="nonzero">
            <g id="shared-hosting" transform="translate(324.965895, 285.000000)">
                <path d="M40.5505882,33.0729412 C41.1625881,32.8265716 41.8625522,32.9691568 42.3294118,33.4352941 C42.496828,33.5738939 42.622306,33.7564074 42.6917647,33.9623529 C42.7824992,34.1583159 42.8275534,34.3723232 42.8235294,34.5882353 C42.8009936,35.4883809 42.0766162,36.2127583 41.1764706,36.2352941 C40.9605585,36.2393181 40.7465512,36.1942639 40.5505882,36.1035294 C40.3446427,36.0340707 40.1621292,35.9085927 40.0235294,35.7411765 C39.7031993,35.4440254 39.5236728,35.0251302 39.5294118,34.5882353 C39.5253878,34.3723232 39.570442,34.1583159 39.6611765,33.9623529 C39.8376347,33.566217 40.1544523,33.2493994 40.5505882,33.0729412 Z" id="Path"></path>
                <path d="M42.3294118,22.5647059 C42.0322607,22.885036 41.6133655,23.0645625 41.1764706,23.0588235 C40.9605585,23.0628475 40.7465512,23.0177933 40.5505882,22.9270588 C40.1544523,22.7506006 39.8376347,22.433783 39.6611765,22.0376471 C39.4853883,21.6389069 39.4853883,21.1846225 39.6611765,20.7858824 C39.8376347,20.3897464 40.1544523,20.0729288 40.5505882,19.8964706 C41.1604912,19.6288983 41.8727759,19.7739934 42.3294118,20.2588235 C42.496828,20.3974233 42.622306,20.5799368 42.6917647,20.7858824 C42.8675529,21.1846225 42.8675529,21.6389069 42.6917647,22.0376471 C42.622306,22.2435926 42.496828,22.4261061 42.3294118,22.5647059 Z" id="Path"></path>
                <path d="M42.3294118,9.38823529 C42.0322607,9.70856543 41.6133655,9.88809194 41.1764706,9.88235294 C40.9605585,9.88637691 40.7465512,9.84132273 40.5505882,9.75058824 C40.1544523,9.57413005 39.8376347,9.25731245 39.6611765,8.86117647 C39.570442,8.66521355 39.5253878,8.45120619 39.5294118,8.23529412 C39.5236728,7.79839917 39.7031993,7.37950397 40.0235294,7.08235294 C40.6639775,6.4545882 41.6889636,6.4545882 42.3294118,7.08235294 C42.496828,7.22095269 42.622306,7.40346624 42.6917647,7.60941176 C42.8675529,8.00815191 42.8675529,8.46243632 42.6917647,8.86117647 C42.622306,9.067122 42.496828,9.24963555 42.3294118,9.38823529 Z" id="Path"></path>
                <path d="M32.9411765,34.5882353 C32.9371525,34.3723232 32.9822067,34.1583159 33.0729412,33.9623529 C33.1423999,33.7564074 33.2678779,33.5738939 33.4352941,33.4352941 C33.8963031,32.9583764 34.6032852,32.8143615 35.2141176,33.0729412 C35.6102536,33.2493994 35.9270712,33.566217 36.1035294,33.9623529 C36.1942639,34.1583159 36.2393181,34.3723232 36.2352941,34.5882353 C36.2410331,35.0251302 36.0615066,35.4440254 35.7411765,35.7411765 C35.6025767,35.9085927 35.4200632,36.0340707 35.2141176,36.1035294 C34.8153775,36.2793176 34.3610931,36.2793176 33.9623529,36.1035294 C33.7564074,36.0340707 33.5738939,35.9085927 33.4352941,35.7411765 C33.114964,35.4440254 32.9354375,35.0251302 32.9411765,34.5882353 L32.9411765,34.5882353 Z" id="Path"></path>
                <path d="M32.9411765,8.23529412 C32.9371525,8.01938204 32.9822067,7.80537469 33.0729412,7.60941176 C33.2493994,7.21327579 33.566217,6.89645818 33.9623529,6.72 C34.3633481,6.55526444 34.8131225,6.55526444 35.2141176,6.72 C35.4200632,6.78945869 35.6025767,6.91493675 35.7411765,7.08235294 C36.0615066,7.37950397 36.2410331,7.79839917 36.2352941,8.23529412 C36.2393181,8.45120619 36.1942639,8.66521355 36.1035294,8.86117647 C35.9270712,9.25731245 35.6102536,9.57413005 35.2141176,9.75058824 C34.8153775,9.92637642 34.3610931,9.92637642 33.9623529,9.75058824 C33.566217,9.57413005 33.2493994,9.25731245 33.0729412,8.86117647 C32.9822067,8.66521355 32.9371525,8.45120619 32.9411765,8.23529412 Z" id="Path"></path>
                <path d="M32.9411765,21.4117647 C32.9354375,20.9748698 33.114964,20.5559746 33.4352941,20.2588235 C33.5738939,20.0914073 33.7564074,19.9659293 33.9623529,19.8964706 C34.3633481,19.731735 34.8131225,19.731735 35.2141176,19.8964706 C35.4200632,19.9659293 35.6025767,20.0914073 35.7411765,20.2588235 C36.0615066,20.5559746 36.2410331,20.9748698 36.2352941,21.4117647 C36.2426401,21.6279786 36.1974256,21.8427473 36.1035294,22.0376471 C35.9270712,22.433783 35.6102536,22.7506006 35.2141176,22.9270588 C35.0192179,23.020955 34.8044492,23.0661695 34.5882353,23.0588235 C34.3723232,23.0628475 34.1583159,23.0177933 33.9623529,22.9270588 C33.566217,22.7506006 33.2493994,22.433783 33.0729412,22.0376471 C32.979045,21.8427473 32.9338305,21.6279786 32.9411765,21.4117647 L32.9411765,21.4117647 Z" id="Path"></path>
                <path d="M27.3741176,19.8964706 C27.9861175,19.650101 28.6860816,19.7926862 29.1529412,20.2588235 C29.3203574,20.3974233 29.4458354,20.5799368 29.5152941,20.7858824 C29.6910823,21.1846225 29.6910823,21.6389069 29.5152941,22.0376471 C29.4458354,22.2435926 29.3203574,22.4261061 29.1529412,22.5647059 C28.8557901,22.885036 28.4368949,23.0645625 28,23.0588235 C27.7837861,23.0661695 27.5690174,23.020955 27.3741176,22.9270588 C26.9779817,22.7506006 26.6611641,22.433783 26.4847059,22.0376471 C26.3089177,21.6389069 26.3089177,21.1846225 26.4847059,20.7858824 C26.6611641,20.3897464 26.9779817,20.0729288 27.3741176,19.8964706 L27.3741176,19.8964706 Z" id="Path"></path>
                <path d="M27.3741176,33.0729412 C27.9861175,32.8265716 28.6860816,32.9691568 29.1529412,33.4352941 C29.3203574,33.5738939 29.4458354,33.7564074 29.5152941,33.9623529 C29.6060286,34.1583159 29.6510828,34.3723232 29.6470588,34.5882353 C29.624523,35.4883809 28.9001456,36.2127583 28,36.2352941 C27.7837861,36.2426401 27.5690174,36.1974256 27.3741176,36.1035294 C26.9779817,35.9270712 26.6611641,35.6102536 26.4847059,35.2141176 C26.3908097,35.0192179 26.3455952,34.8044492 26.3529412,34.5882353 C26.3472022,34.1513403 26.5267287,33.7324451 26.8470588,33.4352941 C26.9856586,33.2678779 27.1681721,33.1423999 27.3741176,33.0729412 L27.3741176,33.0729412 Z" id="Path"></path>
                <path d="M29.1529412,9.38823529 C29.0143414,9.55565148 28.8318279,9.68112955 28.6258824,9.75058824 C28.4299194,9.84132273 28.2159121,9.88637691 28,9.88235294 C27.7837861,9.88969893 27.5690174,9.84448446 27.3741176,9.75058824 C27.1681721,9.68112955 26.9856586,9.55565148 26.8470588,9.38823529 C26.5267287,9.09108426 26.3472022,8.67218906 26.3529412,8.23529412 C26.3455952,8.01908025 26.3908097,7.80431148 26.4847059,7.60941176 C26.6611641,7.21327579 26.9779817,6.89645818 27.3741176,6.72 C27.7751128,6.55526444 28.2248872,6.55526444 28.6258824,6.72 C29.0220183,6.89645818 29.3388359,7.21327579 29.5152941,7.60941176 C29.6060286,7.80537469 29.6510828,8.01938204 29.6470588,8.23529412 C29.6527978,8.67218906 29.4732713,9.09108426 29.1529412,9.38823529 L29.1529412,9.38823529 Z" id="Path"></path>
                <path d="M42.8235294,29.6470588 L6.58823529,29.6470588 C2.94965341,29.6470588 0,26.6974054 0,23.0588235 L0,19.7647059 C0,16.126124 2.94965341,13.1764706 6.58823529,13.1764706 L42.8235294,13.1764706 C46.4621113,13.1764706 49.4117647,16.126124 49.4117647,19.7647059 L49.4117647,23.0588235 C49.4117647,26.6974054 46.4621113,29.6470588 42.8235294,29.6470588 Z M6.58823529,16.4705882 C4.76894435,16.4705882 3.29411765,17.9454149 3.29411765,19.7647059 L3.29411765,23.0588235 C3.29411765,24.8781145 4.76894435,26.3529412 6.58823529,26.3529412 L42.8235294,26.3529412 C44.6428204,26.3529412 46.1176471,24.8781145 46.1176471,23.0588235 L46.1176471,19.7647059 C46.1176471,17.9454149 44.6428204,16.4705882 42.8235294,16.4705882 L6.58823529,16.4705882 Z" id="Shape"></path>
                <path d="M42.8235294,16.4705882 C41.9138839,16.4705882 41.1764706,15.7331749 41.1764706,14.8235294 C41.1764706,13.9138839 41.9138839,13.1764706 42.8235294,13.1764706 C44.6428204,13.1764706 46.1176471,11.7016439 46.1176471,9.88235294 L46.1176471,6.58823529 C46.1176471,4.76894435 44.6428204,3.29411765 42.8235294,3.29411765 L6.58823529,3.29411765 C4.76894435,3.29411765 3.29411765,4.76894435 3.29411765,6.58823529 L3.29411765,9.88235294 C3.29411765,11.7016439 4.76894435,13.1764706 6.58823529,13.1764706 C7.49788076,13.1764706 8.23529412,13.9138839 8.23529412,14.8235294 C8.23529412,15.7331749 7.49788076,16.4705882 6.58823529,16.4705882 C2.94965341,16.4705882 0,13.5209348 0,9.88235294 L0,6.58823529 C0,2.94965341 2.94965341,0 6.58823529,0 L42.8235294,0 C46.4621113,0 49.4117647,2.94965341 49.4117647,6.58823529 L49.4117647,9.88235294 C49.4117647,13.5209348 46.4621113,16.4705882 42.8235294,16.4705882 Z" id="Path"></path>
                <path d="M42.8235294,42.8235294 L6.58823529,42.8235294 C2.94965341,42.8235294 0,39.873876 0,36.2352941 L0,32.9411765 C0,29.3025946 2.94965341,26.3529412 6.58823529,26.3529412 C7.49788076,26.3529412 8.23529412,27.0903545 8.23529412,28 C8.23529412,28.9096455 7.49788076,29.6470588 6.58823529,29.6470588 C4.76894435,29.6470588 3.29411765,31.1218855 3.29411765,32.9411765 L3.29411765,36.2352941 C3.29411765,38.0545851 4.76894435,39.5294118 6.58823529,39.5294118 L42.8235294,39.5294118 C44.6428204,39.5294118 46.1176471,38.0545851 46.1176471,36.2352941 L46.1176471,32.9411765 C46.1176471,31.1218855 44.6428204,29.6470588 42.8235294,29.6470588 C41.9138839,29.6470588 41.1764706,28.9096455 41.1764706,28 C41.1764706,27.0903545 41.9138839,26.3529412 42.8235294,26.3529412 C46.4621113,26.3529412 49.4117647,29.3025946 49.4117647,32.9411765 L49.4117647,36.2352941 C49.4117647,39.873876 46.4621113,42.8235294 42.8235294,42.8235294 Z" id="Path"></path>
                <path d="M14.8235294,9.88235294 L8.23529412,9.88235294 C7.32564865,9.88235294 6.58823529,9.14493959 6.58823529,8.23529412 C6.58823529,7.32564865 7.32564865,6.58823529 8.23529412,6.58823529 L14.8235294,6.58823529 C15.7331749,6.58823529 16.4705882,7.32564865 16.4705882,8.23529412 C16.4705882,9.14493959 15.7331749,9.88235294 14.8235294,9.88235294 Z" id="Path"></path>
                <path d="M14.8235294,23.0588235 L8.23529412,23.0588235 C7.32564865,23.0588235 6.58823529,22.3214102 6.58823529,21.4117647 C6.58823529,20.5021192 7.32564865,19.7647059 8.23529412,19.7647059 L14.8235294,19.7647059 C15.7331749,19.7647059 16.4705882,20.5021192 16.4705882,21.4117647 C16.4705882,22.3214102 15.7331749,23.0588235 14.8235294,23.0588235 Z" id="Path"></path>
                <path d="M14.8235294,36.2352941 L8.23529412,36.2352941 C7.32564865,36.2352941 6.58823529,35.4978808 6.58823529,34.5882353 C6.58823529,33.6785898 7.32564865,32.9411765 8.23529412,32.9411765 L14.8235294,32.9411765 C15.7331749,32.9411765 16.4705882,33.6785898 16.4705882,34.5882353 C16.4705882,35.4978808 15.7331749,36.2352941 14.8235294,36.2352941 Z" id="Path"></path>
                <path d="M24.7058824,56 C21.9769459,56 19.7647059,53.7877599 19.7647059,51.0588235 C19.7647059,48.3298871 21.9769459,46.1176471 24.7058824,46.1176471 C27.4348188,46.1176471 29.6470588,48.3298871 29.6470588,51.0588235 C29.6470588,53.7877599 27.4348188,56 24.7058824,56 L24.7058824,56 Z M24.7058824,49.4117647 C23.7962369,49.4117647 23.0588235,50.1491781 23.0588235,51.0588235 C23.0588235,51.968469 23.7962369,52.7058824 24.7058824,52.7058824 C25.6155278,52.7058824 26.3529412,51.968469 26.3529412,51.0588235 C26.3529412,50.1491781 25.6155278,49.4117647 24.7058824,49.4117647 Z" id="Shape"></path>
                <path d="M47.7647059,52.7058824 L28,52.7058824 C27.0903545,52.7058824 26.3529412,51.968469 26.3529412,51.0588235 C26.3529412,50.1491781 27.0903545,49.4117647 28,49.4117647 L47.7647059,49.4117647 C48.6743514,49.4117647 49.4117647,50.1491781 49.4117647,51.0588235 C49.4117647,51.968469 48.6743514,52.7058824 47.7647059,52.7058824 Z" id="Path"></path>
                <path d="M21.4117647,52.7058824 L1.64705882,52.7058824 C0.737413353,52.7058824 0,51.968469 0,51.0588235 C0,50.1491781 0.737413353,49.4117647 1.64705882,49.4117647 L21.4117647,49.4117647 C22.3214102,49.4117647 23.0588235,50.1491781 23.0588235,51.0588235 C23.0588235,51.968469 22.3214102,52.7058824 21.4117647,52.7058824 Z" id="Path"></path>
                <path d="M24.7058824,49.4117647 C23.7962369,49.4117647 23.0588235,48.6743514 23.0588235,47.7647059 L23.0588235,41.1764706 C23.0588235,40.2668251 23.7962369,39.5294118 24.7058824,39.5294118 C25.6155278,39.5294118 26.3529412,40.2668251 26.3529412,41.1764706 L26.3529412,47.7647059 C26.3529412,48.6743514 25.6155278,49.4117647 24.7058824,49.4117647 Z" id="Path"></path>
            </g>
        </g>
    </g>
</svg>