<?xml version="1.0" encoding="UTF-8"?>
<svg width="236px" height="65px" viewBox="0 0 236 65" version="1.1" xmlns="http://www.w3.org/2000/svg" xmlns:xlink="http://www.w3.org/1999/xlink">
    <title>logo</title>
    <g id="1---Home" stroke="none" stroke-width="1" fill="none" fill-rule="evenodd">
        <g id="Desktop-HD-Copy" transform="translate(-340, -30)">
            <g id="Header" transform="translate(-14, 6)">
                <g id="logo" transform="translate(354, 24)">
                    <text id="ProNotary" font-family="ProximaNova-Extrabld, Proxima Nova" font-size="33.4067378" font-weight="700" letter-spacing="-0.312500012" fill="#FFFFFF">
                        <tspan x="60.8173868" y="38">Pro</tspan>
                        <tspan x="113.130227" y="38" font-family="ProximaNova-Bold, Proxima Nova" font-weight="bold">Notary</tspan>
                    </text>
                    <text id="TM" font-family="ProximaNova-Extrabld, Proxima Nova" font-size="12" font-weight="700" letter-spacing="0.499999983" fill="#FFFFFF">
                        <tspan x="216.983546" y="29.760529">TM</tspan>
                    </text>
                    <path d="M0,9.23420647 L0,57 L13.43649,43.8361635 L33.7102165,43.8361635 L33.7102165,32.6040406 C20.5890286,32.4228679 14.0284347,32.4228679 14.0284347,32.6040406 C14.0284347,32.7852133 12.9600223,34.0353409 10.8231977,36.3544235 C10.8109805,25.6360319 10.8109805,20.2768362 10.8231977,20.2768362 C10.8354148,20.2768362 18.4644211,20.2768362 33.7102165,20.2768362 C33.8680349,12.915083 33.8486214,9.23420647 33.651976,9.23420647 C33.4553305,9.23420647 22.2380052,9.23420647 0,9.23420647 Z" id="Path" fill="#FFFFFF"></path>
                    <path d="M33.5465406,38.1248074 C40.0062306,38.1248074 45.242844,32.8934145 45.242844,26.4401644 C45.242844,19.9869142 40.0062306,14.7555213 33.5465406,14.7555213" id="Path" stroke="#FFFFFF" stroke-width="11.1710324"></path>
                    <rect id="Rectangle" stroke-opacity="0" stroke="#979797" x="11.5" y="0.5" width="49" height="64"></rect>
                </g>
            </g>
        </g>
    </g>
</svg>